G04*
G04 #@! TF.GenerationSoftware,Altium Limited,Altium Designer,21.1.0 (24)*
G04*
G04 Layer_Physical_Order=3*
G04 Layer_Color=16440176*
%FSLAX25Y25*%
%MOIN*%
G70*
G04*
G04 #@! TF.SameCoordinates,8E11B689-D9C9-4360-AAA9-F91F00066FD3*
G04*
G04*
G04 #@! TF.FilePolarity,Positive*
G04*
G01*
G75*
%ADD40C,0.07874*%
%ADD71C,0.02362*%
G36*
X185039Y62992D02*
X169291Y47244D01*
X137795D01*
Y43307D01*
X129921Y35433D01*
X110236D01*
Y53596D01*
X110736Y53803D01*
X111090Y53449D01*
X111813Y53150D01*
X112596D01*
X113320Y53449D01*
X113874Y54003D01*
X114173Y54726D01*
Y55510D01*
X113874Y56233D01*
X113320Y56787D01*
X112596Y57087D01*
X111813D01*
X111090Y56787D01*
X110736Y56433D01*
X110236Y56641D01*
Y122047D01*
X106299Y125984D01*
X93808D01*
X93795Y126017D01*
X93241Y126570D01*
X92518Y126870D01*
X91734D01*
X91011Y126570D01*
X90457Y126017D01*
X90444Y125984D01*
X1606D01*
Y150753D01*
X2106Y150852D01*
X2268Y150460D01*
X2822Y149906D01*
X3545Y149606D01*
X4329D01*
X5052Y149906D01*
X5606Y150460D01*
X5906Y151183D01*
Y151966D01*
X5606Y152690D01*
X5052Y153244D01*
X4329Y153543D01*
X3545D01*
X2822Y153244D01*
X2268Y152690D01*
X2106Y152297D01*
X1606Y152397D01*
Y156658D01*
X2106Y156758D01*
X2268Y156365D01*
X2822Y155812D01*
X3545Y155512D01*
X4329D01*
X5052Y155812D01*
X5606Y156365D01*
X5906Y157089D01*
Y157872D01*
X5606Y158595D01*
X5052Y159149D01*
X4329Y159449D01*
X3545D01*
X2822Y159149D01*
X2268Y158595D01*
X2106Y158203D01*
X1606Y158302D01*
Y192091D01*
X2106Y192191D01*
X2268Y191798D01*
X2822Y191245D01*
X3545Y190945D01*
X4329D01*
X5052Y191245D01*
X5606Y191798D01*
X5635Y191868D01*
X6176D01*
X6205Y191798D01*
X6759Y191245D01*
X7482Y190945D01*
X8266D01*
X8989Y191245D01*
X9543Y191798D01*
X9593Y191918D01*
X10092D01*
X10142Y191798D01*
X10696Y191245D01*
X11419Y190945D01*
X12203D01*
X12926Y191245D01*
X13480Y191798D01*
X13509Y191868D01*
X14050D01*
X14079Y191798D01*
X14633Y191245D01*
X15357Y190945D01*
X16140D01*
X16863Y191245D01*
X17417Y191798D01*
X17446Y191868D01*
X17987D01*
X18016Y191798D01*
X18570Y191245D01*
X19294Y190945D01*
X20077D01*
X20800Y191245D01*
X21354Y191798D01*
X21654Y192522D01*
Y193305D01*
X21354Y194028D01*
X20800Y194582D01*
X20680Y194632D01*
Y195132D01*
X20800Y195182D01*
X21354Y195735D01*
X21654Y196459D01*
Y197242D01*
X21354Y197966D01*
X20800Y198519D01*
X20730Y198548D01*
Y199090D01*
X20800Y199119D01*
X21354Y199672D01*
X21654Y200396D01*
Y201179D01*
X21354Y201903D01*
X20800Y202456D01*
X20408Y202619D01*
X20507Y203119D01*
X24684D01*
X24784Y202619D01*
X24451Y202481D01*
X23897Y201927D01*
X23597Y201204D01*
Y200420D01*
X23897Y199697D01*
X24451Y199143D01*
X25174Y198844D01*
X25958D01*
X26681Y199143D01*
X27235Y199697D01*
X27264Y199767D01*
X27805D01*
X27834Y199697D01*
X28388Y199143D01*
X29111Y198844D01*
X29895D01*
X30618Y199143D01*
X31172Y199697D01*
X31471Y200420D01*
Y201204D01*
X31172Y201927D01*
X30618Y202481D01*
X30285Y202619D01*
X30385Y203119D01*
X65260D01*
X65339Y202625D01*
X64881Y202476D01*
X62838Y201435D01*
X60983Y200087D01*
X59361Y198466D01*
X58014Y196611D01*
X56973Y194568D01*
X56264Y192387D01*
X55905Y190123D01*
Y187830D01*
X56264Y185565D01*
X56973Y183385D01*
X58014Y181342D01*
X59361Y179487D01*
X60983Y177865D01*
X62838Y176518D01*
X64881Y175477D01*
X67061Y174768D01*
X69326Y174409D01*
X71619D01*
X73883Y174768D01*
X76064Y175477D01*
X78107Y176518D01*
X79962Y177865D01*
X81583Y179487D01*
X82931Y181342D01*
X83972Y183385D01*
X84681Y185565D01*
X85039Y187830D01*
Y190123D01*
X84681Y192387D01*
X83972Y194568D01*
X82931Y196611D01*
X81583Y198466D01*
X79962Y200087D01*
X78107Y201435D01*
X76064Y202476D01*
X75606Y202625D01*
X75684Y203119D01*
X172319Y203119D01*
X172511Y202657D01*
X172445Y202591D01*
X172146Y201868D01*
Y201085D01*
X172445Y200361D01*
X172999Y199808D01*
X173723Y199508D01*
X174506D01*
X175229Y199808D01*
X175783Y200361D01*
X176083Y201085D01*
Y201868D01*
X175783Y202591D01*
X175718Y202657D01*
X175909Y203119D01*
X185039D01*
Y62992D01*
D02*
G37*
G36*
X11048Y202602D02*
X10696Y202456D01*
X10142Y201903D01*
X9843Y201179D01*
Y200396D01*
X10142Y199672D01*
X10696Y199119D01*
X10766Y199090D01*
Y198548D01*
X10696Y198519D01*
X10142Y197966D01*
X10092Y197845D01*
X9593D01*
X9543Y197966D01*
X8989Y198519D01*
X8266Y198819D01*
X7482D01*
X6759Y198519D01*
X6205Y197966D01*
X5906Y197242D01*
Y196459D01*
X6205Y195735D01*
X6759Y195182D01*
X6879Y195132D01*
Y194632D01*
X6759Y194582D01*
X6205Y194028D01*
X6176Y193958D01*
X5635D01*
X5606Y194028D01*
X5052Y194582D01*
X4329Y194882D01*
X3545D01*
X2822Y194582D01*
X2268Y194028D01*
X2122Y193676D01*
X1635Y193807D01*
X1780Y194909D01*
X2127Y196201D01*
X2638Y197437D01*
X3307Y198595D01*
X4122Y199657D01*
X5068Y200603D01*
X6129Y201417D01*
X7288Y202086D01*
X8524Y202598D01*
X9816Y202944D01*
X10917Y203089D01*
X11048Y202602D01*
D02*
G37*
%LPC*%
G36*
X110628Y202364D02*
X109845D01*
X109121Y202065D01*
X108567Y201511D01*
X108268Y200787D01*
Y200004D01*
X108567Y199281D01*
X109121Y198727D01*
X109845Y198427D01*
X110628D01*
X111351Y198727D01*
X111905Y199281D01*
X112205Y200004D01*
Y200787D01*
X111905Y201511D01*
X111351Y202065D01*
X110628Y202364D01*
D02*
G37*
G36*
X102754D02*
X101971D01*
X101247Y202065D01*
X100693Y201511D01*
X100394Y200787D01*
Y200004D01*
X100693Y199281D01*
X101247Y198727D01*
X101971Y198427D01*
X102754D01*
X103477Y198727D01*
X104031Y199281D01*
X104331Y200004D01*
Y200787D01*
X104031Y201511D01*
X103477Y202065D01*
X102754Y202364D01*
D02*
G37*
G36*
X94880D02*
X94097D01*
X93373Y202065D01*
X92819Y201511D01*
X92520Y200787D01*
Y200004D01*
X92819Y199281D01*
X93373Y198727D01*
X94097Y198427D01*
X94880D01*
X95603Y198727D01*
X96157Y199281D01*
X96457Y200004D01*
Y200787D01*
X96157Y201511D01*
X95603Y202065D01*
X94880Y202364D01*
D02*
G37*
G36*
X88974Y196850D02*
X88191D01*
X87468Y196551D01*
X86914Y195997D01*
X86614Y195273D01*
Y194490D01*
X86914Y193767D01*
X87468Y193213D01*
X88191Y192913D01*
X88974D01*
X89698Y193213D01*
X90251Y193767D01*
X90551Y194490D01*
Y195273D01*
X90251Y195997D01*
X89698Y196551D01*
X88974Y196850D01*
D02*
G37*
G36*
X52461Y198425D02*
X44980D01*
Y190945D01*
X52461D01*
Y198425D01*
D02*
G37*
G36*
X39213D02*
X38228D01*
X37277Y198170D01*
X36424Y197678D01*
X35728Y196982D01*
X35235Y196129D01*
X34980Y195177D01*
Y194193D01*
X35235Y193241D01*
X35728Y192388D01*
X36424Y191692D01*
X37277Y191200D01*
X38228Y190945D01*
X39213D01*
X40164Y191200D01*
X41017Y191692D01*
X41713Y192388D01*
X42206Y193241D01*
X42461Y194193D01*
Y195177D01*
X42206Y196129D01*
X41713Y196982D01*
X41017Y197678D01*
X40164Y198170D01*
X39213Y198425D01*
D02*
G37*
G36*
X112104Y193898D02*
X111321D01*
X110598Y193598D01*
X110044Y193044D01*
X109744Y192321D01*
Y191538D01*
X110044Y190814D01*
X110598Y190260D01*
X111321Y189961D01*
X112104D01*
X112828Y190260D01*
X113381Y190814D01*
X113681Y191538D01*
Y192321D01*
X113381Y193044D01*
X112828Y193598D01*
X112104Y193898D01*
D02*
G37*
G36*
X160689Y198583D02*
X151909D01*
Y189803D01*
X160689D01*
Y198583D01*
D02*
G37*
G36*
X145066D02*
X143910D01*
X142794Y198284D01*
X141793Y197706D01*
X140975Y196888D01*
X140398Y195887D01*
X140098Y194771D01*
Y193615D01*
X140398Y192499D01*
X140975Y191498D01*
X141793Y190680D01*
X142794Y190102D01*
X143910Y189803D01*
X145066D01*
X146183Y190102D01*
X147184Y190680D01*
X148001Y191498D01*
X148579Y192499D01*
X148878Y193615D01*
Y194771D01*
X148579Y195887D01*
X148001Y196888D01*
X147184Y197706D01*
X146183Y198284D01*
X145066Y198583D01*
D02*
G37*
G36*
X88974Y190945D02*
X88191D01*
X87468Y190645D01*
X86914Y190092D01*
X86614Y189368D01*
Y188585D01*
X86914Y187861D01*
X87468Y187308D01*
X88191Y187008D01*
X88974D01*
X89698Y187308D01*
X90251Y187861D01*
X90551Y188585D01*
Y189368D01*
X90251Y190092D01*
X89698Y190645D01*
X88974Y190945D01*
D02*
G37*
G36*
X37695Y188238D02*
X36912D01*
X36188Y187938D01*
X35634Y187385D01*
X35335Y186661D01*
Y185878D01*
X35634Y185155D01*
X36188Y184601D01*
X36912Y184301D01*
X37695D01*
X38418Y184601D01*
X38972Y185155D01*
X39272Y185878D01*
Y186661D01*
X38972Y187385D01*
X38418Y187938D01*
X37695Y188238D01*
D02*
G37*
G36*
X168597Y190176D02*
X167623D01*
X166682Y189924D01*
X165838Y189437D01*
X165149Y188748D01*
X164662Y187905D01*
X164410Y186963D01*
Y185989D01*
X164662Y185048D01*
X165149Y184204D01*
X165838Y183516D01*
X166682Y183028D01*
X167623Y182776D01*
X168597D01*
X169538Y183028D01*
X170382Y183516D01*
X171071Y184204D01*
X171558Y185048D01*
X171810Y185989D01*
Y186963D01*
X171558Y187905D01*
X171071Y188748D01*
X170382Y189437D01*
X169538Y189924D01*
X168597Y190176D01*
D02*
G37*
G36*
X133164D02*
X132190D01*
X131249Y189924D01*
X130405Y189437D01*
X129716Y188748D01*
X129229Y187905D01*
X128977Y186963D01*
Y185989D01*
X129229Y185048D01*
X129716Y184204D01*
X130405Y183516D01*
X131249Y183028D01*
X132190Y182776D01*
X133164D01*
X134105Y183028D01*
X134949Y183516D01*
X135638Y184204D01*
X136125Y185048D01*
X136377Y185989D01*
Y186963D01*
X136125Y187905D01*
X135638Y188748D01*
X134949Y189437D01*
X134105Y189924D01*
X133164Y190176D01*
D02*
G37*
G36*
X9151Y186221D02*
X8368D01*
X7645Y185921D01*
X7091Y185367D01*
X6791Y184643D01*
Y183860D01*
X7091Y183137D01*
X7645Y182583D01*
X8368Y182283D01*
X9151D01*
X9875Y182583D01*
X10429Y183137D01*
X10728Y183860D01*
Y184643D01*
X10429Y185367D01*
X9875Y185921D01*
X9151Y186221D01*
D02*
G37*
G36*
X88974Y185039D02*
X88191D01*
X87468Y184740D01*
X86914Y184186D01*
X86614Y183462D01*
Y182679D01*
X86914Y181956D01*
X87468Y181402D01*
X88191Y181102D01*
X88974D01*
X89698Y181402D01*
X90251Y181956D01*
X90551Y182679D01*
Y183462D01*
X90251Y184186D01*
X89698Y184740D01*
X88974Y185039D01*
D02*
G37*
G36*
X31100Y184941D02*
X30317D01*
X29594Y184641D01*
X29040Y184088D01*
X28740Y183364D01*
Y182581D01*
X29040Y181857D01*
X29594Y181304D01*
X30317Y181004D01*
X31100D01*
X31824Y181304D01*
X32377Y181857D01*
X32677Y182581D01*
Y183364D01*
X32377Y184088D01*
X31824Y184641D01*
X31100Y184941D01*
D02*
G37*
G36*
X111120Y181398D02*
X110337D01*
X109613Y181098D01*
X109060Y180544D01*
X108760Y179821D01*
Y179038D01*
X109060Y178314D01*
X109613Y177760D01*
X110337Y177461D01*
X111120D01*
X111843Y177760D01*
X112397Y178314D01*
X112697Y179038D01*
Y179821D01*
X112397Y180544D01*
X111843Y181098D01*
X111120Y181398D01*
D02*
G37*
G36*
X9151Y179823D02*
X8368D01*
X7645Y179523D01*
X7091Y178969D01*
X6791Y178246D01*
Y177463D01*
X7091Y176739D01*
X7645Y176186D01*
X8368Y175886D01*
X9151D01*
X9875Y176186D01*
X10429Y176739D01*
X10728Y177463D01*
Y178246D01*
X10429Y178969D01*
X9875Y179523D01*
X9151Y179823D01*
D02*
G37*
G36*
X176573Y177854D02*
X175789D01*
X175066Y177555D01*
X174512Y177001D01*
X174213Y176277D01*
Y175494D01*
X174512Y174771D01*
X175066Y174217D01*
X175789Y173917D01*
X176573D01*
X177296Y174217D01*
X177850Y174771D01*
X178150Y175494D01*
Y176277D01*
X177850Y177001D01*
X177296Y177555D01*
X176573Y177854D01*
D02*
G37*
G36*
X116632Y174803D02*
X115849D01*
X115125Y174504D01*
X114571Y173950D01*
X114272Y173226D01*
Y172443D01*
X114571Y171720D01*
X115125Y171166D01*
X115849Y170866D01*
X116632D01*
X117355Y171166D01*
X117909Y171720D01*
X118209Y172443D01*
Y173226D01*
X117909Y173950D01*
X117355Y174504D01*
X116632Y174803D01*
D02*
G37*
G36*
X156199Y173327D02*
X155415D01*
X154692Y173027D01*
X154138Y172473D01*
X153839Y171750D01*
Y170967D01*
X154138Y170243D01*
X154692Y169690D01*
X155415Y169390D01*
X156199D01*
X156922Y169690D01*
X157476Y170243D01*
X157776Y170967D01*
Y171750D01*
X157476Y172473D01*
X156922Y173027D01*
X156199Y173327D01*
D02*
G37*
G36*
X149309D02*
X148526D01*
X147802Y173027D01*
X147248Y172473D01*
X146949Y171750D01*
Y170967D01*
X147248Y170243D01*
X147802Y169690D01*
X148526Y169390D01*
X149309D01*
X150032Y169690D01*
X150586Y170243D01*
X150886Y170967D01*
Y171750D01*
X150586Y172473D01*
X150032Y173027D01*
X149309Y173327D01*
D02*
G37*
G36*
X63581Y172933D02*
X62797D01*
X62074Y172633D01*
X61520Y172080D01*
X61221Y171356D01*
Y170573D01*
X61520Y169850D01*
X62074Y169296D01*
X62797Y168996D01*
X63581D01*
X64304Y169296D01*
X64858Y169850D01*
X65158Y170573D01*
Y171356D01*
X64858Y172080D01*
X64304Y172633D01*
X63581Y172933D01*
D02*
G37*
G36*
X175490Y172441D02*
X174707D01*
X173983Y172141D01*
X173430Y171588D01*
X173130Y170864D01*
Y170081D01*
X173430Y169357D01*
X173983Y168804D01*
X174707Y168504D01*
X175490D01*
X176214Y168804D01*
X176767Y169357D01*
X177067Y170081D01*
Y170864D01*
X176767Y171588D01*
X176214Y172141D01*
X175490Y172441D01*
D02*
G37*
G36*
X69585Y171949D02*
X68801D01*
X68078Y171649D01*
X67524Y171095D01*
X67224Y170372D01*
Y169589D01*
X67524Y168865D01*
X68078Y168312D01*
X68801Y168012D01*
X69585D01*
X70308Y168312D01*
X70862Y168865D01*
X71161Y169589D01*
Y170372D01*
X70862Y171095D01*
X70308Y171649D01*
X69585Y171949D01*
D02*
G37*
G36*
X41129Y168122D02*
X40346D01*
X39623Y167823D01*
X39069Y167269D01*
X39054Y167233D01*
X38564Y167135D01*
X38340Y167359D01*
X37617Y167659D01*
X36834D01*
X36110Y167359D01*
X35556Y166805D01*
X35257Y166082D01*
Y165299D01*
X35556Y164575D01*
X36110Y164022D01*
X36834Y163722D01*
X37617D01*
X38340Y164022D01*
X38894Y164575D01*
X38909Y164611D01*
X39399Y164709D01*
X39623Y164485D01*
X40346Y164185D01*
X41129D01*
X41853Y164485D01*
X42407Y165039D01*
X42707Y165762D01*
Y166545D01*
X42407Y167269D01*
X41853Y167823D01*
X41129Y168122D01*
D02*
G37*
G36*
X106691Y167323D02*
X105908D01*
X105184Y167023D01*
X104630Y166469D01*
X104601Y166399D01*
X104060D01*
X104031Y166469D01*
X103477Y167023D01*
X102754Y167323D01*
X101971D01*
X101247Y167023D01*
X100693Y166469D01*
X100394Y165746D01*
Y164963D01*
X100693Y164239D01*
X101247Y163686D01*
X101317Y163656D01*
Y163115D01*
X101247Y163086D01*
X100693Y162532D01*
X100394Y161809D01*
Y161026D01*
X100693Y160302D01*
X101247Y159748D01*
X101971Y159449D01*
X102754D01*
X103477Y159748D01*
X104031Y160302D01*
X104060Y160372D01*
X104601D01*
X104630Y160302D01*
X105184Y159748D01*
X105908Y159449D01*
X106691D01*
X107414Y159748D01*
X107968Y160302D01*
X108268Y161026D01*
Y161809D01*
X107968Y162532D01*
X107414Y163086D01*
X107344Y163115D01*
Y163656D01*
X107414Y163686D01*
X107968Y164239D01*
X108268Y164963D01*
Y165746D01*
X107968Y166469D01*
X107414Y167023D01*
X106691Y167323D01*
D02*
G37*
G36*
X132773Y169587D02*
X131990D01*
X131267Y169287D01*
X130713Y168733D01*
X130413Y168010D01*
Y167227D01*
X130713Y166503D01*
X131267Y165949D01*
X131990Y165650D01*
X132773D01*
X133497Y165949D01*
X134051Y166503D01*
X134350Y167227D01*
Y168010D01*
X134051Y168733D01*
X133497Y169287D01*
X132773Y169587D01*
D02*
G37*
G36*
X45667Y167323D02*
X44884D01*
X44161Y167023D01*
X43607Y166469D01*
X43307Y165746D01*
Y164963D01*
X43607Y164239D01*
X44161Y163686D01*
X44884Y163386D01*
X45667D01*
X46391Y163686D01*
X46944Y164239D01*
X47244Y164963D01*
Y165746D01*
X46944Y166469D01*
X46391Y167023D01*
X45667Y167323D01*
D02*
G37*
G36*
X117321Y166535D02*
X116538D01*
X115814Y166236D01*
X115260Y165682D01*
X114961Y164959D01*
Y164175D01*
X115260Y163452D01*
X115814Y162898D01*
X116538Y162598D01*
X117321D01*
X118044Y162898D01*
X118598Y163452D01*
X118898Y164175D01*
Y164959D01*
X118598Y165682D01*
X118044Y166236D01*
X117321Y166535D01*
D02*
G37*
G36*
X132933Y165134D02*
X132874D01*
X131618Y164797D01*
X130492Y164147D01*
X129573Y163228D01*
X128923Y162102D01*
X128672Y161167D01*
X128155D01*
X127926Y162020D01*
X127304Y163098D01*
X126425Y163977D01*
X125347Y164599D01*
X124146Y164921D01*
X122902D01*
X121700Y164599D01*
X120623Y163977D01*
X119743Y163098D01*
X119121Y162020D01*
X118799Y160819D01*
Y159575D01*
X119121Y158373D01*
X119743Y157296D01*
X120623Y156416D01*
X121700Y155794D01*
X122902Y155472D01*
X124146D01*
X125347Y155794D01*
X126425Y156416D01*
X127304Y157296D01*
X127926Y158373D01*
X128155Y159227D01*
X128672D01*
X128923Y158291D01*
X129573Y157166D01*
X130492Y156246D01*
X131618Y155596D01*
X132554Y155346D01*
Y154828D01*
X131700Y154599D01*
X130623Y153977D01*
X129743Y153098D01*
X129121Y152020D01*
X128799Y150819D01*
Y149575D01*
X129121Y148373D01*
X129743Y147296D01*
X130623Y146416D01*
X131700Y145794D01*
X132902Y145472D01*
X134146D01*
X135347Y145794D01*
X136425Y146416D01*
X137304Y147296D01*
X137926Y148373D01*
X138248Y149575D01*
Y150819D01*
X137926Y152020D01*
X137304Y153098D01*
X136425Y153977D01*
X135347Y154599D01*
X134494Y154828D01*
Y155346D01*
X135429Y155596D01*
X136555Y156246D01*
X137474Y157166D01*
X138124Y158291D01*
X138461Y159547D01*
Y159606D01*
X133524D01*
Y160197D01*
X132933D01*
Y165134D01*
D02*
G37*
G36*
X134174D02*
X134114D01*
Y160787D01*
X138461D01*
Y160847D01*
X138124Y162102D01*
X137474Y163228D01*
X136555Y164147D01*
X135429Y164797D01*
X134174Y165134D01*
D02*
G37*
G36*
X143994Y162795D02*
X143211D01*
X142487Y162496D01*
X141934Y161942D01*
X141634Y161218D01*
Y160435D01*
X141934Y159712D01*
X142487Y159158D01*
X143211Y158858D01*
X143994D01*
X144717Y159158D01*
X145271Y159712D01*
X145571Y160435D01*
Y161218D01*
X145271Y161942D01*
X144717Y162496D01*
X143994Y162795D01*
D02*
G37*
G36*
X91632Y158563D02*
X90849D01*
X90125Y158263D01*
X89571Y157710D01*
X89272Y156986D01*
Y156203D01*
X89571Y155479D01*
X90125Y154926D01*
X90849Y154626D01*
X91632D01*
X92355Y154926D01*
X92909Y155479D01*
X93209Y156203D01*
Y156986D01*
X92909Y157710D01*
X92355Y158263D01*
X91632Y158563D01*
D02*
G37*
G36*
X12282Y156397D02*
X11499D01*
X10775Y156097D01*
X10222Y155544D01*
X9922Y154820D01*
Y154037D01*
X10222Y153314D01*
X10775Y152760D01*
X11499Y152460D01*
X12282D01*
X13006Y152760D01*
X13559Y153314D01*
X13859Y154037D01*
Y154820D01*
X13559Y155544D01*
X13006Y156097D01*
X12282Y156397D01*
D02*
G37*
G36*
X164073Y156004D02*
X163290D01*
X162566Y155704D01*
X162012Y155150D01*
X161713Y154427D01*
Y153644D01*
X162012Y152920D01*
X162566Y152367D01*
X163290Y152067D01*
X164073D01*
X164796Y152367D01*
X165350Y152920D01*
X165650Y153644D01*
Y154427D01*
X165350Y155150D01*
X164796Y155704D01*
X164073Y156004D01*
D02*
G37*
G36*
X117222Y155413D02*
X116439D01*
X115716Y155114D01*
X115162Y154560D01*
X114862Y153836D01*
Y153053D01*
X115162Y152330D01*
X115716Y151776D01*
X116439Y151476D01*
X117222D01*
X117946Y151776D01*
X118500Y152330D01*
X118799Y153053D01*
Y153836D01*
X118500Y154560D01*
X117946Y155114D01*
X117222Y155413D01*
D02*
G37*
G36*
X33856Y153543D02*
X33073D01*
X32350Y153244D01*
X31796Y152690D01*
X31496Y151966D01*
Y151183D01*
X31796Y150460D01*
X32350Y149906D01*
X33073Y149606D01*
X33856D01*
X34580Y149906D01*
X35133Y150460D01*
X35433Y151183D01*
Y151966D01*
X35133Y152690D01*
X34580Y153244D01*
X33856Y153543D01*
D02*
G37*
G36*
X27951D02*
X27167D01*
X26444Y153244D01*
X25890Y152690D01*
X25591Y151966D01*
Y151183D01*
X25890Y150460D01*
X26444Y149906D01*
X27167Y149606D01*
X27951D01*
X28674Y149906D01*
X29228Y150460D01*
X29528Y151183D01*
Y151966D01*
X29228Y152690D01*
X28674Y153244D01*
X27951Y153543D01*
D02*
G37*
G36*
X22045D02*
X21262D01*
X20538Y153244D01*
X19985Y152690D01*
X19685Y151966D01*
Y151183D01*
X19985Y150460D01*
X20538Y149906D01*
X21262Y149606D01*
X22045D01*
X22769Y149906D01*
X23322Y150460D01*
X23622Y151183D01*
Y151966D01*
X23322Y152690D01*
X22769Y153244D01*
X22045Y153543D01*
D02*
G37*
G36*
X10234Y149606D02*
X9451D01*
X8727Y149307D01*
X8174Y148753D01*
X7874Y148029D01*
Y147246D01*
X8174Y146523D01*
X8727Y145969D01*
X9451Y145669D01*
X10234D01*
X10958Y145969D01*
X11511Y146523D01*
X11811Y147246D01*
Y148029D01*
X11511Y148753D01*
X10958Y149307D01*
X10234Y149606D01*
D02*
G37*
G36*
X124146Y154921D02*
X122902D01*
X121700Y154599D01*
X120623Y153977D01*
X119743Y153098D01*
X119121Y152020D01*
X118799Y150819D01*
Y149575D01*
X119121Y148373D01*
X119743Y147296D01*
X120623Y146416D01*
X121700Y145794D01*
X122902Y145472D01*
X124146D01*
X125347Y145794D01*
X126425Y146416D01*
X127304Y147296D01*
X127926Y148373D01*
X128248Y149575D01*
Y150819D01*
X127926Y152020D01*
X127304Y153098D01*
X126425Y153977D01*
X125347Y154599D01*
X124146Y154921D01*
D02*
G37*
G36*
X64171Y140748D02*
X63388D01*
X62665Y140448D01*
X62111Y139895D01*
X61811Y139171D01*
Y138388D01*
X62111Y137664D01*
X62665Y137111D01*
X63388Y136811D01*
X64171D01*
X64895Y137111D01*
X65448Y137664D01*
X65748Y138388D01*
Y139171D01*
X65448Y139895D01*
X64895Y140448D01*
X64171Y140748D01*
D02*
G37*
G36*
X69585Y140650D02*
X68801D01*
X68078Y140350D01*
X67524Y139796D01*
X67224Y139073D01*
Y138290D01*
X67524Y137566D01*
X68078Y137012D01*
X68801Y136713D01*
X69585D01*
X70308Y137012D01*
X70862Y137566D01*
X71161Y138290D01*
Y139073D01*
X70862Y139796D01*
X70308Y140350D01*
X69585Y140650D01*
D02*
G37*
G36*
X134146Y144921D02*
X132902D01*
X131700Y144599D01*
X130623Y143977D01*
X129743Y143098D01*
X129121Y142020D01*
X128799Y140819D01*
Y139575D01*
X129121Y138373D01*
X129743Y137296D01*
X130623Y136416D01*
X131700Y135794D01*
X132902Y135472D01*
X134146D01*
X135347Y135794D01*
X136425Y136416D01*
X137304Y137296D01*
X137926Y138373D01*
X138248Y139575D01*
Y140819D01*
X137926Y142020D01*
X137304Y143098D01*
X136425Y143977D01*
X135347Y144599D01*
X134146Y144921D01*
D02*
G37*
G36*
X124146D02*
X122902D01*
X121700Y144599D01*
X120623Y143977D01*
X119743Y143098D01*
X119121Y142020D01*
X118799Y140819D01*
Y139575D01*
X119121Y138373D01*
X119743Y137296D01*
X120623Y136416D01*
X121700Y135794D01*
X122902Y135472D01*
X124146D01*
X125347Y135794D01*
X126425Y136416D01*
X127304Y137296D01*
X127926Y138373D01*
X128248Y139575D01*
Y140819D01*
X127926Y142020D01*
X127304Y143098D01*
X126425Y143977D01*
X125347Y144599D01*
X124146Y144921D01*
D02*
G37*
G36*
X89368Y138878D02*
X88585D01*
X87861Y138578D01*
X87308Y138024D01*
X87008Y137301D01*
Y136518D01*
X87308Y135794D01*
X87861Y135241D01*
X88585Y134941D01*
X89368D01*
X90091Y135241D01*
X90645Y135794D01*
X90945Y136518D01*
Y137301D01*
X90645Y138024D01*
X90091Y138578D01*
X89368Y138878D01*
D02*
G37*
G36*
X150392Y130315D02*
X149608D01*
X148885Y130015D01*
X148331Y129462D01*
X148031Y128738D01*
Y127955D01*
X148331Y127231D01*
X148885Y126678D01*
X149608Y126378D01*
X150392D01*
X151115Y126678D01*
X151669Y127231D01*
X151969Y127955D01*
Y128738D01*
X151669Y129462D01*
X151115Y130015D01*
X150392Y130315D01*
D02*
G37*
G36*
X144486D02*
X143703D01*
X142979Y130015D01*
X142426Y129462D01*
X142126Y128738D01*
Y127955D01*
X142426Y127231D01*
X142979Y126678D01*
X143703Y126378D01*
X144486D01*
X145210Y126678D01*
X145763Y127231D01*
X146063Y127955D01*
Y128738D01*
X145763Y129462D01*
X145210Y130015D01*
X144486Y130315D01*
D02*
G37*
G36*
X138581D02*
X137797D01*
X137074Y130015D01*
X136520Y129462D01*
X136221Y128738D01*
Y127955D01*
X136520Y127231D01*
X137074Y126678D01*
X137797Y126378D01*
X138581D01*
X139304Y126678D01*
X139858Y127231D01*
X140157Y127955D01*
Y128738D01*
X139858Y129462D01*
X139304Y130015D01*
X138581Y130315D01*
D02*
G37*
G36*
X132675D02*
X131892D01*
X131168Y130015D01*
X130615Y129462D01*
X130315Y128738D01*
Y127955D01*
X130615Y127231D01*
X131168Y126678D01*
X131892Y126378D01*
X132675D01*
X133398Y126678D01*
X133952Y127231D01*
X134252Y127955D01*
Y128738D01*
X133952Y129462D01*
X133398Y130015D01*
X132675Y130315D01*
D02*
G37*
G36*
X126769D02*
X125986D01*
X125263Y130015D01*
X124709Y129462D01*
X124409Y128738D01*
Y127955D01*
X124709Y127231D01*
X125263Y126678D01*
X125986Y126378D01*
X126769D01*
X127493Y126678D01*
X128047Y127231D01*
X128347Y127955D01*
Y128738D01*
X128047Y129462D01*
X127493Y130015D01*
X126769Y130315D01*
D02*
G37*
G36*
X175884Y125492D02*
X175101D01*
X174377Y125192D01*
X173823Y124639D01*
X173524Y123915D01*
Y123132D01*
X173823Y122408D01*
X174377Y121855D01*
X175101Y121555D01*
X175884D01*
X176607Y121855D01*
X177161Y122408D01*
X177461Y123132D01*
Y123915D01*
X177161Y124639D01*
X176607Y125192D01*
X175884Y125492D01*
D02*
G37*
G36*
X169683Y116142D02*
X168900D01*
X168176Y115842D01*
X167622Y115288D01*
X167323Y114565D01*
Y113782D01*
X167622Y113058D01*
X168176Y112504D01*
X168900Y112205D01*
X169683D01*
X170406Y112504D01*
X170960Y113058D01*
X171260Y113782D01*
Y114565D01*
X170960Y115288D01*
X170406Y115842D01*
X169683Y116142D01*
D02*
G37*
G36*
X163777D02*
X162994D01*
X162271Y115842D01*
X161717Y115288D01*
X161417Y114565D01*
Y113782D01*
X161717Y113058D01*
X162271Y112504D01*
X162994Y112205D01*
X163777D01*
X164501Y112504D01*
X165055Y113058D01*
X165354Y113782D01*
Y114565D01*
X165055Y115288D01*
X164501Y115842D01*
X163777Y116142D01*
D02*
G37*
G36*
X157872D02*
X157089D01*
X156365Y115842D01*
X155812Y115288D01*
X155512Y114565D01*
Y113782D01*
X155812Y113058D01*
X156365Y112504D01*
X157089Y112205D01*
X157872D01*
X158595Y112504D01*
X159149Y113058D01*
X159449Y113782D01*
Y114565D01*
X159149Y115288D01*
X158595Y115842D01*
X157872Y116142D01*
D02*
G37*
G36*
X151966D02*
X151183D01*
X150460Y115842D01*
X149906Y115288D01*
X149606Y114565D01*
Y113782D01*
X149906Y113058D01*
X150460Y112504D01*
X151183Y112205D01*
X151966D01*
X152690Y112504D01*
X153244Y113058D01*
X153543Y113782D01*
Y114565D01*
X153244Y115288D01*
X152690Y115842D01*
X151966Y116142D01*
D02*
G37*
G36*
X146061D02*
X145278D01*
X144554Y115842D01*
X144000Y115288D01*
X143701Y114565D01*
Y113782D01*
X144000Y113058D01*
X144554Y112504D01*
X145278Y112205D01*
X146061D01*
X146784Y112504D01*
X147338Y113058D01*
X147638Y113782D01*
Y114565D01*
X147338Y115288D01*
X146784Y115842D01*
X146061Y116142D01*
D02*
G37*
G36*
X140155D02*
X139372D01*
X138649Y115842D01*
X138095Y115288D01*
X137795Y114565D01*
Y113782D01*
X138095Y113058D01*
X138649Y112504D01*
X139372Y112205D01*
X140155D01*
X140879Y112504D01*
X141433Y113058D01*
X141732Y113782D01*
Y114565D01*
X141433Y115288D01*
X140879Y115842D01*
X140155Y116142D01*
D02*
G37*
G36*
X169683Y110236D02*
X168900D01*
X168176Y109936D01*
X167622Y109383D01*
X167323Y108659D01*
Y107876D01*
X167622Y107153D01*
X168176Y106599D01*
X168900Y106299D01*
X169683D01*
X170406Y106599D01*
X170960Y107153D01*
X171260Y107876D01*
Y108659D01*
X170960Y109383D01*
X170406Y109936D01*
X169683Y110236D01*
D02*
G37*
G36*
X163777D02*
X162994D01*
X162271Y109936D01*
X161717Y109383D01*
X161417Y108659D01*
Y107876D01*
X161717Y107153D01*
X162271Y106599D01*
X162994Y106299D01*
X163777D01*
X164501Y106599D01*
X165055Y107153D01*
X165354Y107876D01*
Y108659D01*
X165055Y109383D01*
X164501Y109936D01*
X163777Y110236D01*
D02*
G37*
G36*
X157872D02*
X157089D01*
X156365Y109936D01*
X155812Y109383D01*
X155512Y108659D01*
Y107876D01*
X155812Y107153D01*
X156365Y106599D01*
X157089Y106299D01*
X157872D01*
X158595Y106599D01*
X159149Y107153D01*
X159449Y107876D01*
Y108659D01*
X159149Y109383D01*
X158595Y109936D01*
X157872Y110236D01*
D02*
G37*
G36*
X151966D02*
X151183D01*
X150460Y109936D01*
X149906Y109383D01*
X149606Y108659D01*
Y107876D01*
X149906Y107153D01*
X150460Y106599D01*
X151183Y106299D01*
X151966D01*
X152690Y106599D01*
X153244Y107153D01*
X153543Y107876D01*
Y108659D01*
X153244Y109383D01*
X152690Y109936D01*
X151966Y110236D01*
D02*
G37*
G36*
X146061D02*
X145278D01*
X144554Y109936D01*
X144000Y109383D01*
X143701Y108659D01*
Y107876D01*
X144000Y107153D01*
X144554Y106599D01*
X145278Y106299D01*
X146061D01*
X146784Y106599D01*
X147338Y107153D01*
X147638Y107876D01*
Y108659D01*
X147338Y109383D01*
X146784Y109936D01*
X146061Y110236D01*
D02*
G37*
G36*
X140155D02*
X139372D01*
X138649Y109936D01*
X138095Y109383D01*
X137795Y108659D01*
Y107876D01*
X138095Y107153D01*
X138649Y106599D01*
X139372Y106299D01*
X140155D01*
X140879Y106599D01*
X141433Y107153D01*
X141732Y107876D01*
Y108659D01*
X141433Y109383D01*
X140879Y109936D01*
X140155Y110236D01*
D02*
G37*
G36*
X169683Y104331D02*
X168900D01*
X168176Y104031D01*
X167622Y103477D01*
X167323Y102754D01*
Y101971D01*
X167622Y101247D01*
X168176Y100693D01*
X168900Y100394D01*
X169683D01*
X170406Y100693D01*
X170960Y101247D01*
X171260Y101971D01*
Y102754D01*
X170960Y103477D01*
X170406Y104031D01*
X169683Y104331D01*
D02*
G37*
G36*
X163777D02*
X162994D01*
X162271Y104031D01*
X161717Y103477D01*
X161417Y102754D01*
Y101971D01*
X161717Y101247D01*
X162271Y100693D01*
X162994Y100394D01*
X163777D01*
X164501Y100693D01*
X165055Y101247D01*
X165354Y101971D01*
Y102754D01*
X165055Y103477D01*
X164501Y104031D01*
X163777Y104331D01*
D02*
G37*
G36*
X157872D02*
X157089D01*
X156365Y104031D01*
X155812Y103477D01*
X155512Y102754D01*
Y101971D01*
X155812Y101247D01*
X156365Y100693D01*
X157089Y100394D01*
X157872D01*
X158595Y100693D01*
X159149Y101247D01*
X159449Y101971D01*
Y102754D01*
X159149Y103477D01*
X158595Y104031D01*
X157872Y104331D01*
D02*
G37*
G36*
X151966D02*
X151183D01*
X150460Y104031D01*
X149906Y103477D01*
X149606Y102754D01*
Y101971D01*
X149906Y101247D01*
X150460Y100693D01*
X151183Y100394D01*
X151966D01*
X152690Y100693D01*
X153244Y101247D01*
X153543Y101971D01*
Y102754D01*
X153244Y103477D01*
X152690Y104031D01*
X151966Y104331D01*
D02*
G37*
G36*
X146061D02*
X145278D01*
X144554Y104031D01*
X144000Y103477D01*
X143701Y102754D01*
Y101971D01*
X144000Y101247D01*
X144554Y100693D01*
X145278Y100394D01*
X146061D01*
X146784Y100693D01*
X147338Y101247D01*
X147638Y101971D01*
Y102754D01*
X147338Y103477D01*
X146784Y104031D01*
X146061Y104331D01*
D02*
G37*
G36*
X140155D02*
X139372D01*
X138649Y104031D01*
X138095Y103477D01*
X137795Y102754D01*
Y101971D01*
X138095Y101247D01*
X138649Y100693D01*
X139372Y100394D01*
X140155D01*
X140879Y100693D01*
X141433Y101247D01*
X141732Y101971D01*
Y102754D01*
X141433Y103477D01*
X140879Y104031D01*
X140155Y104331D01*
D02*
G37*
G36*
X177262Y80905D02*
X176479D01*
X175755Y80606D01*
X175201Y80052D01*
X174902Y79329D01*
Y78545D01*
X175201Y77822D01*
X175755Y77268D01*
X176479Y76968D01*
X177262D01*
X177985Y77268D01*
X178539Y77822D01*
X178839Y78545D01*
Y79329D01*
X178539Y80052D01*
X177985Y80606D01*
X177262Y80905D01*
D02*
G37*
G36*
X146061Y74803D02*
X145278D01*
X144554Y74503D01*
X144000Y73950D01*
X143701Y73226D01*
Y72443D01*
X144000Y71720D01*
X144554Y71166D01*
X145278Y70866D01*
X146061D01*
X146784Y71166D01*
X147338Y71720D01*
X147638Y72443D01*
Y73226D01*
X147338Y73950D01*
X146784Y74503D01*
X146061Y74803D01*
D02*
G37*
G36*
X140018Y74185D02*
X139235D01*
X138512Y73885D01*
X137958Y73332D01*
X137658Y72608D01*
Y71825D01*
X137958Y71101D01*
X138512Y70548D01*
X139235Y70248D01*
X140018D01*
X140742Y70548D01*
X141296Y71101D01*
X141595Y71825D01*
Y72608D01*
X141296Y73332D01*
X140742Y73885D01*
X140018Y74185D01*
D02*
G37*
G36*
X119585Y72835D02*
X118801D01*
X118078Y72535D01*
X117524Y71981D01*
X117224Y71258D01*
Y70475D01*
X117524Y69751D01*
X118078Y69197D01*
X118801Y68898D01*
X119585D01*
X120308Y69197D01*
X120781Y69670D01*
X120871Y69653D01*
X121424Y69099D01*
X122148Y68799D01*
X122931D01*
X123654Y69099D01*
X124208Y69653D01*
X124508Y70376D01*
Y71159D01*
X124208Y71883D01*
X123654Y72436D01*
X122931Y72736D01*
X122148D01*
X121424Y72436D01*
X120951Y71963D01*
X120862Y71981D01*
X120308Y72535D01*
X119585Y72835D01*
D02*
G37*
G36*
X181592Y69882D02*
X180809D01*
X180086Y69582D01*
X179532Y69029D01*
X179232Y68305D01*
Y67522D01*
X179532Y66798D01*
X180086Y66245D01*
X180809Y65945D01*
X181592D01*
X182316Y66245D01*
X182870Y66798D01*
X183169Y67522D01*
Y68305D01*
X182870Y69029D01*
X182316Y69582D01*
X181592Y69882D01*
D02*
G37*
G36*
X151966Y74803D02*
X151183D01*
X150460Y74503D01*
X149906Y73950D01*
X149606Y73226D01*
Y72443D01*
X149906Y71720D01*
X150460Y71166D01*
X150530Y71137D01*
Y70596D01*
X150460Y70566D01*
X149906Y70013D01*
X149606Y69289D01*
Y68506D01*
X149906Y67783D01*
X150460Y67229D01*
X150530Y67200D01*
Y66659D01*
X150460Y66629D01*
X149906Y66076D01*
X149606Y65352D01*
Y64569D01*
X149906Y63846D01*
X150460Y63292D01*
X151183Y62992D01*
X151966D01*
X152690Y63292D01*
X153244Y63846D01*
X153543Y64569D01*
Y65352D01*
X153244Y66076D01*
X152690Y66629D01*
X152620Y66659D01*
Y67200D01*
X152690Y67229D01*
X153244Y67783D01*
X153543Y68506D01*
Y69289D01*
X153244Y70013D01*
X152690Y70566D01*
X152620Y70596D01*
Y71137D01*
X152690Y71166D01*
X153244Y71720D01*
X153543Y72443D01*
Y73226D01*
X153244Y73950D01*
X152690Y74503D01*
X151966Y74803D01*
D02*
G37*
G36*
X157872D02*
X157089D01*
X156365Y74503D01*
X155812Y73950D01*
X155512Y73226D01*
Y72443D01*
X155812Y71720D01*
X156365Y71166D01*
X156436Y71137D01*
Y70596D01*
X156365Y70566D01*
X155812Y70013D01*
X155512Y69289D01*
Y68506D01*
X155812Y67783D01*
X156365Y67229D01*
X156436Y67200D01*
Y66659D01*
X156365Y66629D01*
X155812Y66076D01*
X155512Y65352D01*
Y64569D01*
X155812Y63846D01*
X156365Y63292D01*
X156436Y63263D01*
Y62722D01*
X156365Y62692D01*
X155812Y62139D01*
X155512Y61415D01*
Y60632D01*
X155812Y59909D01*
X156365Y59355D01*
X157089Y59055D01*
X157872D01*
X158595Y59355D01*
X159149Y59909D01*
X159449Y60632D01*
Y61415D01*
X159149Y62139D01*
X158595Y62692D01*
X158525Y62722D01*
Y63263D01*
X158595Y63292D01*
X159149Y63846D01*
X159449Y64569D01*
Y65352D01*
X159149Y66076D01*
X158595Y66629D01*
X158525Y66659D01*
Y67200D01*
X158595Y67229D01*
X159149Y67783D01*
X159449Y68506D01*
Y69289D01*
X159149Y70013D01*
X158595Y70566D01*
X158525Y70596D01*
Y71137D01*
X158595Y71166D01*
X159149Y71720D01*
X159449Y72443D01*
Y73226D01*
X159149Y73950D01*
X158595Y74503D01*
X157872Y74803D01*
D02*
G37*
G36*
X149211Y62500D02*
X148427D01*
X147704Y62200D01*
X147150Y61647D01*
X146850Y60923D01*
Y60140D01*
X147150Y59416D01*
X147704Y58863D01*
X148427Y58563D01*
X149211D01*
X149934Y58863D01*
X150488Y59416D01*
X150787Y60140D01*
Y60923D01*
X150488Y61647D01*
X149934Y62200D01*
X149211Y62500D01*
D02*
G37*
%LPD*%
D40*
X133524Y160197D02*
D03*
D71*
X72441Y161024D02*
D03*
X97933Y145472D02*
D03*
X83465Y153445D02*
D03*
X111221Y187205D02*
D03*
Y183366D02*
D03*
X128150Y191831D02*
D03*
X88681Y177067D02*
D03*
X172835Y147539D02*
D03*
X28543Y191929D02*
D03*
X24606Y194882D02*
D03*
Y191929D02*
D03*
X28543Y194882D02*
D03*
Y188976D02*
D03*
X24606D02*
D03*
X166437Y145596D02*
D03*
M02*
