G04*
G04 #@! TF.GenerationSoftware,Altium Limited,Altium Designer,21.1.0 (24)*
G04*
G04 Layer_Color=8388736*
%FSLAX25Y25*%
%MOIN*%
G70*
G04*
G04 #@! TF.SameCoordinates,8E11B689-D9C9-4360-AAA9-F91F00066FD3*
G04*
G04*
G04 #@! TF.FilePolarity,Negative*
G04*
G01*
G75*
%ADD19R,0.03556X0.04343*%
%ADD20R,0.01181X0.02362*%
%ADD21R,0.02362X0.01181*%
%ADD22R,0.13583X0.13583*%
%ADD23R,0.04343X0.03556*%
%ADD24R,0.02953X0.03150*%
G04:AMPARAMS|DCode=25|XSize=31.62mil|YSize=65.09mil|CornerRadius=6.01mil|HoleSize=0mil|Usage=FLASHONLY|Rotation=180.000|XOffset=0mil|YOffset=0mil|HoleType=Round|Shape=RoundedRectangle|*
%AMROUNDEDRECTD25*
21,1,0.03162,0.05307,0,0,180.0*
21,1,0.01961,0.06509,0,0,180.0*
1,1,0.01202,-0.00980,0.02653*
1,1,0.01202,0.00980,0.02653*
1,1,0.01202,0.00980,-0.02653*
1,1,0.01202,-0.00980,-0.02653*
%
%ADD25ROUNDEDRECTD25*%
%ADD26R,0.02008X0.01575*%
%ADD27R,0.03150X0.03543*%
%ADD28R,0.03950X0.04599*%
%ADD29R,0.06299X0.11811*%
%ADD30R,0.23622X0.23622*%
%ADD31R,0.05918X0.06902*%
%ADD32R,0.10827X0.24410*%
%ADD33R,0.04599X0.03950*%
%ADD34R,0.06312X0.04737*%
%ADD35R,0.03280X0.04068*%
%ADD36R,0.05000X0.11496*%
%ADD37O,0.01575X0.04724*%
%ADD38R,0.13320X0.04816*%
%ADD39C,0.27559*%
%ADD40C,0.07874*%
%ADD41R,0.06706X0.06706*%
%ADD42C,0.06706*%
%ADD43C,0.03458*%
%ADD44C,0.08005*%
%ADD45R,0.08005X0.08005*%
%ADD46C,0.07887*%
%ADD47C,0.11811*%
%ADD48C,0.03162*%
D19*
X116535Y191831D02*
D03*
X122441D02*
D03*
X82677Y137795D02*
D03*
X76772D02*
D03*
X155315Y176969D02*
D03*
X149409D02*
D03*
X182972Y91339D02*
D03*
X177067D02*
D03*
X143012Y53543D02*
D03*
X137106D02*
D03*
X17372Y170965D02*
D03*
X11467D02*
D03*
X120768Y171063D02*
D03*
X126673D02*
D03*
D20*
X111221Y173130D02*
D03*
X109252D02*
D03*
X107283D02*
D03*
X105315D02*
D03*
X103347D02*
D03*
X101378D02*
D03*
X99410D02*
D03*
X97441D02*
D03*
Y154626D02*
D03*
X99410D02*
D03*
X101378D02*
D03*
X103347D02*
D03*
X105315D02*
D03*
X107283D02*
D03*
X109252D02*
D03*
X111221D02*
D03*
D21*
X113583Y156988D02*
D03*
Y158957D02*
D03*
Y160925D02*
D03*
Y162894D02*
D03*
Y164862D02*
D03*
Y166831D02*
D03*
Y168799D02*
D03*
Y170768D02*
D03*
X95079D02*
D03*
Y168799D02*
D03*
Y166831D02*
D03*
Y164862D02*
D03*
Y162894D02*
D03*
Y160925D02*
D03*
Y158957D02*
D03*
Y156988D02*
D03*
D22*
X104331Y163878D02*
D03*
D23*
X83366D02*
D03*
Y157972D02*
D03*
X181398Y127953D02*
D03*
Y122047D02*
D03*
X168110Y81595D02*
D03*
Y87500D02*
D03*
X212402Y70472D02*
D03*
Y76378D02*
D03*
X248721D02*
D03*
Y70472D02*
D03*
X116596Y47638D02*
D03*
Y53543D02*
D03*
X181004Y192913D02*
D03*
Y198819D02*
D03*
X181299Y151673D02*
D03*
Y157579D02*
D03*
X230807Y79921D02*
D03*
Y85827D02*
D03*
X194882Y79921D02*
D03*
Y85827D02*
D03*
X195177Y137598D02*
D03*
Y131693D02*
D03*
X230709Y149803D02*
D03*
Y143898D02*
D03*
X37402Y183563D02*
D03*
Y177657D02*
D03*
X4724Y137303D02*
D03*
Y131398D02*
D03*
X27815Y114567D02*
D03*
Y108661D02*
D03*
X76772Y155315D02*
D03*
Y161221D02*
D03*
X95276Y109153D02*
D03*
Y115059D02*
D03*
X52717Y114567D02*
D03*
Y108661D02*
D03*
X77421Y114567D02*
D03*
Y108661D02*
D03*
X86221Y109153D02*
D03*
Y115059D02*
D03*
X44941Y115059D02*
D03*
Y109153D02*
D03*
X103051Y114567D02*
D03*
Y108661D02*
D03*
X35886Y115059D02*
D03*
Y109153D02*
D03*
X20039Y115059D02*
D03*
Y109153D02*
D03*
X10984Y115059D02*
D03*
Y109153D02*
D03*
X69646Y109153D02*
D03*
Y115059D02*
D03*
X60591Y109153D02*
D03*
Y115059D02*
D03*
D24*
X181299Y142913D02*
D03*
Y136614D02*
D03*
X181004Y178543D02*
D03*
Y184842D02*
D03*
X181004Y171850D02*
D03*
Y165551D02*
D03*
X103051Y93012D02*
D03*
Y99311D02*
D03*
X27815Y93012D02*
D03*
Y99311D02*
D03*
X52717Y93012D02*
D03*
Y99311D02*
D03*
X77421Y93012D02*
D03*
Y99311D02*
D03*
D25*
X160059Y155217D02*
D03*
X155059D02*
D03*
X150059D02*
D03*
X145059D02*
D03*
X160059Y133760D02*
D03*
X155059D02*
D03*
X150059D02*
D03*
X145059D02*
D03*
D26*
X62480Y97933D02*
D03*
X67559Y99901D02*
D03*
Y95964D02*
D03*
X93189Y95965D02*
D03*
Y99902D02*
D03*
X88110Y97933D02*
D03*
X42854Y95964D02*
D03*
Y99901D02*
D03*
X37776Y97933D02*
D03*
X17953Y95964D02*
D03*
Y99901D02*
D03*
X12874Y97933D02*
D03*
D27*
X152362Y170571D02*
D03*
X156102Y162697D02*
D03*
X148622D02*
D03*
D28*
X166831Y133366D02*
D03*
Y139665D02*
D03*
X106496Y184547D02*
D03*
Y178248D02*
D03*
X100098Y184547D02*
D03*
Y178248D02*
D03*
X93701Y184547D02*
D03*
Y178248D02*
D03*
X30758Y174311D02*
D03*
Y180610D02*
D03*
X12697Y163189D02*
D03*
Y156890D02*
D03*
D29*
X221457Y153642D02*
D03*
X203346D02*
D03*
X257776Y76279D02*
D03*
X239665D02*
D03*
X257776Y153642D02*
D03*
X239665D02*
D03*
X203346Y76279D02*
D03*
X221457D02*
D03*
D30*
X212402Y128051D02*
D03*
X248721Y101870D02*
D03*
X248721Y128051D02*
D03*
X212402Y101870D02*
D03*
D31*
X68996Y170276D02*
D03*
X51279D02*
D03*
X68996Y138976D02*
D03*
X51279D02*
D03*
D32*
X235433Y22539D02*
D03*
X202559D02*
D03*
D33*
X123721Y53347D02*
D03*
X130020D02*
D03*
X116535Y59646D02*
D03*
X110236D02*
D03*
X143898Y60433D02*
D03*
X137598D02*
D03*
X12165Y123228D02*
D03*
X18465D02*
D03*
X18602Y131890D02*
D03*
X12303D02*
D03*
X37067Y123228D02*
D03*
X43366D02*
D03*
X11220Y184055D02*
D03*
X17520D02*
D03*
Y177854D02*
D03*
X11220D02*
D03*
X116437Y184646D02*
D03*
X122736D02*
D03*
Y177854D02*
D03*
X116437D02*
D03*
X87402Y123228D02*
D03*
X93701D02*
D03*
X61772Y123228D02*
D03*
X68071D02*
D03*
X97441Y150098D02*
D03*
X91142D02*
D03*
D34*
X176870Y75591D02*
D03*
X168209Y71850D02*
D03*
X176870Y68110D02*
D03*
D35*
X174350Y83957D02*
D03*
X183130D02*
D03*
D36*
X17776Y38937D02*
D03*
X29587D02*
D03*
X41398D02*
D03*
X53209D02*
D03*
X65020D02*
D03*
D37*
X42520Y139862D02*
D03*
X39961D02*
D03*
X37402D02*
D03*
X34843D02*
D03*
X32283D02*
D03*
X29724D02*
D03*
X27165D02*
D03*
X24606D02*
D03*
X22047D02*
D03*
X19488D02*
D03*
Y162303D02*
D03*
X22047D02*
D03*
X24606D02*
D03*
X27165D02*
D03*
X29724D02*
D03*
X32283D02*
D03*
X34843D02*
D03*
X37402D02*
D03*
X39961D02*
D03*
X42520D02*
D03*
D38*
X15315Y56791D02*
D03*
Y81791D02*
D03*
X40217Y56791D02*
D03*
Y81791D02*
D03*
X64921Y56791D02*
D03*
Y81791D02*
D03*
X90551Y56791D02*
D03*
Y81791D02*
D03*
D39*
X70472Y188976D02*
D03*
X100394Y19685D02*
D03*
X299213D02*
D03*
D40*
X133524Y140197D02*
D03*
Y150197D02*
D03*
Y160197D02*
D03*
X123524Y140197D02*
D03*
Y150197D02*
D03*
Y160197D02*
D03*
D41*
X48720Y194685D02*
D03*
D42*
X38721D02*
D03*
D43*
X168110Y186476D02*
D03*
X132677D02*
D03*
D44*
X144488Y194193D02*
D03*
D45*
X156299D02*
D03*
D46*
X192342Y167165D02*
D03*
Y177165D02*
D03*
Y187165D02*
D03*
Y197165D02*
D03*
X222342Y167165D02*
D03*
Y177165D02*
D03*
Y187165D02*
D03*
Y197165D02*
D03*
X273150Y167323D02*
D03*
Y177323D02*
D03*
Y187323D02*
D03*
Y197323D02*
D03*
X303150Y167323D02*
D03*
Y177323D02*
D03*
Y187323D02*
D03*
Y197323D02*
D03*
X151102Y37874D02*
D03*
X161102D02*
D03*
X171102D02*
D03*
X181102D02*
D03*
X151102Y7874D02*
D03*
X161102D02*
D03*
X171102D02*
D03*
X181102D02*
D03*
X273150Y49213D02*
D03*
Y59213D02*
D03*
Y69213D02*
D03*
Y79213D02*
D03*
X303150Y49213D02*
D03*
Y59213D02*
D03*
Y69213D02*
D03*
Y79213D02*
D03*
D47*
X73484Y17362D02*
D03*
X8799D02*
D03*
D48*
X37225Y165690D02*
D03*
X94488Y200396D02*
D03*
X110236D02*
D03*
X102362D02*
D03*
X88583Y183071D02*
D03*
Y188976D02*
D03*
Y194882D02*
D03*
X132283Y128347D02*
D03*
X126378D02*
D03*
X144095D02*
D03*
X138189D02*
D03*
X139764Y114173D02*
D03*
Y108268D02*
D03*
Y102362D02*
D03*
X145669Y114173D02*
D03*
Y108268D02*
D03*
Y102362D02*
D03*
X151575Y114173D02*
D03*
Y108268D02*
D03*
Y102362D02*
D03*
X157480Y114173D02*
D03*
Y108268D02*
D03*
Y102362D02*
D03*
X163386D02*
D03*
Y108268D02*
D03*
Y114173D02*
D03*
X169291Y102362D02*
D03*
Y108268D02*
D03*
Y114173D02*
D03*
X111713Y191929D02*
D03*
X116831Y153445D02*
D03*
X72441Y161024D02*
D03*
X97933Y145472D02*
D03*
X83465Y153445D02*
D03*
X91240Y156595D02*
D03*
X102362Y161417D02*
D03*
X106299D02*
D03*
Y165354D02*
D03*
X102362D02*
D03*
X116240Y172835D02*
D03*
X111221Y187205D02*
D03*
Y183366D02*
D03*
X128150Y191831D02*
D03*
X88681Y177067D02*
D03*
X132382Y167618D02*
D03*
X116929Y164567D02*
D03*
X110728Y179429D02*
D03*
X150000Y128347D02*
D03*
X175492Y123524D02*
D03*
X172835Y147539D02*
D03*
X163681Y154035D02*
D03*
X112205Y55118D02*
D03*
X139627Y72216D02*
D03*
X157480Y61024D02*
D03*
X151575Y64961D02*
D03*
X157480D02*
D03*
Y68898D02*
D03*
X151575D02*
D03*
X157480Y72835D02*
D03*
X151575D02*
D03*
X145669D02*
D03*
X33465Y151575D02*
D03*
X27559D02*
D03*
X21654D02*
D03*
X9843Y147638D02*
D03*
X3937Y157480D02*
D03*
Y151575D02*
D03*
X29503Y200812D02*
D03*
X25566D02*
D03*
X28543Y191929D02*
D03*
X24606Y194882D02*
D03*
X80149Y56859D02*
D03*
X66004Y91535D02*
D03*
X24606Y191929D02*
D03*
X28543Y194882D02*
D03*
Y188976D02*
D03*
X24606D02*
D03*
X166437Y145596D02*
D03*
X148917Y171358D02*
D03*
X155807D02*
D03*
X143602Y160827D02*
D03*
X174114Y201476D02*
D03*
X215846Y188976D02*
D03*
X211910Y171260D02*
D03*
X215846D02*
D03*
X204035D02*
D03*
X211910Y194882D02*
D03*
X200098D02*
D03*
X207972Y177165D02*
D03*
Y188976D02*
D03*
X200098D02*
D03*
X204035Y194882D02*
D03*
X211910Y183071D02*
D03*
X215846D02*
D03*
X200098D02*
D03*
X207972Y171260D02*
D03*
X204035Y177165D02*
D03*
X211910Y188976D02*
D03*
X207972Y194882D02*
D03*
X215846D02*
D03*
X211910Y177165D02*
D03*
X204035Y188976D02*
D03*
X207972Y183071D02*
D03*
X215846Y177165D02*
D03*
X200098D02*
D03*
Y171260D02*
D03*
X204035Y183071D02*
D03*
X216535Y135827D02*
D03*
X212469Y124024D02*
D03*
X204724Y135827D02*
D03*
Y124016D02*
D03*
X208661D02*
D03*
X216535D02*
D03*
X208661Y135827D02*
D03*
X220472Y124016D02*
D03*
X212469Y135836D02*
D03*
X220472Y135827D02*
D03*
X177165Y17717D02*
D03*
X157480D02*
D03*
X173228D02*
D03*
X153543D02*
D03*
X161417D02*
D03*
X181102D02*
D03*
X165354D02*
D03*
X169291D02*
D03*
X177165Y23622D02*
D03*
X157480D02*
D03*
X165354D02*
D03*
X173228D02*
D03*
X161417D02*
D03*
X169291D02*
D03*
X181102D02*
D03*
X153543D02*
D03*
X181102Y29528D02*
D03*
X173228D02*
D03*
X177165D02*
D03*
X153543D02*
D03*
X157480D02*
D03*
X161417D02*
D03*
X169291D02*
D03*
X165354D02*
D03*
X69193Y138681D02*
D03*
X63189Y170965D02*
D03*
X63779Y138779D02*
D03*
X69193Y169980D02*
D03*
X251969Y112205D02*
D03*
X255906Y100394D02*
D03*
X248031Y112205D02*
D03*
X251969Y100394D02*
D03*
X248031D02*
D03*
X244094D02*
D03*
X240158Y112205D02*
D03*
X244094D02*
D03*
X255906D02*
D03*
X240158Y100394D02*
D03*
X83169Y105118D02*
D03*
X57677D02*
D03*
X32874D02*
D03*
X24409Y58268D02*
D03*
X74016Y58169D02*
D03*
X8760Y177854D02*
D03*
X148819Y60532D02*
D03*
X122539Y70768D02*
D03*
X92126Y124902D02*
D03*
X240158Y165354D02*
D03*
Y171260D02*
D03*
Y177165D02*
D03*
Y188976D02*
D03*
Y194882D02*
D03*
Y200787D02*
D03*
X244094D02*
D03*
Y194882D02*
D03*
Y188976D02*
D03*
Y183071D02*
D03*
Y177165D02*
D03*
Y171260D02*
D03*
Y165354D02*
D03*
X190945Y82677D02*
D03*
X255906Y124016D02*
D03*
Y135827D02*
D03*
X251969Y124016D02*
D03*
Y135827D02*
D03*
X248031Y124016D02*
D03*
Y135827D02*
D03*
X244094Y124016D02*
D03*
Y135827D02*
D03*
X240158Y124016D02*
D03*
Y135827D02*
D03*
X234252Y100394D02*
D03*
Y112205D02*
D03*
Y124016D02*
D03*
Y135827D02*
D03*
X230315Y100394D02*
D03*
Y112205D02*
D03*
Y124016D02*
D03*
Y135827D02*
D03*
X226378Y100394D02*
D03*
Y112205D02*
D03*
Y124016D02*
D03*
Y135827D02*
D03*
X220472Y100394D02*
D03*
Y112205D02*
D03*
X216535Y100394D02*
D03*
Y112205D02*
D03*
X212469Y100402D02*
D03*
Y112214D02*
D03*
X208661Y100394D02*
D03*
Y112205D02*
D03*
X204724Y100394D02*
D03*
Y112205D02*
D03*
X190945Y7874D02*
D03*
Y15748D02*
D03*
Y23622D02*
D03*
Y27559D02*
D03*
X194882Y23622D02*
D03*
Y19685D02*
D03*
Y15748D02*
D03*
X190945Y19685D02*
D03*
Y11811D02*
D03*
Y31496D02*
D03*
X194882Y27559D02*
D03*
Y31496D02*
D03*
X190945Y35433D02*
D03*
X194882Y11811D02*
D03*
Y7874D02*
D03*
Y35433D02*
D03*
X255906Y11811D02*
D03*
X251969D02*
D03*
X244094D02*
D03*
X248031D02*
D03*
X255906Y17717D02*
D03*
X251969D02*
D03*
X244094D02*
D03*
X248031D02*
D03*
X224410Y53150D02*
D03*
X232283D02*
D03*
X240158D02*
D03*
X248031D02*
D03*
X255906D02*
D03*
X224410Y57087D02*
D03*
X232283D02*
D03*
X240158D02*
D03*
X248031D02*
D03*
X255906D02*
D03*
X224410Y61024D02*
D03*
X232283D02*
D03*
X240158D02*
D03*
X248031D02*
D03*
X255906D02*
D03*
X255834Y64894D02*
D03*
X247960D02*
D03*
X240086D02*
D03*
X232212D02*
D03*
X224338D02*
D03*
X244094Y29528D02*
D03*
Y23622D02*
D03*
X248031D02*
D03*
Y29528D02*
D03*
X251969D02*
D03*
Y23622D02*
D03*
X255906D02*
D03*
Y29528D02*
D03*
X176870Y78937D02*
D03*
X11891Y154429D02*
D03*
X106831Y87599D02*
D03*
X176181Y175886D02*
D03*
X3937Y192913D02*
D03*
X7874D02*
D03*
Y196850D02*
D03*
X19685Y192913D02*
D03*
X15748D02*
D03*
X11811D02*
D03*
Y196850D02*
D03*
X15748D02*
D03*
X19685D02*
D03*
Y200787D02*
D03*
X15748D02*
D03*
X11811D02*
D03*
X30709Y182973D02*
D03*
X181201Y67913D02*
D03*
X88976Y136909D02*
D03*
X175098Y170472D02*
D03*
X40738Y166154D02*
D03*
X45276Y165354D02*
D03*
X119193Y70866D02*
D03*
X48524Y58366D02*
D03*
X31594Y87598D02*
D03*
X56496Y87599D02*
D03*
X81201D02*
D03*
X16398Y91535D02*
D03*
X41299Y91535D02*
D03*
X91634Y91536D02*
D03*
X7795Y105905D02*
D03*
X8760Y184252D02*
D03*
X17284Y106201D02*
D03*
X30866Y114469D02*
D03*
X37303Y186270D02*
D03*
X42185Y106201D02*
D03*
X55768Y114469D02*
D03*
X66890Y106201D02*
D03*
X80472Y114469D02*
D03*
X92520Y106201D02*
D03*
X106102Y114469D02*
D03*
M02*
