G04*
G04 #@! TF.GenerationSoftware,Altium Limited,Altium Designer,21.1.0 (24)*
G04*
G04 Layer_Physical_Order=1*
G04 Layer_Color=255*
%FSLAX25Y25*%
%MOIN*%
G70*
G04*
G04 #@! TF.SameCoordinates,8E11B689-D9C9-4360-AAA9-F91F00066FD3*
G04*
G04*
G04 #@! TF.FilePolarity,Positive*
G04*
G01*
G75*
%ADD10C,0.00984*%
%ADD13C,0.00787*%
%ADD20R,0.01181X0.02362*%
%ADD21R,0.02362X0.01181*%
%ADD22R,0.13583X0.13583*%
%ADD24R,0.02953X0.03150*%
%ADD26R,0.02008X0.01575*%
%ADD27R,0.03150X0.03543*%
%ADD29R,0.06299X0.11811*%
%ADD30R,0.23622X0.23622*%
%ADD32R,0.10827X0.24410*%
%ADD36R,0.05000X0.11496*%
%ADD37O,0.01575X0.04724*%
%ADD39C,0.27559*%
%ADD40C,0.07874*%
%ADD47C,0.11811*%
%ADD49R,0.02756X0.03543*%
%ADD50R,0.03543X0.02756*%
G04:AMPARAMS|DCode=51|XSize=23.62mil|YSize=57.09mil|CornerRadius=2.01mil|HoleSize=0mil|Usage=FLASHONLY|Rotation=180.000|XOffset=0mil|YOffset=0mil|HoleType=Round|Shape=RoundedRectangle|*
%AMROUNDEDRECTD51*
21,1,0.02362,0.05307,0,0,180.0*
21,1,0.01961,0.05709,0,0,180.0*
1,1,0.00402,-0.00980,0.02653*
1,1,0.00402,0.00980,0.02653*
1,1,0.00402,0.00980,-0.02653*
1,1,0.00402,-0.00980,-0.02653*
%
%ADD51ROUNDEDRECTD51*%
%ADD52R,0.03150X0.03799*%
%ADD53R,0.05118X0.06102*%
%ADD54R,0.03799X0.03150*%
%ADD55R,0.05512X0.03937*%
%ADD56R,0.02480X0.03268*%
%ADD57R,0.12520X0.04016*%
%ADD58C,0.01500*%
%ADD59C,0.01000*%
%ADD60C,0.03937*%
%ADD61C,0.01200*%
%ADD62C,0.02000*%
%ADD63C,0.03000*%
%ADD64R,0.07972X0.10039*%
%ADD65R,0.05906X0.05906*%
%ADD66C,0.05906*%
%ADD67C,0.02657*%
%ADD68C,0.07205*%
%ADD69R,0.07205X0.07205*%
%ADD70C,0.07087*%
%ADD71C,0.02362*%
G36*
X178232Y201150D02*
Y199409D01*
X181004D01*
Y198228D01*
X178232D01*
Y196959D01*
X178232Y196441D01*
X178445Y194561D01*
Y190748D01*
X179691D01*
Y187204D01*
X178740D01*
Y182874D01*
X178740Y182480D01*
Y180905D01*
X178740Y180511D01*
Y178895D01*
X178177Y178372D01*
X176953Y177697D01*
X176573Y177854D01*
X175789D01*
X175066Y177555D01*
X174512Y177001D01*
X174213Y176277D01*
Y175494D01*
X174512Y174771D01*
X174850Y174433D01*
X174873Y174398D01*
X174783Y173343D01*
X174458Y172338D01*
X173983Y172141D01*
X173430Y171588D01*
X173130Y170864D01*
Y170081D01*
X173430Y169357D01*
X173983Y168804D01*
X174707Y168504D01*
X175490D01*
X176214Y168804D01*
X176288Y168878D01*
X178308Y168331D01*
X178311Y168329D01*
X178740Y167520D01*
Y163189D01*
X179987D01*
Y159744D01*
X178740D01*
Y155932D01*
X178527Y154051D01*
X178528Y153533D01*
Y152264D01*
X181299D01*
Y151673D01*
X181890D01*
Y149295D01*
X183071D01*
X184071Y149295D01*
X185039Y147728D01*
Y146464D01*
X183563Y145276D01*
X183071Y145276D01*
X179035D01*
Y145276D01*
X177067Y144966D01*
X174803Y147230D01*
Y147931D01*
X174504Y148654D01*
X173950Y149208D01*
X173226Y149508D01*
X172443D01*
X171720Y149208D01*
X171166Y148654D01*
X170866Y147931D01*
Y147148D01*
X171166Y146424D01*
X171720Y145871D01*
X172443Y145571D01*
X172750D01*
X176336Y141985D01*
X176761Y141701D01*
X177264Y141601D01*
X177986D01*
X179035Y140551D01*
Y138976D01*
X179035Y138583D01*
Y134252D01*
X179781D01*
Y130118D01*
X178839D01*
Y126306D01*
X178626Y124425D01*
X178626Y123907D01*
Y122638D01*
X181398D01*
Y122047D01*
X181988D01*
Y119669D01*
X183071D01*
X184169Y119669D01*
X185039Y118061D01*
Y103103D01*
X176586Y94650D01*
X176335Y94273D01*
X175959Y94022D01*
X175834Y93898D01*
X174902D01*
Y88997D01*
X171586D01*
X170400Y90183D01*
X169891Y90523D01*
X169291Y90642D01*
X168110D01*
X167510Y90523D01*
X167002Y90183D01*
X166662Y89675D01*
X166660Y89665D01*
X165551D01*
Y85335D01*
X165551Y85335D01*
Y83760D01*
X165551D01*
X165551Y83366D01*
Y79429D01*
X166543D01*
Y74606D01*
X164665D01*
Y69095D01*
X171146D01*
X171752Y69095D01*
X173114Y67690D01*
Y65142D01*
X176279D01*
Y68110D01*
X176870D01*
Y68701D01*
X180626D01*
Y70954D01*
X180626Y71079D01*
X180413Y72959D01*
Y78347D01*
X178972D01*
X178839Y78545D01*
Y79329D01*
X178539Y80052D01*
X177985Y80606D01*
X177965Y80614D01*
X177174Y81073D01*
X176392Y82567D01*
X176378Y82832D01*
Y85862D01*
X180245D01*
X181102Y84026D01*
Y81535D01*
X185039D01*
Y62992D01*
X176611Y54564D01*
X146597D01*
X145904Y55315D01*
X145602Y55926D01*
X146550Y57858D01*
X146797D01*
Y59842D01*
X143898D01*
Y60433D01*
X143307D01*
Y63008D01*
X142166D01*
X140998Y63008D01*
X139118Y62795D01*
X136768D01*
X133834Y65729D01*
X133596Y66086D01*
X133170Y66370D01*
X132667Y66470D01*
X117670D01*
X114600Y69540D01*
Y115748D01*
X114500Y116250D01*
X114216Y116676D01*
X110236Y120656D01*
Y122047D01*
X106299Y125984D01*
X104908D01*
X100042Y130849D01*
X99616Y131134D01*
X99114Y131234D01*
X98181D01*
X95737Y133679D01*
X95311Y133963D01*
X94809Y134063D01*
X91698D01*
X91140Y134981D01*
X90743Y136031D01*
X90945Y136518D01*
Y137301D01*
X92200Y139042D01*
X101181D01*
X101683Y139142D01*
X102109Y139426D01*
X103732Y141049D01*
X105857Y141356D01*
X106270Y141295D01*
X123782Y123782D01*
X124206Y123499D01*
X124705Y123400D01*
X156890D01*
X157389Y123499D01*
X157812Y123782D01*
X160982Y126952D01*
X161264Y127375D01*
X161364Y127874D01*
Y130163D01*
X161425Y130175D01*
X161752Y130394D01*
X161970Y130721D01*
X162047Y131106D01*
Y135001D01*
X164003Y136443D01*
X164267Y136359D01*
X164256Y136266D01*
X164256Y135098D01*
Y133957D01*
X166831D01*
X169405D01*
Y135098D01*
X169405Y136266D01*
X169193Y138146D01*
Y142352D01*
X168223D01*
X167946Y144321D01*
X168106Y144481D01*
X168405Y145204D01*
Y145987D01*
X168106Y146711D01*
X167552Y147265D01*
X166829Y147564D01*
X166045D01*
X165322Y147265D01*
X164768Y146711D01*
X164469Y145987D01*
Y145204D01*
X164768Y144481D01*
X164928Y144321D01*
X164651Y142352D01*
X164469D01*
Y140978D01*
X159291D01*
X158789Y140878D01*
X158363Y140594D01*
X155191Y137421D01*
X154079D01*
X153776Y137361D01*
X153313Y137340D01*
X153313Y137340D01*
X153313Y137340D01*
X152602Y137333D01*
X151508Y137545D01*
X151444Y137557D01*
X151039Y137638D01*
X150650D01*
Y133760D01*
Y129882D01*
X151039D01*
X151444Y129963D01*
X151508Y129975D01*
X152602Y130186D01*
X153313Y130179D01*
X153776Y130159D01*
X154079Y130099D01*
X156039D01*
X156425Y130175D01*
X156616Y130236D01*
X157519Y129794D01*
X157929Y127589D01*
X156349Y126009D01*
X125245D01*
X120768Y130487D01*
X121583Y132455D01*
X143071D01*
Y131106D01*
X143148Y130721D01*
X143366Y130394D01*
X143693Y130175D01*
X144079Y130099D01*
X146039D01*
X146343Y130159D01*
X146805Y130179D01*
X147516Y130186D01*
X148610Y129975D01*
X148674Y129963D01*
X149079Y129882D01*
X149469D01*
Y133760D01*
Y137638D01*
X149232D01*
X149079Y137638D01*
X148487Y137536D01*
X147822Y137460D01*
X146861Y137357D01*
X146039Y137421D01*
X144079Y137421D01*
X143693Y137344D01*
X143366Y137126D01*
X143148Y136799D01*
X143071Y136413D01*
Y135064D01*
X137856D01*
X137041Y137033D01*
X137304Y137296D01*
X137926Y138373D01*
X138248Y139575D01*
Y140819D01*
X137926Y142020D01*
X137304Y143098D01*
X136425Y143977D01*
X136493Y146211D01*
X136555Y146246D01*
X137474Y147166D01*
X138124Y148291D01*
X138216Y148635D01*
X140320Y149307D01*
X140329Y149306D01*
X141834Y147801D01*
X141834Y147801D01*
X142225Y147540D01*
X142686Y147449D01*
X142686Y147449D01*
X155169D01*
X155169Y147449D01*
X155630Y147540D01*
X156020Y147801D01*
X159774Y151555D01*
X161039D01*
X161425Y151632D01*
X161752Y151850D01*
X162233Y152155D01*
X163290Y152067D01*
X164073D01*
X164796Y152367D01*
X165350Y152920D01*
X165650Y153644D01*
Y154427D01*
X165350Y155150D01*
X164796Y155704D01*
X164073Y156004D01*
X163526D01*
X163391Y156139D01*
X162967Y156422D01*
X162468Y156521D01*
X162047D01*
Y157870D01*
X161970Y158256D01*
X161752Y158582D01*
X161425Y158801D01*
X161039Y158878D01*
X159911D01*
X158749Y159890D01*
X158465Y160763D01*
Y163411D01*
X159584Y164530D01*
X159867Y164953D01*
X159966Y165453D01*
Y173228D01*
X159867Y173728D01*
X159584Y174151D01*
X157480Y176254D01*
Y179528D01*
X154659D01*
Y184426D01*
X154560Y184925D01*
X154277Y185349D01*
X152690Y186935D01*
Y189803D01*
X160689D01*
Y198583D01*
X151909D01*
Y195615D01*
X151688Y195402D01*
X150014Y194614D01*
X148711Y195393D01*
X148579Y195887D01*
X148001Y196888D01*
X147184Y197706D01*
X146183Y198284D01*
X145066Y198583D01*
X143910D01*
X142794Y198284D01*
X141793Y197706D01*
X140975Y196888D01*
X140398Y195887D01*
X140098Y194771D01*
Y193615D01*
X140398Y192499D01*
X140975Y191498D01*
X141793Y190680D01*
X142794Y190102D01*
X143910Y189803D01*
X145066D01*
X146183Y190102D01*
X148097Y188935D01*
Y185573D01*
X148196Y185074D01*
X148479Y184650D01*
X150066Y183064D01*
Y179528D01*
X147244D01*
Y177587D01*
X147219Y177461D01*
X147244Y177335D01*
Y176254D01*
X145141Y174151D01*
X144858Y173728D01*
X144758Y173228D01*
Y165453D01*
X144858Y164953D01*
X145141Y164530D01*
X146260Y163411D01*
Y160993D01*
X146152Y160065D01*
X144723Y159094D01*
X144079D01*
X143610Y159001D01*
X143330Y158814D01*
X142699Y158950D01*
X141362Y159508D01*
Y162894D01*
X141362Y162894D01*
X141270Y163355D01*
X141009Y163745D01*
X141009Y163745D01*
X138745Y166009D01*
X138355Y166270D01*
X137894Y166362D01*
X137894Y166362D01*
X136123D01*
X134350Y167227D01*
Y168010D01*
X134051Y168733D01*
X133497Y169287D01*
X132773Y169587D01*
X131990D01*
X131267Y169287D01*
X131020Y169040D01*
X129570Y169359D01*
X129051Y169643D01*
Y170472D01*
X126673D01*
Y171653D01*
X129051D01*
Y173835D01*
X126900D01*
X125636Y175279D01*
X125636Y175803D01*
Y177264D01*
X122736D01*
Y178445D01*
X125636D01*
Y180102D01*
X125636Y180429D01*
Y182071D01*
X125636Y182398D01*
Y184055D01*
X122736D01*
Y185236D01*
X125636D01*
Y187221D01*
X124931D01*
X123879Y189189D01*
X123934Y189272D01*
X124606D01*
Y190518D01*
X126678D01*
X127034Y190162D01*
X127758Y189862D01*
X128181D01*
X128969Y188860D01*
X129314Y188052D01*
X129229Y187905D01*
X128977Y186963D01*
Y185989D01*
X129229Y185048D01*
X129716Y184204D01*
X130405Y183516D01*
X131249Y183028D01*
X132190Y182776D01*
X133164D01*
X134105Y183028D01*
X134949Y183516D01*
X135638Y184204D01*
X136125Y185048D01*
X136377Y185989D01*
Y186963D01*
X136125Y187905D01*
X135638Y188748D01*
X134949Y189437D01*
X134105Y189924D01*
X133164Y190176D01*
X132190D01*
X131668Y190036D01*
X130439Y191009D01*
X130118Y191439D01*
Y192222D01*
X129818Y192946D01*
X129265Y193500D01*
X128541Y193799D01*
X127758D01*
X127034Y193500D01*
X126678Y193143D01*
X124606D01*
Y194390D01*
X120669D01*
X120276Y194390D01*
Y194390D01*
X118701D01*
Y194390D01*
X114370D01*
X114370Y194390D01*
X112402Y193774D01*
X112104Y193898D01*
X111321D01*
X110598Y193598D01*
X110044Y193044D01*
X109744Y192321D01*
Y191538D01*
X110044Y190814D01*
X110094Y189220D01*
X109759Y188527D01*
X109552Y188320D01*
X108036Y187496D01*
X107433Y187447D01*
X107087D01*
Y184547D01*
X105905D01*
Y187447D01*
X104642D01*
X102673Y187447D01*
X101953Y187447D01*
X100689D01*
Y184547D01*
X99508D01*
Y187447D01*
X98244D01*
X96276Y187447D01*
X95555Y187447D01*
X94291D01*
Y184547D01*
X93701D01*
Y183957D01*
X91126D01*
Y182816D01*
X91126Y181648D01*
X91317Y179960D01*
X90768Y179518D01*
X89370Y178912D01*
X89073Y179035D01*
X88289D01*
X87566Y178736D01*
X87012Y178182D01*
X86713Y177459D01*
Y176675D01*
X87012Y175952D01*
X87566Y175398D01*
X88289Y175098D01*
X89073D01*
X89490Y175271D01*
X91339Y175561D01*
X91339Y175561D01*
X91339Y175561D01*
X94286D01*
X94776Y175434D01*
X95487Y173214D01*
X94804Y172146D01*
X93110D01*
Y167421D01*
Y163484D01*
Y158579D01*
X92898D01*
Y157579D01*
X93110D01*
Y157579D01*
X95079D01*
Y156398D01*
X92898D01*
Y155398D01*
X94992D01*
X95498Y153429D01*
X94095Y152657D01*
X94041Y152673D01*
Y152673D01*
X91732D01*
Y150098D01*
X90551D01*
Y152673D01*
X88616D01*
Y160335D01*
X88516Y160837D01*
X88231Y161263D01*
X85925Y163569D01*
Y166043D01*
X83057D01*
X82818Y166282D01*
X82392Y166567D01*
X81890Y166667D01*
X72342D01*
Y174114D01*
X73933Y174561D01*
X76146Y175280D01*
X78219Y176336D01*
X80101Y177703D01*
X81746Y179348D01*
X83113Y181230D01*
X84169Y183303D01*
X84888Y185515D01*
X85252Y187813D01*
Y188386D01*
X55693D01*
Y187813D01*
X56057Y185515D01*
X56776Y183303D01*
X57832Y181230D01*
X59199Y179348D01*
X60844Y177703D01*
X62726Y176336D01*
X64311Y175528D01*
X64397Y175437D01*
X64274Y174752D01*
X63581Y172933D01*
X62797D01*
X62074Y172633D01*
X61710Y172269D01*
X54626D01*
Y174114D01*
X47933D01*
Y171019D01*
X47420Y170555D01*
X45965Y169749D01*
X45926Y169757D01*
X37340D01*
X36518Y171301D01*
X36465Y171666D01*
X38330Y173530D01*
X38614Y173956D01*
X38714Y174459D01*
Y175492D01*
X39961D01*
Y177966D01*
X49649Y187654D01*
X49933Y188080D01*
X50033Y188583D01*
Y190945D01*
X52461D01*
Y198425D01*
X44980D01*
Y190945D01*
X47046D01*
X47258Y188976D01*
X41779Y183498D01*
X39961Y184251D01*
Y185728D01*
X39372D01*
X39272Y185878D01*
Y186661D01*
X38972Y187385D01*
X38418Y187938D01*
X37695Y188238D01*
X36912D01*
X36188Y187938D01*
X35634Y187385D01*
X35335Y186661D01*
Y185878D01*
X35235Y185728D01*
X34843D01*
Y184617D01*
X33333Y183510D01*
X32874Y183510D01*
X31348D01*
Y180610D01*
X30167D01*
Y183510D01*
X29393D01*
X28523Y184457D01*
X28120Y185452D01*
X28466Y186205D01*
X30610D01*
X30918Y186266D01*
X31178Y186440D01*
X31352Y186701D01*
X31413Y187008D01*
Y197047D01*
X31352Y197354D01*
X31178Y197615D01*
X30918Y197789D01*
X30610Y197850D01*
X22638D01*
X22456Y197999D01*
Y203119D01*
X24425Y203119D01*
X61444D01*
X62084Y201150D01*
X60844Y200250D01*
X59199Y198605D01*
X57832Y196722D01*
X56776Y194650D01*
X56057Y192437D01*
X55693Y190140D01*
Y189567D01*
X85252D01*
Y190140D01*
X84888Y192437D01*
X84169Y194650D01*
X83113Y196722D01*
X81746Y198605D01*
X80101Y200250D01*
X78861Y201150D01*
X79501Y203119D01*
X178120Y203119D01*
X178232Y201150D01*
D02*
G37*
G36*
X11811Y203119D02*
X21654D01*
X21654Y188875D01*
X1606Y188875D01*
Y192913D01*
X1606Y192913D01*
Y193582D01*
X1780Y194909D01*
X2127Y196201D01*
X2638Y197437D01*
X3307Y198595D01*
X4122Y199657D01*
X5068Y200603D01*
X6129Y201417D01*
X7288Y202086D01*
X8524Y202598D01*
X9816Y202944D01*
X11142Y203119D01*
X11811D01*
X11811Y203119D01*
D02*
G37*
G36*
X62074Y169296D02*
X62797Y168996D01*
X64092Y167390D01*
X64160Y167177D01*
X64041Y166667D01*
X54626D01*
Y169660D01*
X61710D01*
X62074Y169296D01*
D02*
G37*
G36*
X149787Y170445D02*
Y167799D01*
X151772D01*
Y170571D01*
X152953D01*
Y167799D01*
X154937D01*
Y170445D01*
X156905Y171497D01*
X157357Y171195D01*
Y165993D01*
X156620Y165256D01*
X153740D01*
Y163971D01*
X152362Y163174D01*
X150984Y163971D01*
Y165256D01*
X148105D01*
X147368Y165993D01*
Y171196D01*
X147819Y171497D01*
X149787Y170445D01*
D02*
G37*
G36*
X309082Y202944D02*
X310374Y202598D01*
X311610Y202086D01*
X312769Y201417D01*
X313830Y200603D01*
X314776Y199657D01*
X315590Y198595D01*
X316259Y197437D01*
X316771Y196201D01*
X317117Y194909D01*
X317292Y193582D01*
Y192913D01*
Y161417D01*
X262795Y161417D01*
Y203119D01*
X307087D01*
X307087Y203119D01*
X307755D01*
X309082Y202944D01*
D02*
G37*
G36*
X48513Y164142D02*
X49016Y164042D01*
X69891D01*
X70772Y162139D01*
X70472Y161415D01*
Y160632D01*
X70772Y159908D01*
X71326Y159355D01*
X72049Y159055D01*
X72974Y157087D01*
X72597Y156628D01*
X39819D01*
X39498Y157067D01*
X39466Y157519D01*
X39612Y157991D01*
X40374Y159205D01*
X40575Y159245D01*
X40575Y159245D01*
X41096Y159593D01*
X41384D01*
X41752Y159347D01*
X41905Y159245D01*
X41905Y159245D01*
X42520Y159123D01*
X43134Y159245D01*
X43655Y159593D01*
X43655Y159593D01*
X43758Y159746D01*
X44003Y160114D01*
X44125Y160728D01*
Y162141D01*
X44587Y162450D01*
X45524Y163386D01*
X45667D01*
X46391Y163686D01*
X47570Y164200D01*
X48513Y164142D01*
D02*
G37*
G36*
X248031Y147638D02*
X235091D01*
X233268Y149461D01*
Y151969D01*
X228150D01*
Y147638D01*
X225394D01*
Y160335D01*
X217520D01*
Y149166D01*
X215992Y147638D01*
X187106D01*
X187106Y203119D01*
X248031Y203119D01*
Y147638D01*
D02*
G37*
G36*
X81496Y153053D02*
X81796Y152330D01*
X82349Y151776D01*
X83073Y151476D01*
X83856D01*
X84022Y151545D01*
X85567Y150815D01*
X85991Y150403D01*
Y146406D01*
X84022Y145590D01*
X79356Y150256D01*
Y153317D01*
X80198Y153733D01*
X81496Y153053D01*
D02*
G37*
G36*
X4141Y175017D02*
X4261Y174418D01*
X4600Y173909D01*
X5479Y173030D01*
X5988Y172691D01*
X6587Y172571D01*
X9301D01*
Y168405D01*
X10154D01*
Y164744D01*
X10254Y164242D01*
X10335Y164121D01*
Y161670D01*
X10122Y159789D01*
X10122Y158622D01*
Y157480D01*
X12697D01*
X15272D01*
Y158622D01*
X15272Y159789D01*
X15258Y159908D01*
X15938Y160669D01*
X16334Y160681D01*
X18005Y160114D01*
X18005Y160114D01*
X18250Y159746D01*
X18353Y159593D01*
X18353Y159593D01*
X18874Y159245D01*
X19488Y159123D01*
X19488Y159123D01*
X19669Y159159D01*
X20103Y159245D01*
X20103Y159245D01*
X20624Y159593D01*
X20912D01*
X21433Y159245D01*
X22047Y159123D01*
X22662Y159245D01*
X23183Y159593D01*
X23471D01*
X23992Y159245D01*
X24606Y159123D01*
X25221Y159245D01*
X25742Y159593D01*
X26030D01*
X26551Y159245D01*
X27165Y159123D01*
X27780Y159245D01*
X28301Y159593D01*
X28589D01*
X28957Y159347D01*
X29110Y159245D01*
X29110Y159245D01*
X29724Y159123D01*
X30339Y159245D01*
X31004Y159531D01*
X31669Y159245D01*
X32283Y159123D01*
X33279Y158703D01*
X33740Y158049D01*
X34024Y157623D01*
X37261Y154387D01*
X37687Y154102D01*
X38189Y154002D01*
X74213D01*
Y153150D01*
X76731D01*
Y149713D01*
X76831Y149210D01*
X77115Y148784D01*
X83577Y142323D01*
X82761Y140354D01*
X80512D01*
Y140354D01*
X79150Y140567D01*
X79150Y140567D01*
X78631Y140567D01*
X77362D01*
Y137795D01*
X76772D01*
Y137205D01*
X74394D01*
Y135663D01*
X72342D01*
Y142815D01*
X65650D01*
Y142265D01*
X64171Y140748D01*
X63388D01*
X62665Y140448D01*
X62300Y140084D01*
X54626D01*
Y142815D01*
X47933D01*
Y135663D01*
X44480D01*
X43975Y137631D01*
X44003Y137673D01*
X44125Y138287D01*
Y141437D01*
X44003Y142051D01*
X43758Y142419D01*
X43655Y142572D01*
X43655Y142572D01*
X43134Y142920D01*
X42520Y143043D01*
X41905Y142920D01*
X41905Y142920D01*
X41384Y142572D01*
X41096D01*
X40575Y142920D01*
X39961Y143043D01*
X39346Y142920D01*
X38825Y142572D01*
X38537D01*
X38016Y142920D01*
X37402Y143043D01*
X36787Y142920D01*
X36266Y142572D01*
X35978D01*
X35457Y142920D01*
X34843Y143043D01*
X34228Y142920D01*
X33707Y142572D01*
X33419D01*
X32898Y142920D01*
X32283Y143043D01*
X31669Y142920D01*
X31148Y142572D01*
X30860D01*
X30339Y142920D01*
X29724Y143043D01*
X29110Y142920D01*
X28589Y142572D01*
X28301D01*
X27780Y142920D01*
X27165Y143043D01*
X26551Y142920D01*
X26030Y142572D01*
X25742D01*
X25221Y142920D01*
X24606Y143043D01*
X23992Y142920D01*
X23471Y142572D01*
X23183D01*
X22815Y142818D01*
X22662Y142920D01*
X22662Y142920D01*
X22047Y143043D01*
X21433Y142920D01*
X20768Y142634D01*
X20103Y142920D01*
X19488Y143043D01*
X19488Y143043D01*
X18874Y142920D01*
X18874Y142920D01*
X18874Y142920D01*
X18353Y142572D01*
X18005Y142051D01*
X18005Y142051D01*
X17883Y141437D01*
X17883Y141437D01*
X17883Y141395D01*
X17883Y141395D01*
X17883Y141395D01*
Y138287D01*
X16370Y136925D01*
X16305Y136895D01*
X14265D01*
X13665Y136776D01*
X13156Y136436D01*
X12344Y135624D01*
X12005Y135116D01*
X11972Y135065D01*
X11721Y134965D01*
X10115Y134651D01*
X9977Y134661D01*
X7283Y137355D01*
Y139469D01*
X2165D01*
X1606Y141205D01*
Y188073D01*
X4141D01*
Y175017D01*
D02*
G37*
G36*
X9616Y129527D02*
Y129528D01*
X13789D01*
X14604Y127559D01*
X13029Y125984D01*
X6292D01*
Y129232D01*
X7283D01*
Y129232D01*
X9252Y129706D01*
X9616Y129527D01*
D02*
G37*
G36*
X94160Y127803D02*
X93406Y125984D01*
X67207D01*
X65639Y127553D01*
X66454Y129521D01*
X92441D01*
X94160Y127803D01*
D02*
G37*
G36*
X28157Y133158D02*
Y130571D01*
X28276Y129971D01*
X28616Y129463D01*
X30276Y127803D01*
X29522Y125984D01*
X20191D01*
X19674Y126629D01*
X19181Y127559D01*
X19922Y129528D01*
X21289D01*
Y129732D01*
X23728D01*
X24328Y129851D01*
X24836Y130191D01*
X25715Y131070D01*
X26054Y131578D01*
X26174Y132178D01*
Y133158D01*
X27165Y133784D01*
X28157Y133158D01*
D02*
G37*
G36*
X21260Y99213D02*
X17137D01*
Y99687D01*
X17037Y100190D01*
X17028Y100204D01*
Y102657D01*
X21260D01*
Y99213D01*
D02*
G37*
G36*
X98561D02*
X92373Y99213D01*
Y100180D01*
X92273Y100682D01*
X92224Y100755D01*
X92224Y102657D01*
X98561Y102657D01*
X98561Y99213D01*
D02*
G37*
G36*
X48622Y102657D02*
Y99213D01*
X42039Y99213D01*
Y99687D01*
X41939Y100190D01*
X41880Y100278D01*
Y102657D01*
X48622Y102657D01*
D02*
G37*
G36*
X73543Y102953D02*
X73543Y99114D01*
X66743Y99114D01*
Y99687D01*
X66643Y100190D01*
X66614Y100233D01*
X66614Y102953D01*
X73543Y102953D01*
D02*
G37*
G36*
X260433Y90059D02*
X200689D01*
X200596Y136879D01*
X203377Y139665D01*
X260433D01*
Y90059D01*
D02*
G37*
G36*
X260827Y67323D02*
Y1606D01*
X230315D01*
Y35925D01*
X218307Y47933D01*
Y47933D01*
X215846Y50394D01*
Y84055D01*
X227165D01*
Y69193D01*
X227756Y68602D01*
X252559D01*
Y83938D01*
X252953Y84252D01*
X260827D01*
Y67323D01*
D02*
G37*
G36*
X134911Y60939D02*
Y58071D01*
X135794D01*
Y56102D01*
X134941D01*
Y54856D01*
X132707D01*
Y55709D01*
X127333D01*
Y55709D01*
X126407D01*
Y55709D01*
X121125D01*
X120504Y55786D01*
X119216Y57130D01*
X119222Y57284D01*
X119222D01*
Y62008D01*
X119222D01*
X119540Y63845D01*
X132006D01*
X134911Y60939D01*
D02*
G37*
G36*
X311024Y43307D02*
X265748Y43307D01*
X265748Y86614D01*
X311024Y86614D01*
X311024Y43307D01*
D02*
G37*
G36*
X141732Y45276D02*
X208661D01*
Y1606D01*
X208661Y1606D01*
X141732D01*
X141732Y45276D01*
X141732Y45276D01*
D02*
G37*
%LPC*%
G36*
X39311Y198619D02*
Y195276D01*
X42654D01*
X42404Y196211D01*
X41884Y197112D01*
X41148Y197848D01*
X40246Y198368D01*
X39311Y198619D01*
D02*
G37*
G36*
X38130D02*
X37195Y198368D01*
X36293Y197848D01*
X35557Y197112D01*
X35037Y196211D01*
X34786Y195276D01*
X38130D01*
Y198619D01*
D02*
G37*
G36*
X42654Y194095D02*
X39311D01*
Y190751D01*
X40246Y191002D01*
X41148Y191522D01*
X41884Y192258D01*
X42404Y193159D01*
X42654Y194095D01*
D02*
G37*
G36*
X38130D02*
X34786D01*
X35037Y193159D01*
X35557Y192258D01*
X36293Y191522D01*
X37195Y191002D01*
X38130Y190751D01*
Y194095D01*
D02*
G37*
G36*
X93110Y187447D02*
X91126D01*
Y185138D01*
X93110D01*
Y187447D01*
D02*
G37*
G36*
X168597Y190176D02*
X167623D01*
X166682Y189924D01*
X165838Y189437D01*
X165149Y188748D01*
X164662Y187905D01*
X164410Y186963D01*
Y185989D01*
X164662Y185048D01*
X165149Y184204D01*
X165838Y183516D01*
X166682Y183028D01*
X167623Y182776D01*
X168597D01*
X169538Y183028D01*
X170382Y183516D01*
X171071Y184204D01*
X171558Y185048D01*
X171810Y185989D01*
Y186963D01*
X171558Y187905D01*
X171071Y188748D01*
X170382Y189437D01*
X169538Y189924D01*
X168597Y190176D01*
D02*
G37*
G36*
X180709Y151083D02*
X178528D01*
Y149295D01*
X180709D01*
Y151083D01*
D02*
G37*
G36*
X169405Y132776D02*
X167421D01*
Y130466D01*
X169405D01*
Y132776D01*
D02*
G37*
G36*
X166240D02*
X164256D01*
Y130466D01*
X166240D01*
Y132776D01*
D02*
G37*
G36*
X180807Y121457D02*
X178626D01*
Y119669D01*
X180807D01*
Y121457D01*
D02*
G37*
G36*
X180626Y67520D02*
X177461D01*
Y65142D01*
X180626D01*
Y67520D01*
D02*
G37*
G36*
X144488Y63008D02*
Y61024D01*
X146797D01*
Y63008D01*
X144488D01*
D02*
G37*
G36*
X303748Y201866D02*
X303740D01*
Y197913D01*
X307693D01*
Y197921D01*
X307383Y199076D01*
X306785Y200113D01*
X305939Y200958D01*
X304903Y201556D01*
X303748Y201866D01*
D02*
G37*
G36*
X273748D02*
X273740D01*
Y197913D01*
X277693D01*
Y197921D01*
X277383Y199076D01*
X276785Y200113D01*
X275939Y200958D01*
X274903Y201556D01*
X273748Y201866D01*
D02*
G37*
G36*
X302559D02*
X302552D01*
X301396Y201556D01*
X300360Y200958D01*
X299514Y200113D01*
X298916Y199076D01*
X298606Y197921D01*
Y197913D01*
X302559D01*
Y201866D01*
D02*
G37*
G36*
X272559D02*
X272551D01*
X271396Y201556D01*
X270360Y200958D01*
X269514Y200113D01*
X268916Y199076D01*
X268606Y197921D01*
Y197913D01*
X272559D01*
Y201866D01*
D02*
G37*
G36*
X307693Y196732D02*
X303740D01*
Y192780D01*
X303748D01*
X304903Y193089D01*
X305939Y193687D01*
X306785Y194533D01*
X307383Y195569D01*
X307693Y196725D01*
Y196732D01*
D02*
G37*
G36*
X302559D02*
X298606D01*
Y196725D01*
X298916Y195569D01*
X299514Y194533D01*
X300360Y193687D01*
X301396Y193089D01*
X302552Y192780D01*
X302559D01*
Y196732D01*
D02*
G37*
G36*
X277693D02*
X273740D01*
Y192780D01*
X273748D01*
X274903Y193089D01*
X275939Y193687D01*
X276785Y194533D01*
X277383Y195569D01*
X277693Y196725D01*
Y196732D01*
D02*
G37*
G36*
X272559D02*
X268606D01*
Y196725D01*
X268916Y195569D01*
X269514Y194533D01*
X270360Y193687D01*
X271396Y193089D01*
X272551Y192780D01*
X272559D01*
Y196732D01*
D02*
G37*
G36*
X303748Y191866D02*
X303740D01*
Y187913D01*
X307693D01*
Y187921D01*
X307383Y189076D01*
X306785Y190112D01*
X305939Y190958D01*
X304903Y191557D01*
X303748Y191866D01*
D02*
G37*
G36*
X273748D02*
X273740D01*
Y187913D01*
X277693D01*
Y187921D01*
X277383Y189076D01*
X276785Y190112D01*
X275939Y190958D01*
X274903Y191557D01*
X273748Y191866D01*
D02*
G37*
G36*
X302559D02*
X302552D01*
X301396Y191557D01*
X300360Y190958D01*
X299514Y190112D01*
X298916Y189076D01*
X298606Y187921D01*
Y187913D01*
X302559D01*
Y191866D01*
D02*
G37*
G36*
X272559D02*
X272551D01*
X271396Y191557D01*
X270360Y190958D01*
X269514Y190112D01*
X268916Y189076D01*
X268606Y187921D01*
Y187913D01*
X272559D01*
Y191866D01*
D02*
G37*
G36*
X307693Y186732D02*
X303740D01*
Y182780D01*
X303748D01*
X304903Y183089D01*
X305939Y183687D01*
X306785Y184533D01*
X307383Y185569D01*
X307693Y186725D01*
Y186732D01*
D02*
G37*
G36*
X302559D02*
X298606D01*
Y186725D01*
X298916Y185569D01*
X299514Y184533D01*
X300360Y183687D01*
X301396Y183089D01*
X302552Y182780D01*
X302559D01*
Y186732D01*
D02*
G37*
G36*
X277693D02*
X273740D01*
Y182780D01*
X273748D01*
X274903Y183089D01*
X275939Y183687D01*
X276785Y184533D01*
X277383Y185569D01*
X277693Y186725D01*
Y186732D01*
D02*
G37*
G36*
X272559D02*
X268606D01*
Y186725D01*
X268916Y185569D01*
X269514Y184533D01*
X270360Y183687D01*
X271396Y183089D01*
X272551Y182780D01*
X272559D01*
Y186732D01*
D02*
G37*
G36*
X303748Y181866D02*
X303740D01*
Y177913D01*
X307693D01*
Y177921D01*
X307383Y179077D01*
X306785Y180113D01*
X305939Y180958D01*
X304903Y181556D01*
X303748Y181866D01*
D02*
G37*
G36*
X273748D02*
X273740D01*
Y177913D01*
X277693D01*
Y177921D01*
X277383Y179077D01*
X276785Y180113D01*
X275939Y180958D01*
X274903Y181556D01*
X273748Y181866D01*
D02*
G37*
G36*
X302559D02*
X302552D01*
X301396Y181556D01*
X300360Y180958D01*
X299514Y180113D01*
X298916Y179077D01*
X298606Y177921D01*
Y177913D01*
X302559D01*
Y181866D01*
D02*
G37*
G36*
X272559D02*
X272551D01*
X271396Y181556D01*
X270360Y180958D01*
X269514Y180113D01*
X268916Y179077D01*
X268606Y177921D01*
Y177913D01*
X272559D01*
Y181866D01*
D02*
G37*
G36*
X307693Y176732D02*
X303740D01*
Y172780D01*
X303748D01*
X304903Y173089D01*
X305939Y173687D01*
X306785Y174533D01*
X307383Y175569D01*
X307693Y176725D01*
Y176732D01*
D02*
G37*
G36*
X302559D02*
X298606D01*
Y176725D01*
X298916Y175569D01*
X299514Y174533D01*
X300360Y173687D01*
X301396Y173089D01*
X302552Y172780D01*
X302559D01*
Y176732D01*
D02*
G37*
G36*
X277693D02*
X273740D01*
Y172780D01*
X273748D01*
X274903Y173089D01*
X275939Y173687D01*
X276785Y174533D01*
X277383Y175569D01*
X277693Y176725D01*
Y176732D01*
D02*
G37*
G36*
X272559D02*
X268606D01*
Y176725D01*
X268916Y175569D01*
X269514Y174533D01*
X270360Y173687D01*
X271396Y173089D01*
X272551Y172780D01*
X272559D01*
Y176732D01*
D02*
G37*
G36*
X303748Y171866D02*
X303740D01*
Y167913D01*
X307693D01*
Y167921D01*
X307383Y169077D01*
X306785Y170113D01*
X305939Y170958D01*
X304903Y171556D01*
X303748Y171866D01*
D02*
G37*
G36*
X273748D02*
X273740D01*
Y167913D01*
X277693D01*
Y167921D01*
X277383Y169077D01*
X276785Y170113D01*
X275939Y170958D01*
X274903Y171556D01*
X273748Y171866D01*
D02*
G37*
G36*
X302559D02*
X302552D01*
X301396Y171556D01*
X300360Y170958D01*
X299514Y170113D01*
X298916Y169077D01*
X298606Y167921D01*
Y167913D01*
X302559D01*
Y171866D01*
D02*
G37*
G36*
X272559D02*
X272551D01*
X271396Y171556D01*
X270360Y170958D01*
X269514Y170113D01*
X268916Y169077D01*
X268606Y167921D01*
Y167913D01*
X272559D01*
Y171866D01*
D02*
G37*
G36*
X307693Y166732D02*
X303740D01*
Y162779D01*
X303748D01*
X304903Y163089D01*
X305939Y163687D01*
X306785Y164533D01*
X307383Y165569D01*
X307693Y166725D01*
Y166732D01*
D02*
G37*
G36*
X302559D02*
X298606D01*
Y166725D01*
X298916Y165569D01*
X299514Y164533D01*
X300360Y163687D01*
X301396Y163089D01*
X302552Y162779D01*
X302559D01*
Y166732D01*
D02*
G37*
G36*
X277693D02*
X273740D01*
Y162779D01*
X273748D01*
X274903Y163089D01*
X275939Y163687D01*
X276785Y164533D01*
X277383Y165569D01*
X277693Y166725D01*
Y166732D01*
D02*
G37*
G36*
X272559D02*
X268606D01*
Y166725D01*
X268916Y165569D01*
X269514Y164533D01*
X270360Y163687D01*
X271396Y163089D01*
X272551Y162779D01*
X272559D01*
Y166732D01*
D02*
G37*
G36*
X15272Y156299D02*
X13287D01*
Y153990D01*
X15272D01*
Y156299D01*
D02*
G37*
G36*
X12106D02*
X10122D01*
Y153990D01*
X12106D01*
Y156299D01*
D02*
G37*
G36*
X76181Y140567D02*
X74394D01*
Y138386D01*
X76181D01*
Y140567D01*
D02*
G37*
G36*
X303748Y83756D02*
X303740D01*
Y79803D01*
X307693D01*
Y79811D01*
X307383Y80966D01*
X306785Y82002D01*
X305939Y82848D01*
X304903Y83446D01*
X303748Y83756D01*
D02*
G37*
G36*
X273748D02*
X273740D01*
Y79803D01*
X277693D01*
Y79811D01*
X277383Y80966D01*
X276785Y82002D01*
X275939Y82848D01*
X274903Y83446D01*
X273748Y83756D01*
D02*
G37*
G36*
X302559D02*
X302552D01*
X301396Y83446D01*
X300360Y82848D01*
X299514Y82002D01*
X298916Y80966D01*
X298606Y79811D01*
Y79803D01*
X302559D01*
Y83756D01*
D02*
G37*
G36*
X272559D02*
X272551D01*
X271396Y83446D01*
X270360Y82848D01*
X269514Y82002D01*
X268916Y80966D01*
X268606Y79811D01*
Y79803D01*
X272559D01*
Y83756D01*
D02*
G37*
G36*
X307693Y78622D02*
X303740D01*
Y74669D01*
X303748D01*
X304903Y74979D01*
X305939Y75577D01*
X306785Y76423D01*
X307383Y77459D01*
X307693Y78614D01*
Y78622D01*
D02*
G37*
G36*
X302559D02*
X298606D01*
Y78614D01*
X298916Y77459D01*
X299514Y76423D01*
X300360Y75577D01*
X301396Y74979D01*
X302552Y74669D01*
X302559D01*
Y78622D01*
D02*
G37*
G36*
X277693D02*
X273740D01*
Y74669D01*
X273748D01*
X274903Y74979D01*
X275939Y75577D01*
X276785Y76423D01*
X277383Y77459D01*
X277693Y78614D01*
Y78622D01*
D02*
G37*
G36*
X272559D02*
X268606D01*
Y78614D01*
X268916Y77459D01*
X269514Y76423D01*
X270360Y75577D01*
X271396Y74979D01*
X272551Y74669D01*
X272559D01*
Y78622D01*
D02*
G37*
G36*
X303748Y73756D02*
X303740D01*
Y69803D01*
X307693D01*
Y69811D01*
X307383Y70966D01*
X306785Y72002D01*
X305939Y72848D01*
X304903Y73446D01*
X303748Y73756D01*
D02*
G37*
G36*
X273748D02*
X273740D01*
Y69803D01*
X277693D01*
Y69811D01*
X277383Y70966D01*
X276785Y72002D01*
X275939Y72848D01*
X274903Y73446D01*
X273748Y73756D01*
D02*
G37*
G36*
X302559D02*
X302552D01*
X301396Y73446D01*
X300360Y72848D01*
X299514Y72002D01*
X298916Y70966D01*
X298606Y69811D01*
Y69803D01*
X302559D01*
Y73756D01*
D02*
G37*
G36*
X272559D02*
X272551D01*
X271396Y73446D01*
X270360Y72848D01*
X269514Y72002D01*
X268916Y70966D01*
X268606Y69811D01*
Y69803D01*
X272559D01*
Y73756D01*
D02*
G37*
G36*
X307693Y68622D02*
X303740D01*
Y64669D01*
X303748D01*
X304903Y64979D01*
X305939Y65577D01*
X306785Y66423D01*
X307383Y67459D01*
X307693Y68615D01*
Y68622D01*
D02*
G37*
G36*
X302559D02*
X298606D01*
Y68615D01*
X298916Y67459D01*
X299514Y66423D01*
X300360Y65577D01*
X301396Y64979D01*
X302552Y64669D01*
X302559D01*
Y68622D01*
D02*
G37*
G36*
X277693D02*
X273740D01*
Y64669D01*
X273748D01*
X274903Y64979D01*
X275939Y65577D01*
X276785Y66423D01*
X277383Y67459D01*
X277693Y68615D01*
Y68622D01*
D02*
G37*
G36*
X272559D02*
X268606D01*
Y68615D01*
X268916Y67459D01*
X269514Y66423D01*
X270360Y65577D01*
X271396Y64979D01*
X272551Y64669D01*
X272559D01*
Y68622D01*
D02*
G37*
G36*
X303748Y63756D02*
X303740D01*
Y59803D01*
X307693D01*
Y59811D01*
X307383Y60966D01*
X306785Y62002D01*
X305939Y62848D01*
X304903Y63446D01*
X303748Y63756D01*
D02*
G37*
G36*
X273748D02*
X273740D01*
Y59803D01*
X277693D01*
Y59811D01*
X277383Y60966D01*
X276785Y62002D01*
X275939Y62848D01*
X274903Y63446D01*
X273748Y63756D01*
D02*
G37*
G36*
X302559D02*
X302552D01*
X301396Y63446D01*
X300360Y62848D01*
X299514Y62002D01*
X298916Y60966D01*
X298606Y59811D01*
Y59803D01*
X302559D01*
Y63756D01*
D02*
G37*
G36*
X272559D02*
X272551D01*
X271396Y63446D01*
X270360Y62848D01*
X269514Y62002D01*
X268916Y60966D01*
X268606Y59811D01*
Y59803D01*
X272559D01*
Y63756D01*
D02*
G37*
G36*
X307693Y58622D02*
X303740D01*
Y54669D01*
X303748D01*
X304903Y54979D01*
X305939Y55577D01*
X306785Y56423D01*
X307383Y57459D01*
X307693Y58614D01*
Y58622D01*
D02*
G37*
G36*
X302559D02*
X298606D01*
Y58614D01*
X298916Y57459D01*
X299514Y56423D01*
X300360Y55577D01*
X301396Y54979D01*
X302552Y54669D01*
X302559D01*
Y58622D01*
D02*
G37*
G36*
X277693D02*
X273740D01*
Y54669D01*
X273748D01*
X274903Y54979D01*
X275939Y55577D01*
X276785Y56423D01*
X277383Y57459D01*
X277693Y58614D01*
Y58622D01*
D02*
G37*
G36*
X272559D02*
X268606D01*
Y58614D01*
X268916Y57459D01*
X269514Y56423D01*
X270360Y55577D01*
X271396Y54979D01*
X272551Y54669D01*
X272559D01*
Y58622D01*
D02*
G37*
G36*
X303748Y53756D02*
X303740D01*
Y49803D01*
X307693D01*
Y49811D01*
X307383Y50966D01*
X306785Y52002D01*
X305939Y52848D01*
X304903Y53446D01*
X303748Y53756D01*
D02*
G37*
G36*
X273748D02*
X273740D01*
Y49803D01*
X277693D01*
Y49811D01*
X277383Y50966D01*
X276785Y52002D01*
X275939Y52848D01*
X274903Y53446D01*
X273748Y53756D01*
D02*
G37*
G36*
X302559D02*
X302552D01*
X301396Y53446D01*
X300360Y52848D01*
X299514Y52002D01*
X298916Y50966D01*
X298606Y49811D01*
Y49803D01*
X302559D01*
Y53756D01*
D02*
G37*
G36*
X272559D02*
X272551D01*
X271396Y53446D01*
X270360Y52848D01*
X269514Y52002D01*
X268916Y50966D01*
X268606Y49811D01*
Y49803D01*
X272559D01*
Y53756D01*
D02*
G37*
G36*
X307693Y48622D02*
X303740D01*
Y44669D01*
X303748D01*
X304903Y44979D01*
X305939Y45577D01*
X306785Y46423D01*
X307383Y47459D01*
X307693Y48614D01*
Y48622D01*
D02*
G37*
G36*
X302559D02*
X298606D01*
Y48614D01*
X298916Y47459D01*
X299514Y46423D01*
X300360Y45577D01*
X301396Y44979D01*
X302552Y44669D01*
X302559D01*
Y48622D01*
D02*
G37*
G36*
X277693D02*
X273740D01*
Y44669D01*
X273748D01*
X274903Y44979D01*
X275939Y45577D01*
X276785Y46423D01*
X277383Y47459D01*
X277693Y48614D01*
Y48622D01*
D02*
G37*
G36*
X272559D02*
X268606D01*
Y48614D01*
X268916Y47459D01*
X269514Y46423D01*
X270360Y45577D01*
X271396Y44979D01*
X272551Y44669D01*
X272559D01*
Y48622D01*
D02*
G37*
%LPD*%
D10*
X105315Y144095D02*
X124705Y124705D01*
X156890D02*
X160059Y127874D01*
X124705Y124705D02*
X156890D01*
X107283Y147146D02*
Y154626D01*
Y147146D02*
X112598Y141831D01*
Y141831D02*
Y141831D01*
Y141831D02*
X120669Y133760D01*
X145059D01*
X160059Y127874D02*
Y133760D01*
X105315Y144095D02*
Y154626D01*
X28543Y191437D02*
X29035Y191929D01*
X163649Y154035D02*
X163681D01*
X160059Y155217D02*
X162468D01*
X163649Y154035D01*
X204035Y194882D02*
X215846Y183071D01*
X28543Y190453D02*
Y191437D01*
X156102Y191732D02*
Y197146D01*
X148524Y177461D02*
X149409Y176575D01*
X155864Y191494D02*
X156102Y191732D01*
X155315Y176575D02*
X158661Y173228D01*
Y165453D02*
Y173228D01*
X155315Y176969D02*
Y177362D01*
Y176575D02*
Y176969D01*
X156102Y162894D02*
X158661Y165453D01*
X156102Y162697D02*
Y162894D01*
X151962Y191494D02*
X155864D01*
X153354Y178825D02*
Y184426D01*
X151386Y186395D02*
Y190917D01*
X151962Y191494D01*
X151386Y186395D02*
X153354Y184426D01*
X154429Y178248D02*
X155315Y177362D01*
X153354Y178825D02*
X153931Y178248D01*
X154429D01*
X151370Y178825D02*
Y183604D01*
X149402Y185573D02*
X151370Y183604D01*
X150794Y178248D02*
X151370Y178825D01*
X149402Y185573D02*
Y192739D01*
X148825Y193316D02*
X149402Y192739D01*
X150295Y178248D02*
X150794D01*
X149409Y177362D02*
X150295Y178248D01*
X149409Y176969D02*
Y177362D01*
X146063Y173228D02*
X149409Y176575D01*
X144488Y194193D02*
X145365Y193316D01*
X148825D01*
X148622Y162697D02*
Y162894D01*
X148287Y162362D02*
X148622Y162697D01*
X146063Y165453D02*
Y173228D01*
Y165453D02*
X148622Y162894D01*
X153248Y159777D02*
Y160841D01*
X156102Y162500D02*
Y162697D01*
X153339Y158563D02*
Y159687D01*
X153248Y159777D02*
X153339Y159687D01*
X153248Y160841D02*
X153825Y161417D01*
X153339Y158563D02*
X153551Y158350D01*
Y158155D02*
Y158350D01*
Y158155D02*
X154128Y157579D01*
X153825Y161417D02*
X155020D01*
X154128Y157579D02*
X154370D01*
X155020Y161417D02*
X156102Y162500D01*
X148622D02*
Y162697D01*
X155059Y155217D02*
Y156890D01*
X154370Y157579D02*
X155059Y156890D01*
X150990Y157579D02*
X151567Y158155D01*
X150748Y157579D02*
X150990D01*
X149705Y161417D02*
X150900D01*
X151476Y160841D01*
X148622Y162500D02*
X149705Y161417D01*
X150059Y155217D02*
Y156890D01*
X150748Y157579D01*
X151567Y158155D02*
Y158953D01*
X151476Y159043D02*
Y160841D01*
Y159043D02*
X151567Y158953D01*
X148917Y171358D02*
X155807D01*
X204035Y194882D02*
Y194995D01*
X206317Y185099D02*
X207972Y183444D01*
X192342Y197165D02*
X201865D01*
X207972Y183071D02*
Y183444D01*
X206317Y185099D02*
Y185415D01*
X205413Y186319D02*
X206317Y185415D01*
X201865Y197165D02*
X204035Y194995D01*
X204724Y124016D02*
X208366D01*
X212402Y128051D01*
X193189Y186319D02*
X205413D01*
X192342Y187165D02*
X193189Y186319D01*
X171102Y30512D02*
Y37874D01*
X166849Y24684D02*
X171102Y28938D01*
X51279Y138976D02*
X51476Y138779D01*
X51279Y170276D02*
X51968Y170965D01*
X51476Y138779D02*
X63779D01*
X51968Y170965D02*
X63189D01*
D13*
X91191Y150148D02*
Y156545D01*
X91142Y150098D02*
X91191Y150148D01*
Y156545D02*
X91240Y156595D01*
X91474D02*
X91867Y156988D01*
X95079D01*
X91240Y156595D02*
X91474D01*
X113742Y170927D02*
X114333D01*
X116240Y172835D01*
X116240D01*
X113583Y170768D02*
X113742Y170927D01*
X113583Y168799D02*
X118898D01*
X120768Y170669D01*
Y171063D01*
X109449Y150886D02*
Y154429D01*
X118999Y141336D02*
X122385D01*
X123524Y140197D01*
X109449Y150886D02*
X118999Y141336D01*
X109252Y154626D02*
X109449Y154429D01*
X111221Y154035D02*
Y154626D01*
Y154035D02*
X119988Y145268D01*
X128453D01*
X133524Y140197D01*
X115445Y158866D02*
X123524Y150787D01*
Y150197D02*
Y150787D01*
X113673Y158866D02*
X115445D01*
X113583Y158957D02*
X113673Y158866D01*
X131168Y166831D02*
X131956Y167618D01*
X132382D01*
X113583Y166831D02*
X131168D01*
X113730Y164715D02*
X116781D01*
X116929Y164567D01*
X113583Y164862D02*
X113730Y164715D01*
X117126Y161122D02*
X121161Y165157D01*
X137894D01*
X113779Y161122D02*
X117126D01*
X137894Y165157D02*
X140157Y162894D01*
Y151181D02*
Y162894D01*
Y151181D02*
X142686Y148653D01*
X155169D01*
X160059Y153543D01*
Y155217D01*
X113583Y160925D02*
X113779Y161122D01*
D20*
X111221Y173130D02*
D03*
X109252D02*
D03*
X107283D02*
D03*
X105315D02*
D03*
X103347D02*
D03*
X101378D02*
D03*
X99410D02*
D03*
X97441D02*
D03*
Y154626D02*
D03*
X99410D02*
D03*
X101378D02*
D03*
X103347D02*
D03*
X105315D02*
D03*
X107283D02*
D03*
X109252D02*
D03*
X111221D02*
D03*
D21*
X113583Y156988D02*
D03*
Y158957D02*
D03*
Y160925D02*
D03*
Y162894D02*
D03*
Y164862D02*
D03*
Y166831D02*
D03*
Y168799D02*
D03*
Y170768D02*
D03*
X95079D02*
D03*
Y168799D02*
D03*
Y166831D02*
D03*
Y164862D02*
D03*
Y162894D02*
D03*
Y160925D02*
D03*
Y158957D02*
D03*
Y156988D02*
D03*
D22*
X104331Y163878D02*
D03*
D24*
X181299Y142913D02*
D03*
Y136614D02*
D03*
X181004Y178543D02*
D03*
Y184842D02*
D03*
X181004Y171850D02*
D03*
Y165551D02*
D03*
X103051Y93012D02*
D03*
Y99311D02*
D03*
X27815Y93012D02*
D03*
Y99311D02*
D03*
X52717Y93012D02*
D03*
Y99311D02*
D03*
X77421Y93012D02*
D03*
Y99311D02*
D03*
D26*
X62480Y97933D02*
D03*
X67559Y99901D02*
D03*
Y95964D02*
D03*
X93189Y95965D02*
D03*
Y99902D02*
D03*
X88110Y97933D02*
D03*
X42854Y95964D02*
D03*
Y99901D02*
D03*
X37776Y97933D02*
D03*
X17953Y95964D02*
D03*
Y99901D02*
D03*
X12874Y97933D02*
D03*
D27*
X152362Y170571D02*
D03*
X156102Y162697D02*
D03*
X148622D02*
D03*
D29*
X221457Y153642D02*
D03*
X203346D02*
D03*
X257776Y76279D02*
D03*
X239665D02*
D03*
X257776Y153642D02*
D03*
X239665D02*
D03*
X203346Y76279D02*
D03*
X221457D02*
D03*
D30*
X212402Y128051D02*
D03*
X248721Y101870D02*
D03*
X248721Y128051D02*
D03*
X212402Y101870D02*
D03*
D32*
X235433Y22539D02*
D03*
X202559D02*
D03*
D36*
X17776Y38937D02*
D03*
X29587D02*
D03*
X41398D02*
D03*
X53209D02*
D03*
X65020D02*
D03*
D37*
X42520Y139862D02*
D03*
X39961D02*
D03*
X37402D02*
D03*
X34843D02*
D03*
X32283D02*
D03*
X29724D02*
D03*
X27165D02*
D03*
X24606D02*
D03*
X22047D02*
D03*
X19488D02*
D03*
Y162303D02*
D03*
X22047D02*
D03*
X24606D02*
D03*
X27165D02*
D03*
X29724D02*
D03*
X32283D02*
D03*
X34843D02*
D03*
X37402D02*
D03*
X39961D02*
D03*
X42520D02*
D03*
D39*
X70472Y188976D02*
D03*
X100394Y19685D02*
D03*
X299213D02*
D03*
D40*
X133524Y140197D02*
D03*
Y150197D02*
D03*
Y160197D02*
D03*
X123524Y140197D02*
D03*
Y150197D02*
D03*
Y160197D02*
D03*
D47*
X73484Y17362D02*
D03*
X8799D02*
D03*
D49*
X116535Y191831D02*
D03*
X122441D02*
D03*
X82677Y137795D02*
D03*
X76772D02*
D03*
X155315Y176969D02*
D03*
X149409D02*
D03*
X182972Y91339D02*
D03*
X177067D02*
D03*
X143012Y53543D02*
D03*
X137106D02*
D03*
X17372Y170965D02*
D03*
X11467D02*
D03*
X120768Y171063D02*
D03*
X126673D02*
D03*
D50*
X83366Y163878D02*
D03*
Y157972D02*
D03*
X181398Y127953D02*
D03*
Y122047D02*
D03*
X168110Y81595D02*
D03*
Y87500D02*
D03*
X212402Y70472D02*
D03*
Y76378D02*
D03*
X248721D02*
D03*
Y70472D02*
D03*
X116596Y47638D02*
D03*
Y53543D02*
D03*
X181004Y192913D02*
D03*
Y198819D02*
D03*
X181299Y151673D02*
D03*
Y157579D02*
D03*
X230807Y79921D02*
D03*
Y85827D02*
D03*
X194882Y79921D02*
D03*
Y85827D02*
D03*
X195177Y137598D02*
D03*
Y131693D02*
D03*
X230709Y149803D02*
D03*
Y143898D02*
D03*
X37402Y183563D02*
D03*
Y177657D02*
D03*
X4724Y137303D02*
D03*
Y131398D02*
D03*
X27815Y114567D02*
D03*
Y108661D02*
D03*
X76772Y155315D02*
D03*
Y161221D02*
D03*
X95276Y109153D02*
D03*
Y115059D02*
D03*
X52717Y114567D02*
D03*
Y108661D02*
D03*
X77421Y114567D02*
D03*
Y108661D02*
D03*
X86221Y109153D02*
D03*
Y115059D02*
D03*
X44941Y115059D02*
D03*
Y109153D02*
D03*
X103051Y114567D02*
D03*
Y108661D02*
D03*
X35886Y115059D02*
D03*
Y109153D02*
D03*
X20039Y115059D02*
D03*
Y109153D02*
D03*
X10984Y115059D02*
D03*
Y109153D02*
D03*
X69646Y109153D02*
D03*
Y115059D02*
D03*
X60591Y109153D02*
D03*
Y115059D02*
D03*
D51*
X160059Y155217D02*
D03*
X155059D02*
D03*
X150059D02*
D03*
X145059D02*
D03*
X160059Y133760D02*
D03*
X155059D02*
D03*
X150059D02*
D03*
X145059D02*
D03*
D52*
X166831Y133366D02*
D03*
Y139665D02*
D03*
X106496Y184547D02*
D03*
Y178248D02*
D03*
X100098Y184547D02*
D03*
Y178248D02*
D03*
X93701Y184547D02*
D03*
Y178248D02*
D03*
X30758Y174311D02*
D03*
Y180610D02*
D03*
X12697Y163189D02*
D03*
Y156890D02*
D03*
D53*
X68996Y170276D02*
D03*
X51279D02*
D03*
X68996Y138976D02*
D03*
X51279D02*
D03*
D54*
X123721Y53347D02*
D03*
X130020D02*
D03*
X116535Y59646D02*
D03*
X110236D02*
D03*
X143898Y60433D02*
D03*
X137598D02*
D03*
X12165Y123228D02*
D03*
X18465D02*
D03*
X18602Y131890D02*
D03*
X12303D02*
D03*
X37067Y123228D02*
D03*
X43366D02*
D03*
X11220Y184055D02*
D03*
X17520D02*
D03*
Y177854D02*
D03*
X11220D02*
D03*
X116437Y184646D02*
D03*
X122736D02*
D03*
Y177854D02*
D03*
X116437D02*
D03*
X87402Y123228D02*
D03*
X93701D02*
D03*
X61772Y123228D02*
D03*
X68071D02*
D03*
X97441Y150098D02*
D03*
X91142D02*
D03*
D55*
X176870Y75591D02*
D03*
X168209Y71850D02*
D03*
X176870Y68110D02*
D03*
D56*
X174350Y83957D02*
D03*
X183130D02*
D03*
D57*
X15315Y56791D02*
D03*
Y81791D02*
D03*
X40217Y56791D02*
D03*
Y81791D02*
D03*
X64921Y56791D02*
D03*
Y81791D02*
D03*
X90551Y56791D02*
D03*
Y81791D02*
D03*
D58*
X37387Y162317D02*
Y165528D01*
Y162317D02*
X37402Y162303D01*
X37225Y165690D02*
X37387Y165528D01*
X123061Y177854D02*
X126045Y174870D01*
Y171691D02*
X126673Y171063D01*
X122736Y177854D02*
X123061D01*
X126045Y171691D02*
Y174870D01*
X139991Y145503D02*
X140551Y146063D01*
X138749Y145503D02*
X139991D01*
X134055Y150197D02*
X138749Y145503D01*
X133524Y150197D02*
X134055D01*
X144628Y155648D02*
Y159568D01*
X143602Y160593D02*
X144628Y159568D01*
Y155648D02*
X145059Y155217D01*
X143602Y160593D02*
Y160827D01*
X97768Y145637D02*
Y149771D01*
X97441Y150098D02*
X97768Y149771D01*
Y145637D02*
X97933Y145472D01*
X83415Y153494D02*
X83465Y153445D01*
X83366Y157972D02*
X83415Y157923D01*
Y153494D02*
Y157923D01*
X82738Y158600D02*
X83366Y157972D01*
X79785Y158600D02*
X82738D01*
X77165Y161221D02*
X79785Y158600D01*
X76772Y161221D02*
X77165D01*
X176969Y122047D02*
X181398D01*
X175316Y123700D02*
X176969Y122047D01*
X181349Y128002D02*
Y136565D01*
X181299Y136614D02*
X181349Y136565D01*
Y128002D02*
X181398Y127953D01*
X112205Y51635D02*
X116202Y47638D01*
X116596D01*
X112205Y51635D02*
Y55118D01*
X116990Y47244D02*
X208661D01*
X213583Y24606D02*
Y42323D01*
X208661Y47244D02*
X213583Y42323D01*
X111386Y56170D02*
Y58821D01*
Y56170D02*
X112205Y55351D01*
Y55118D02*
Y55351D01*
X110561Y59646D02*
X111386Y58821D01*
X110236Y59646D02*
X110561D01*
X116732Y47502D02*
X116990Y47244D01*
X177695Y92360D02*
Y92913D01*
Y93541D01*
X177067Y92323D02*
Y92913D01*
Y91339D02*
Y92323D01*
X188386Y104232D02*
Y143307D01*
X176476Y92323D02*
X177067Y92913D01*
X177657Y92323D02*
X177695Y92360D01*
Y93541D02*
X188386Y104232D01*
X230807Y85827D02*
X244390D01*
X230413D02*
X230807D01*
X244390D02*
X245768Y84449D01*
X247699Y77006D02*
Y79858D01*
X245768Y81789D02*
X247699Y79858D01*
X248327Y76378D02*
X248721D01*
X247699Y77006D02*
X248327Y76378D01*
X245768Y81789D02*
Y84449D01*
X194882Y85827D02*
X195276D01*
X194488D02*
X194882D01*
X209300Y73574D02*
X212402Y70472D01*
X207846Y74453D02*
X208725Y73574D01*
X209300D01*
X207846Y74453D02*
Y82744D01*
X204764Y85827D02*
X207846Y82744D01*
X19038Y57916D02*
X23825D01*
X24176Y58268D02*
X24409D01*
X17776Y56653D02*
X19038Y57916D01*
X23825D02*
X24176Y58268D01*
X11891Y154429D02*
X12055Y154594D01*
Y156248D02*
X12697Y156890D01*
X12055Y154594D02*
Y156248D01*
X30733Y180635D02*
Y182948D01*
Y180635D02*
X30758Y180610D01*
X30709Y182973D02*
X30733Y182948D01*
X8858Y184153D02*
X11122D01*
X11220Y184055D01*
X8760Y184252D02*
X8858Y184153D01*
X8760Y177854D02*
X11220D01*
X5709Y175017D02*
Y190945D01*
Y175017D02*
X6587Y174139D01*
X194882Y31496D02*
Y35433D01*
Y27559D02*
Y31496D01*
Y23622D02*
Y27559D01*
Y19685D02*
Y23622D01*
Y15748D02*
Y19685D01*
Y11811D02*
Y15748D01*
Y7874D02*
Y11811D01*
X190945Y31496D02*
Y35433D01*
Y27559D02*
Y31496D01*
Y23622D02*
Y27559D01*
Y19685D02*
Y23622D01*
Y15748D02*
Y19685D01*
Y11811D02*
Y15748D01*
Y7874D02*
Y11811D01*
X92126Y124902D02*
X92291Y124737D01*
Y124313D02*
Y124737D01*
Y124313D02*
X93376Y123228D01*
X93701D01*
X191110Y82842D02*
X191504D01*
X190945Y82677D02*
X191110Y82842D01*
X191504D02*
X194488Y85827D01*
X176870Y75591D02*
X176870Y75591D01*
Y78937D01*
X211516Y22539D02*
X213583Y24606D01*
X202559Y22539D02*
X211516D01*
X200947Y148486D02*
X203346Y150886D01*
X193565Y148486D02*
X200947D01*
X188386Y143307D02*
X193565Y148486D01*
X203346Y150886D02*
Y153642D01*
X194783Y137598D02*
X195177D01*
Y141929D02*
X199016Y145768D01*
X195177Y137598D02*
Y141929D01*
X195571Y131693D02*
X199016Y135138D01*
X195177Y131693D02*
X195571D01*
X199016Y135138D02*
Y142126D01*
X182972Y92520D02*
X195177Y104724D01*
Y131693D01*
X182972Y91339D02*
Y92520D01*
X168110Y89075D02*
X169291D01*
X168110Y81595D02*
X169291D01*
X169919Y82222D02*
Y83016D01*
X169291Y81595D02*
X169919Y82222D01*
Y83016D02*
X170860Y83957D01*
X169291Y89075D02*
X170937Y87429D01*
X170860Y83957D02*
X174350D01*
X168110Y71949D02*
X168209Y71850D01*
X168110Y71949D02*
Y81595D01*
X182972Y91339D02*
X183051Y91260D01*
X180245Y87429D02*
X182972Y90158D01*
Y91339D01*
X183051Y84035D02*
X183130Y83957D01*
X183051Y84035D02*
Y91260D01*
X170937Y87429D02*
X180245D01*
X39975Y165157D02*
X40738Y165920D01*
Y166154D01*
X39975Y162317D02*
Y165157D01*
X43479Y163558D02*
X45276Y165354D01*
X42554Y163558D02*
X43479D01*
X42520Y162303D02*
Y163523D01*
X42554Y163558D01*
X39961Y162303D02*
X39975Y162317D01*
X195276Y85827D02*
X204764D01*
X194882Y79921D02*
X200947D01*
X203346Y77522D01*
Y76279D02*
Y77522D01*
X195276Y85827D02*
X196358Y86910D01*
X229331D02*
X230413Y85827D01*
X230807Y79921D02*
X237266D01*
X239665Y77522D01*
Y76279D02*
Y77522D01*
X200098Y143209D02*
X229626D01*
X199016Y142126D02*
X200098Y143209D01*
X196358Y86910D02*
X229331D01*
X255670Y151143D02*
X258169Y153642D01*
X221457Y150886D02*
Y153642D01*
X230709Y149803D02*
X231102D01*
X231730Y149175D01*
Y148782D02*
Y149175D01*
X255670Y146510D02*
Y151143D01*
X216339Y145768D02*
X221457Y150886D01*
X231730Y148782D02*
X235039Y145472D01*
X254633D02*
X255670Y146510D01*
X199016Y145768D02*
X216339D01*
X235039Y145472D02*
X254633D01*
X230315Y143898D02*
X230709D01*
X229626Y143209D02*
X230315Y143898D01*
X17372Y174139D02*
Y177707D01*
X21461Y169291D02*
X22047Y168705D01*
X27165Y167232D02*
X30758Y170825D01*
Y174311D01*
X17372Y177707D02*
X17520Y177854D01*
X37352Y183612D02*
X37402Y183563D01*
X37352Y183612D02*
Y186221D01*
X37303Y186270D02*
X37352Y186221D01*
X18652Y169291D02*
X21461D01*
X17372Y170571D02*
X18652Y169291D01*
X6587Y174139D02*
X17372D01*
Y170965D02*
Y174139D01*
Y170571D02*
Y170965D01*
X11063Y56791D02*
X15315D01*
X4724Y63130D02*
X11063Y56791D01*
X4724Y63130D02*
Y131398D01*
X35886Y115059D02*
X44941D01*
X10984Y115059D02*
X20039D01*
X10984D02*
Y122372D01*
X11841Y123228D01*
X12165Y123228D02*
X12490D01*
X18465D02*
X18465Y123228D01*
X11841D02*
X12165D01*
X12490Y123228D02*
X17453Y128191D01*
Y131065D01*
X18278Y131890D01*
X12303D02*
X12628D01*
X18278D02*
X18602D01*
X11478Y132715D02*
X12303Y131890D01*
X12628D02*
X13453Y132715D01*
X9707D02*
X11478D01*
X13453D02*
Y134516D01*
X14265Y135327D01*
X5118Y137303D02*
X9707Y132715D01*
X14265Y135327D02*
X21154D01*
X4724Y137303D02*
X5118D01*
X35886Y115059D02*
Y122372D01*
X18465Y123228D02*
X36742D01*
X29724Y130571D02*
X35917Y124378D01*
X19193Y131299D02*
X23728D01*
X18602Y131890D02*
X19193Y131299D01*
X23728D02*
X24606Y132178D01*
X29724Y130571D02*
Y139862D01*
X21154Y135327D02*
X22033Y136206D01*
X24606Y132178D02*
Y139862D01*
X32283Y133986D02*
Y139862D01*
X34843Y135250D02*
Y139862D01*
X22033Y136206D02*
Y139848D01*
X22047Y139862D01*
Y162303D02*
Y168705D01*
X24606Y139862D02*
X27165D01*
Y162303D02*
Y167232D01*
X35886Y122372D02*
X36742Y123228D01*
X36742Y123228D01*
Y123228D02*
X37067D01*
X43041D02*
X43366D01*
X61447D01*
X36742D02*
Y123228D01*
X35917Y124053D02*
X36742Y123228D01*
X35917Y124053D02*
Y124378D01*
X41943Y128150D02*
X62825D01*
X32283Y133986D02*
X43041Y123228D01*
X34843Y135250D02*
X41943Y128150D01*
X60591Y115059D02*
X69646D01*
X60591D02*
Y122372D01*
X86221Y115059D02*
Y122372D01*
X60591Y122372D02*
X61447Y123228D01*
X86221Y122372D02*
X87077Y123228D01*
X61447Y123228D02*
X61772D01*
X67746D02*
X68071D01*
X68071Y123228D01*
X87077D01*
X87077Y123228D01*
X62825Y128150D02*
X67746Y123228D01*
X86221Y115059D02*
X95276D01*
D59*
X111713Y191929D02*
X116437D01*
X116535Y191831D01*
X109513Y178248D02*
X110694Y179429D01*
X106496Y178248D02*
X109513D01*
X110694Y179429D02*
X110728D01*
X114935Y155341D02*
Y156227D01*
X113583Y156988D02*
X114173D01*
X114935Y156227D01*
Y155341D02*
X116831Y153445D01*
X81890Y165354D02*
X83366Y163878D01*
X76673Y161122D02*
X76772Y161221D01*
X72441Y161024D02*
X72539Y161122D01*
X76673D01*
X49016Y165354D02*
X81890D01*
X45926Y168444D02*
X49016Y165354D01*
X36740Y168444D02*
X45926D01*
X32283Y163988D02*
X36740Y168444D01*
X32283Y162303D02*
Y163988D01*
X101181Y140354D02*
X103347Y142520D01*
X87402Y140354D02*
X101181D01*
X103347Y142520D02*
Y154626D01*
X78043Y149713D02*
Y154437D01*
Y149713D02*
X87402Y140354D01*
X77165Y155315D02*
X78043Y154437D01*
X76772Y155315D02*
X77165D01*
X87303Y144290D02*
Y160335D01*
X38189Y155315D02*
X76772D01*
X34953Y158551D02*
Y162193D01*
Y158551D02*
X38189Y155315D01*
X34843Y162303D02*
X34953Y162193D01*
X88877Y142717D02*
X100100D01*
X101378Y143995D01*
X87303Y144290D02*
X88877Y142717D01*
X101378Y143995D02*
Y154626D01*
X88681Y177067D02*
X92626D01*
X93701Y178142D02*
Y178248D01*
X92626Y177067D02*
X93701Y178142D01*
X122441Y191831D02*
X128150D01*
X113073Y185721D02*
X115362D01*
X111589Y187205D02*
X113073Y185721D01*
X115362D02*
X116437Y184646D01*
X111221Y187205D02*
X111589D01*
X111481Y182485D02*
Y183106D01*
X116112Y177854D02*
X116437D01*
X111481Y182485D02*
X116112Y177854D01*
X111221Y183366D02*
X111481Y183106D01*
X117837Y186833D02*
X122441Y191437D01*
X116762Y184646D02*
X117837Y185721D01*
X122441Y191437D02*
Y191831D01*
X117837Y185721D02*
Y186833D01*
X116437Y184646D02*
X116762D01*
X116437Y177854D02*
Y184646D01*
X114279Y176779D02*
X115362D01*
X116437Y177854D01*
X111221Y173130D02*
Y173721D01*
X114279Y176779D01*
X105315Y173130D02*
Y176742D01*
X106496Y177923D01*
Y178248D01*
X93701D02*
X100098D01*
X103256Y173221D02*
Y174766D01*
X100098Y177923D02*
Y178248D01*
Y177923D02*
X103256Y174766D01*
Y173221D02*
X103347Y173130D01*
X97441Y150098D02*
Y154626D01*
X83366Y163878D02*
X83760D01*
X87303Y160335D01*
X172835Y147343D02*
X177264Y142913D01*
X172835Y147343D02*
Y147539D01*
X177264Y142913D02*
X181299D01*
X159291Y139665D02*
X166831D01*
X48720Y188583D02*
Y194685D01*
X37402Y177657D02*
X37795D01*
X48720Y188583D01*
X37402Y174459D02*
Y177657D01*
X29724Y166781D02*
X37402Y174459D01*
X29724Y162303D02*
Y166781D01*
X84791Y56752D02*
X86260Y55283D01*
X80149Y56859D02*
X84791D01*
Y56752D02*
Y56859D01*
X83696Y105645D02*
X85595D01*
X91061Y97876D02*
Y100180D01*
X85595Y105645D02*
X91061Y100180D01*
X83327Y105645D02*
X83430Y105747D01*
X62362Y93799D02*
X64419Y91742D01*
X65797D02*
X66004Y91535D01*
X64419Y91742D02*
X65797D01*
X67559Y99901D02*
X70669D01*
X65431Y97876D02*
X67343Y95965D01*
X67559D01*
X70669Y99901D02*
X71653Y100886D01*
X17953Y99901D02*
X18169Y100118D01*
Y101870D01*
X82677Y137787D02*
X83555Y136909D01*
X82677Y137787D02*
Y137795D01*
X83555Y136909D02*
X88976D01*
X166437Y140059D02*
X166831Y139665D01*
X166437Y140059D02*
Y145596D01*
X155059Y135433D02*
X159291Y139665D01*
X155059Y133760D02*
Y135433D01*
X181004Y165453D02*
X181299Y165748D01*
Y157579D02*
Y165748D01*
X83430Y105747D02*
Y106757D01*
X83169Y105118D02*
X83696Y105645D01*
X83430Y106757D02*
X85827Y109153D01*
X57938Y106895D02*
X60197Y109153D01*
X57938Y105379D02*
Y106895D01*
X57677Y105118D02*
X57938Y105379D01*
X33135D02*
Y106796D01*
X32874Y105118D02*
X33135Y105379D01*
Y106796D02*
X35492Y109153D01*
X64921Y56791D02*
X66299Y58169D01*
X74016D01*
X86260Y53976D02*
Y55283D01*
X45935Y99901D02*
X46752Y100718D01*
X85827Y109153D02*
X86221D01*
X42443Y132750D02*
X94809D01*
X117126Y65158D02*
X132667D01*
X42096Y130834D02*
X92985D01*
X37402Y135529D02*
X42096Y130834D01*
X39975Y135218D02*
X42443Y132750D01*
X92985Y130834D02*
X109547Y114272D01*
Y66309D02*
Y114272D01*
X113287Y68996D02*
X117126Y65158D01*
X132648Y65058D02*
X137274Y60433D01*
X130217Y53543D02*
X137106D01*
X130020Y53347D02*
X130217Y53543D01*
X116596Y53543D02*
X123524D01*
X123721Y53347D01*
X137106Y53543D02*
Y59941D01*
X137598Y60433D01*
X116535Y53604D02*
Y59646D01*
Y53604D02*
X116596Y53543D01*
X113287Y68996D02*
Y115748D01*
X109547Y66309D02*
X116211Y59646D01*
X106831Y87599D02*
Y89134D01*
X99114Y129921D02*
X113287Y115748D01*
X137274Y60433D02*
X137598D01*
X116211Y59646D02*
X116535D01*
X176181Y175886D02*
X176442Y176146D01*
X180027Y177468D02*
X181004Y178445D01*
X179929Y177468D02*
X180027D01*
X178607Y176146D02*
X179929Y177468D01*
X176442Y176146D02*
X178607D01*
X181004Y165453D02*
Y165551D01*
X94809Y132750D02*
X97638Y129921D01*
X86417Y134350D02*
X88976Y136909D01*
X42520Y134936D02*
Y139862D01*
X43106Y134350D02*
X86417D01*
X42520Y134936D02*
X43106Y134350D01*
X103051Y92913D02*
X106831Y89134D01*
X103051Y92913D02*
Y93012D01*
X97638Y129921D02*
X99114D01*
X176845Y171850D02*
X181004D01*
X175467Y170472D02*
X176845Y171850D01*
X175098Y170472D02*
X175467D01*
X181004Y192913D02*
X181004Y192913D01*
X181004Y184842D02*
Y192913D01*
Y178445D02*
Y178543D01*
X87992Y93799D02*
X90049Y91742D01*
X77421Y92913D02*
Y93012D01*
X40217Y56791D02*
X41724Y58299D01*
X48457D01*
X48524Y58366D01*
X56496Y87599D02*
Y89134D01*
X52717Y92913D02*
X56496Y89134D01*
X41092Y91742D02*
X41299Y91535D01*
X39714Y91742D02*
X41092D01*
X37657Y93799D02*
X39714Y91742D01*
X81201Y87599D02*
Y89134D01*
X77421Y92913D02*
X81201Y89134D01*
X52717Y92913D02*
Y93012D01*
X42638Y95965D02*
X42854D01*
X40726Y97876D02*
X42638Y95965D01*
X40726Y97876D02*
Y99687D01*
X42854Y99902D02*
X43071Y100118D01*
Y101870D01*
X35886Y104527D02*
X40726Y99687D01*
X43071Y101870D02*
X44941Y103740D01*
X52716Y99311D02*
Y108661D01*
X44941Y103740D02*
Y109153D01*
X35886Y104527D02*
Y109153D01*
X67150Y107052D02*
X69252Y109153D01*
X67776Y100492D02*
Y101870D01*
X60591Y104527D02*
X65431Y99687D01*
X67776Y101870D02*
X69646Y103740D01*
X77421Y99311D02*
Y108661D01*
X69646Y103740D02*
Y109153D01*
X60591Y104527D02*
Y109153D01*
X65431Y97876D02*
Y99687D01*
X16191Y91742D02*
X16398Y91535D01*
X14813Y91742D02*
X16191D01*
X12756Y93799D02*
X14813Y91742D01*
X17736Y95964D02*
X17953D01*
X15824Y97876D02*
X17736Y95964D01*
X15824Y97876D02*
Y99687D01*
X10984Y104527D02*
X15824Y99687D01*
X7795Y105905D02*
X9567Y107677D01*
X10984Y104527D02*
Y109153D01*
X9508Y107579D02*
Y107677D01*
X9713Y107882D01*
Y108275D01*
X31594Y87598D02*
Y89134D01*
X27815Y92913D02*
X31594Y89134D01*
X27815Y92913D02*
Y93012D01*
X17544Y107052D02*
X19646Y109153D01*
X18169Y101870D02*
X20039Y103740D01*
X27815Y99311D02*
Y108661D01*
X20039Y103740D02*
Y109153D01*
X42446Y107052D02*
X44547Y109153D01*
X52716Y108661D02*
X52716Y108661D01*
X44547Y109153D02*
X44941D01*
X60197D02*
X60591D01*
X55718Y114518D02*
X55768Y114469D01*
X52766Y114518D02*
X55718D01*
X52716Y114567D02*
X52766Y114518D01*
X9713Y108275D02*
X10591Y109153D01*
X10984D01*
X27815Y108661D02*
X27815Y108661D01*
X19646Y109153D02*
X20039D01*
X35492Y109153D02*
X35886D01*
X30817Y114518D02*
X30866Y114469D01*
X27864Y114518D02*
X30817D01*
X27815Y114567D02*
X27864Y114518D01*
X19488Y162303D02*
Y162924D01*
X19223Y163189D02*
X19488Y162924D01*
X12697Y163189D02*
X19223D01*
X12697D02*
Y163514D01*
X11467Y164744D02*
X12697Y163514D01*
X11467Y164744D02*
Y170965D01*
X77421Y108661D02*
X77421Y108661D01*
X69252Y109153D02*
X69646D01*
X80423Y114518D02*
X80472Y114469D01*
X77470Y114518D02*
X80423D01*
X77421Y114567D02*
X77470Y114518D01*
X39975Y135218D02*
Y139848D01*
X37402Y135529D02*
Y139862D01*
X39961D02*
X39975Y139848D01*
X92972Y95965D02*
X93189D01*
X91061Y97876D02*
X92972Y95965D01*
X93189Y99902D02*
Y101654D01*
X95276Y103740D01*
X91427Y91742D02*
X91634Y91536D01*
X90049Y91742D02*
X91427D01*
X103051Y99311D02*
Y108661D01*
X95276Y103740D02*
Y109153D01*
X92780Y107052D02*
X94882Y109153D01*
X103051Y108661D02*
X103051Y108661D01*
X94882Y109153D02*
X95276D01*
X103051Y114567D02*
X103100Y114518D01*
X106053D02*
X106102Y114469D01*
X103100Y114518D02*
X106053D01*
D60*
X62362Y93799D02*
Y97815D01*
X62402Y81791D02*
X64921D01*
X62362Y81831D02*
X62402Y81791D01*
X62362Y81831D02*
Y93799D01*
X21525Y89597D02*
X27559Y83563D01*
X21220Y98121D02*
Y100837D01*
X21525Y89597D02*
Y97816D01*
X21220Y98121D02*
X21525Y97816D01*
X248721Y101870D02*
X248721Y101870D01*
X82037Y49754D02*
X85187Y52903D01*
X86260Y53976D01*
X212402Y101870D02*
X212402Y101870D01*
X71653Y89272D02*
Y100886D01*
X87992Y93799D02*
Y97815D01*
X41398Y38937D02*
Y42185D01*
X53209Y38937D02*
Y42185D01*
X41398D02*
X48947Y49734D01*
X53209Y42185D02*
X60777Y49754D01*
X48947Y49734D02*
X53612D01*
X35925Y48524D02*
Y56752D01*
X53612Y49734D02*
X60600Y56722D01*
X35925Y56752D02*
X35965Y56791D01*
X40217D01*
X52559Y64764D02*
X60600Y56722D01*
X52559Y64764D02*
Y82972D01*
X37697Y81791D02*
X40217D01*
X37657Y81831D02*
X37697Y81791D01*
X46752Y88779D02*
X52559Y82972D01*
X37657Y81831D02*
Y93799D01*
X65020Y38937D02*
X85197D01*
X60777Y49754D02*
X82037D01*
X87402Y57185D02*
Y67224D01*
X77756Y76870D02*
X87402Y67224D01*
X77756Y76870D02*
Y83169D01*
X88032Y81791D02*
X90551D01*
X87992Y81831D02*
X88032Y81791D01*
X71653Y89272D02*
X77756Y83169D01*
X87992Y81831D02*
Y93799D01*
X46752Y88779D02*
Y100718D01*
X37657Y93799D02*
Y97815D01*
X17776Y38937D02*
Y56653D01*
X12795Y81791D02*
X15315D01*
X12756Y81831D02*
X12795Y81791D01*
X12756Y81831D02*
Y93799D01*
Y97815D01*
X29587Y38937D02*
Y42185D01*
X35925Y48524D01*
X27559Y65197D02*
X35965Y56791D01*
X27559Y65197D02*
Y83563D01*
X96761Y88770D02*
Y100532D01*
X96457Y100837D02*
X96761Y100532D01*
X85197Y38937D02*
X100689Y54429D01*
Y84842D01*
X96761Y88770D02*
X100689Y84842D01*
D61*
X247996Y53185D02*
Y64858D01*
X247960Y65209D02*
X248721Y65969D01*
X247960Y64894D02*
Y65209D01*
X248721Y65969D02*
Y70472D01*
X211370Y76870D02*
X220866D01*
X221457Y76279D01*
X224374Y61024D02*
Y64858D01*
Y53185D02*
Y61024D01*
X224409D01*
X224410Y61024D01*
X255870Y53185D02*
Y64858D01*
X255834Y64894D02*
X255870Y64858D01*
Y53185D02*
X255906Y53150D01*
X247960Y64894D02*
X247996Y64858D01*
Y53185D02*
X248031Y53150D01*
X240122Y53185D02*
Y64858D01*
X240086Y64894D02*
X240122Y64858D01*
Y53185D02*
X240158Y53150D01*
X232248Y53185D02*
Y64858D01*
X232212Y64894D02*
X232248Y64858D01*
Y53185D02*
X232283Y53150D01*
X224374Y53185D02*
X224410Y53150D01*
X224338Y64894D02*
X224374Y64858D01*
X251969Y11811D02*
X255906D01*
X248031D02*
X251969D01*
X244094D02*
X248031D01*
X251969Y17717D02*
X255906D01*
X248031D02*
X251969D01*
X244094D02*
X248031D01*
X251969Y23622D02*
X255906D01*
X248031D02*
X251969D01*
X244094D02*
X248031D01*
X251969Y29528D02*
X255906D01*
X248031D02*
X251969D01*
X244094D02*
X248031D01*
X220571Y25689D02*
Y41240D01*
X143012Y53150D02*
X208662D01*
X220571Y41240D01*
Y25689D02*
X223721Y22539D01*
X235433D01*
D62*
X24606Y162303D02*
Y176969D01*
X17520Y184055D02*
X24606Y176969D01*
D63*
Y187620D01*
D64*
X26624Y192027D02*
D03*
D65*
X48720Y194685D02*
D03*
D66*
X38721D02*
D03*
D67*
X168110Y186476D02*
D03*
X132677D02*
D03*
D68*
X144488Y194193D02*
D03*
D69*
X156299D02*
D03*
D70*
X192342Y167165D02*
D03*
Y177165D02*
D03*
Y187165D02*
D03*
Y197165D02*
D03*
X222342Y167165D02*
D03*
Y177165D02*
D03*
Y187165D02*
D03*
Y197165D02*
D03*
X273150Y167323D02*
D03*
Y177323D02*
D03*
Y187323D02*
D03*
Y197323D02*
D03*
X303150Y167323D02*
D03*
Y177323D02*
D03*
Y187323D02*
D03*
Y197323D02*
D03*
X151102Y37874D02*
D03*
X161102D02*
D03*
X171102D02*
D03*
X181102D02*
D03*
X151102Y7874D02*
D03*
X161102D02*
D03*
X171102D02*
D03*
X181102D02*
D03*
X273150Y49213D02*
D03*
Y59213D02*
D03*
Y69213D02*
D03*
Y79213D02*
D03*
X303150Y49213D02*
D03*
Y59213D02*
D03*
Y69213D02*
D03*
Y79213D02*
D03*
D71*
X37225Y165690D02*
D03*
X94488Y200396D02*
D03*
X110236D02*
D03*
X102362D02*
D03*
X88583Y183071D02*
D03*
Y188976D02*
D03*
Y194882D02*
D03*
X132283Y128347D02*
D03*
X126378D02*
D03*
X144095D02*
D03*
X138189D02*
D03*
X139764Y114173D02*
D03*
Y108268D02*
D03*
Y102362D02*
D03*
X145669Y114173D02*
D03*
Y108268D02*
D03*
Y102362D02*
D03*
X151575Y114173D02*
D03*
Y108268D02*
D03*
Y102362D02*
D03*
X157480Y114173D02*
D03*
Y108268D02*
D03*
Y102362D02*
D03*
X163386D02*
D03*
Y108268D02*
D03*
Y114173D02*
D03*
X169291Y102362D02*
D03*
Y108268D02*
D03*
Y114173D02*
D03*
X111713Y191929D02*
D03*
X116831Y153445D02*
D03*
X72441Y161024D02*
D03*
X97933Y145472D02*
D03*
X83465Y153445D02*
D03*
X91240Y156595D02*
D03*
X102362Y161417D02*
D03*
X106299D02*
D03*
Y165354D02*
D03*
X102362D02*
D03*
X116240Y172835D02*
D03*
X111221Y187205D02*
D03*
Y183366D02*
D03*
X128150Y191831D02*
D03*
X88681Y177067D02*
D03*
X132382Y167618D02*
D03*
X116929Y164567D02*
D03*
X110728Y179429D02*
D03*
X150000Y128347D02*
D03*
X175492Y123524D02*
D03*
X172835Y147539D02*
D03*
X163681Y154035D02*
D03*
X112205Y55118D02*
D03*
X139627Y72216D02*
D03*
X157480Y61024D02*
D03*
X151575Y64961D02*
D03*
X157480D02*
D03*
Y68898D02*
D03*
X151575D02*
D03*
X157480Y72835D02*
D03*
X151575D02*
D03*
X145669D02*
D03*
X33465Y151575D02*
D03*
X27559D02*
D03*
X21654D02*
D03*
X9843Y147638D02*
D03*
X3937Y157480D02*
D03*
Y151575D02*
D03*
X29503Y200812D02*
D03*
X25566D02*
D03*
X28543Y191929D02*
D03*
X24606Y194882D02*
D03*
X80149Y56859D02*
D03*
X66004Y91535D02*
D03*
X24606Y191929D02*
D03*
X28543Y194882D02*
D03*
Y188976D02*
D03*
X24606D02*
D03*
X166437Y145596D02*
D03*
X148917Y171358D02*
D03*
X155807D02*
D03*
X143602Y160827D02*
D03*
X174114Y201476D02*
D03*
X215846Y188976D02*
D03*
X211910Y171260D02*
D03*
X215846D02*
D03*
X204035D02*
D03*
X211910Y194882D02*
D03*
X200098D02*
D03*
X207972Y177165D02*
D03*
Y188976D02*
D03*
X200098D02*
D03*
X204035Y194882D02*
D03*
X211910Y183071D02*
D03*
X215846D02*
D03*
X200098D02*
D03*
X207972Y171260D02*
D03*
X204035Y177165D02*
D03*
X211910Y188976D02*
D03*
X207972Y194882D02*
D03*
X215846D02*
D03*
X211910Y177165D02*
D03*
X204035Y188976D02*
D03*
X207972Y183071D02*
D03*
X215846Y177165D02*
D03*
X200098D02*
D03*
Y171260D02*
D03*
X204035Y183071D02*
D03*
X216535Y135827D02*
D03*
X212469Y124024D02*
D03*
X204724Y135827D02*
D03*
Y124016D02*
D03*
X208661D02*
D03*
X216535D02*
D03*
X208661Y135827D02*
D03*
X220472Y124016D02*
D03*
X212469Y135836D02*
D03*
X220472Y135827D02*
D03*
X177165Y17717D02*
D03*
X157480D02*
D03*
X173228D02*
D03*
X153543D02*
D03*
X161417D02*
D03*
X181102D02*
D03*
X165354D02*
D03*
X169291D02*
D03*
X177165Y23622D02*
D03*
X157480D02*
D03*
X165354D02*
D03*
X173228D02*
D03*
X161417D02*
D03*
X169291D02*
D03*
X181102D02*
D03*
X153543D02*
D03*
X181102Y29528D02*
D03*
X173228D02*
D03*
X177165D02*
D03*
X153543D02*
D03*
X157480D02*
D03*
X161417D02*
D03*
X169291D02*
D03*
X165354D02*
D03*
X69193Y138681D02*
D03*
X63189Y170965D02*
D03*
X63779Y138779D02*
D03*
X69193Y169980D02*
D03*
X251969Y112205D02*
D03*
X255906Y100394D02*
D03*
X248031Y112205D02*
D03*
X251969Y100394D02*
D03*
X248031D02*
D03*
X244094D02*
D03*
X240158Y112205D02*
D03*
X244094D02*
D03*
X255906D02*
D03*
X240158Y100394D02*
D03*
X83169Y105118D02*
D03*
X57677D02*
D03*
X32874D02*
D03*
X24409Y58268D02*
D03*
X74016Y58169D02*
D03*
X8760Y177854D02*
D03*
X148819Y60532D02*
D03*
X122539Y70768D02*
D03*
X92126Y124902D02*
D03*
X240158Y165354D02*
D03*
Y171260D02*
D03*
Y177165D02*
D03*
Y188976D02*
D03*
Y194882D02*
D03*
Y200787D02*
D03*
X244094D02*
D03*
Y194882D02*
D03*
Y188976D02*
D03*
Y183071D02*
D03*
Y177165D02*
D03*
Y171260D02*
D03*
Y165354D02*
D03*
X190945Y82677D02*
D03*
X255906Y124016D02*
D03*
Y135827D02*
D03*
X251969Y124016D02*
D03*
Y135827D02*
D03*
X248031Y124016D02*
D03*
Y135827D02*
D03*
X244094Y124016D02*
D03*
Y135827D02*
D03*
X240158Y124016D02*
D03*
Y135827D02*
D03*
X234252Y100394D02*
D03*
Y112205D02*
D03*
Y124016D02*
D03*
Y135827D02*
D03*
X230315Y100394D02*
D03*
Y112205D02*
D03*
Y124016D02*
D03*
Y135827D02*
D03*
X226378Y100394D02*
D03*
Y112205D02*
D03*
Y124016D02*
D03*
Y135827D02*
D03*
X220472Y100394D02*
D03*
Y112205D02*
D03*
X216535Y100394D02*
D03*
Y112205D02*
D03*
X212469Y100402D02*
D03*
Y112214D02*
D03*
X208661Y100394D02*
D03*
Y112205D02*
D03*
X204724Y100394D02*
D03*
Y112205D02*
D03*
X190945Y7874D02*
D03*
Y15748D02*
D03*
Y23622D02*
D03*
Y27559D02*
D03*
X194882Y23622D02*
D03*
Y19685D02*
D03*
Y15748D02*
D03*
X190945Y19685D02*
D03*
Y11811D02*
D03*
Y31496D02*
D03*
X194882Y27559D02*
D03*
Y31496D02*
D03*
X190945Y35433D02*
D03*
X194882Y11811D02*
D03*
Y7874D02*
D03*
Y35433D02*
D03*
X255906Y11811D02*
D03*
X251969D02*
D03*
X244094D02*
D03*
X248031D02*
D03*
X255906Y17717D02*
D03*
X251969D02*
D03*
X244094D02*
D03*
X248031D02*
D03*
X224410Y53150D02*
D03*
X232283D02*
D03*
X240158D02*
D03*
X248031D02*
D03*
X255906D02*
D03*
X224410Y57087D02*
D03*
X232283D02*
D03*
X240158D02*
D03*
X248031D02*
D03*
X255906D02*
D03*
X224410Y61024D02*
D03*
X232283D02*
D03*
X240158D02*
D03*
X248031D02*
D03*
X255906D02*
D03*
X255834Y64894D02*
D03*
X247960D02*
D03*
X240086D02*
D03*
X232212D02*
D03*
X224338D02*
D03*
X244094Y29528D02*
D03*
Y23622D02*
D03*
X248031D02*
D03*
Y29528D02*
D03*
X251969D02*
D03*
Y23622D02*
D03*
X255906D02*
D03*
Y29528D02*
D03*
X176870Y78937D02*
D03*
X11891Y154429D02*
D03*
X106831Y87599D02*
D03*
X176181Y175886D02*
D03*
X3937Y192913D02*
D03*
X7874D02*
D03*
Y196850D02*
D03*
X19685Y192913D02*
D03*
X15748D02*
D03*
X11811D02*
D03*
Y196850D02*
D03*
X15748D02*
D03*
X19685D02*
D03*
Y200787D02*
D03*
X15748D02*
D03*
X11811D02*
D03*
X30709Y182973D02*
D03*
X181201Y67913D02*
D03*
X88976Y136909D02*
D03*
X175098Y170472D02*
D03*
X40738Y166154D02*
D03*
X45276Y165354D02*
D03*
X119193Y70866D02*
D03*
X48524Y58366D02*
D03*
X31594Y87598D02*
D03*
X56496Y87599D02*
D03*
X81201D02*
D03*
X16398Y91535D02*
D03*
X41299Y91535D02*
D03*
X91634Y91536D02*
D03*
X7795Y105905D02*
D03*
X8760Y184252D02*
D03*
X17284Y106201D02*
D03*
X30866Y114469D02*
D03*
X37303Y186270D02*
D03*
X42185Y106201D02*
D03*
X55768Y114469D02*
D03*
X66890Y106201D02*
D03*
X80472Y114469D02*
D03*
X92520Y106201D02*
D03*
X106102Y114469D02*
D03*
M02*
