G04*
G04 #@! TF.GenerationSoftware,Altium Limited,Altium Designer,21.1.0 (24)*
G04*
G04 Layer_Physical_Order=4*
G04 Layer_Color=16711680*
%FSLAX25Y25*%
%MOIN*%
G70*
G04*
G04 #@! TF.SameCoordinates,8E11B689-D9C9-4360-AAA9-F91F00066FD3*
G04*
G04*
G04 #@! TF.FilePolarity,Positive*
G04*
G01*
G75*
%ADD13C,0.00787*%
%ADD39C,0.27559*%
%ADD40C,0.07874*%
%ADD47C,0.11811*%
%ADD58C,0.01500*%
%ADD59C,0.01000*%
%ADD65R,0.05906X0.05906*%
%ADD66C,0.05906*%
%ADD67C,0.02657*%
%ADD68C,0.07205*%
%ADD69R,0.07205X0.07205*%
%ADD70C,0.07087*%
%ADD71C,0.02362*%
%ADD72R,0.02323X0.01772*%
%ADD73C,0.05906*%
G36*
X185039Y92355D02*
X129727D01*
X128477Y93605D01*
Y117520D01*
X128349Y118496D01*
X127972Y119406D01*
X127372Y120187D01*
X114282Y133278D01*
X113500Y133877D01*
X112591Y134254D01*
X111614Y134383D01*
X61518D01*
X60268Y135632D01*
Y165354D01*
X60140Y166331D01*
X59763Y167241D01*
X59164Y168022D01*
X50404Y176782D01*
X49622Y177381D01*
X48713Y177758D01*
X47736Y177887D01*
X25283D01*
X20406Y182763D01*
Y188174D01*
X21654D01*
X21961Y188235D01*
X22181Y188382D01*
X22263Y188400D01*
X22754Y188305D01*
X22938Y187861D01*
X23491Y187308D01*
X24215Y187008D01*
X24998D01*
X25721Y187308D01*
X26275Y187861D01*
X26304Y187932D01*
X26845D01*
X26875Y187861D01*
X27428Y187308D01*
X28152Y187008D01*
X28935D01*
X29658Y187308D01*
X30212Y187861D01*
X30512Y188585D01*
Y189368D01*
X30212Y190092D01*
X29851Y190453D01*
X30212Y190814D01*
X30512Y191538D01*
Y192321D01*
X30212Y193044D01*
X29851Y193405D01*
X30212Y193767D01*
X30512Y194490D01*
Y195273D01*
X30212Y195997D01*
X29658Y196551D01*
X28935Y196850D01*
X28152D01*
X27428Y196551D01*
X26875Y195997D01*
X26845Y195927D01*
X26304D01*
X26275Y195997D01*
X25721Y196551D01*
X24998Y196850D01*
X24215D01*
X23491Y196551D01*
X22956Y196016D01*
X22857Y196021D01*
X22456Y196142D01*
Y203119D01*
X22956Y203119D01*
X64573D01*
X64692Y202619D01*
X62726Y201617D01*
X60844Y200250D01*
X59199Y198605D01*
X57832Y196722D01*
X56776Y194650D01*
X56057Y192437D01*
X55693Y190140D01*
Y189567D01*
X85252D01*
Y190140D01*
X84888Y192437D01*
X84169Y194650D01*
X83113Y196722D01*
X81746Y198605D01*
X80101Y200250D01*
X78219Y201617D01*
X76253Y202619D01*
X76372Y203119D01*
X185039Y203119D01*
Y92355D01*
D02*
G37*
G36*
X11811Y203119D02*
X21654D01*
X21654Y188976D01*
X1606Y188976D01*
Y192913D01*
X1606Y192913D01*
Y193582D01*
X1780Y194909D01*
X2127Y196201D01*
X2638Y197437D01*
X3307Y198595D01*
X4122Y199657D01*
X5068Y200603D01*
X6129Y201417D01*
X7288Y202086D01*
X8524Y202598D01*
X9816Y202944D01*
X11142Y203119D01*
X11811D01*
X11811Y203119D01*
D02*
G37*
G36*
X309082Y202944D02*
X310374Y202598D01*
X311610Y202086D01*
X312769Y201417D01*
X313830Y200603D01*
X314776Y199657D01*
X315590Y198595D01*
X316259Y197437D01*
X316771Y196201D01*
X317117Y194909D01*
X317292Y193582D01*
Y192913D01*
Y161417D01*
X262795Y161417D01*
Y203119D01*
X307087D01*
X307087Y203119D01*
X307755D01*
X309082Y202944D01*
D02*
G37*
G36*
X248238Y147630D02*
X187312D01*
X187312Y203119D01*
X248238Y203119D01*
Y147630D01*
D02*
G37*
G36*
X260500Y92607D02*
X260248Y92355D01*
X200752D01*
X200663Y137013D01*
X203444Y139800D01*
X260500D01*
Y92607D01*
D02*
G37*
G36*
X12861Y181201D02*
X12990Y180224D01*
X13367Y179315D01*
X13966Y178533D01*
X21053Y171447D01*
X21834Y170847D01*
X22744Y170470D01*
X23720Y170342D01*
X46174D01*
X52724Y163792D01*
Y134070D01*
X52852Y133093D01*
X53229Y132183D01*
X53829Y131402D01*
X57288Y127943D01*
X58069Y127343D01*
X58979Y126966D01*
X59955Y126838D01*
X110052D01*
X120932Y115957D01*
Y92042D01*
X121061Y91066D01*
X121438Y90156D01*
X122037Y89375D01*
X125497Y85915D01*
X126278Y85316D01*
X127188Y84939D01*
X128164Y84810D01*
X185039D01*
Y84245D01*
X118661D01*
X116823Y86082D01*
Y116142D01*
X116704Y116742D01*
X116364Y117250D01*
X111738Y121876D01*
X111230Y122216D01*
X110630Y122335D01*
X80571D01*
X79947Y122959D01*
X79439Y123299D01*
X78839Y123418D01*
X58425D01*
X46843Y135000D01*
Y164138D01*
X46944Y164239D01*
X47244Y164963D01*
Y165746D01*
X46944Y166469D01*
X46391Y167023D01*
X45667Y167323D01*
X44884D01*
X44161Y167023D01*
X43607Y166469D01*
X43307Y165746D01*
Y164963D01*
X43607Y164239D01*
X43708Y164138D01*
Y134350D01*
X43827Y133750D01*
X44167Y133242D01*
X54900Y122509D01*
X54709Y122047D01*
X50642D01*
X42305Y130384D01*
Y164937D01*
X42407Y165039D01*
X42707Y165762D01*
Y166545D01*
X42407Y167269D01*
X41853Y167823D01*
X41129Y168122D01*
X40346D01*
X39623Y167823D01*
X39069Y167269D01*
X38770Y166545D01*
Y165762D01*
X39069Y165039D01*
X39170Y164937D01*
Y129735D01*
X39290Y129135D01*
X39630Y128626D01*
X45746Y122509D01*
X45555Y122047D01*
X1606D01*
Y188173D01*
X12861Y188174D01*
Y181201D01*
D02*
G37*
G36*
X113688Y115492D02*
Y85433D01*
X113808Y84833D01*
X114147Y84325D01*
X116903Y81569D01*
X117412Y81229D01*
X118012Y81110D01*
X175135D01*
X175368Y80610D01*
X175279Y80505D01*
X150790D01*
X150295Y80603D01*
X115512D01*
X112493Y83622D01*
Y115981D01*
X112993Y116188D01*
X113688Y115492D01*
D02*
G37*
G36*
X185039Y62992D02*
X169291Y47244D01*
X137795D01*
Y43307D01*
X129921Y35433D01*
X110236D01*
Y80791D01*
X110698Y80983D01*
X113754Y77927D01*
X114262Y77587D01*
X114862Y77468D01*
X149899D01*
X150394Y77369D01*
X175654D01*
X175755Y77268D01*
X176479Y76968D01*
X177262D01*
X177985Y77268D01*
X178539Y77822D01*
X178839Y78545D01*
Y79329D01*
X178539Y80052D01*
X177985Y80606D01*
X177976Y80610D01*
X178075Y81110D01*
X185039D01*
Y62992D01*
D02*
G37*
G36*
X311024Y43307D02*
X265748Y43307D01*
X265748Y86614D01*
X311024Y86614D01*
X311024Y43307D01*
D02*
G37*
G36*
X141732Y45276D02*
X208661D01*
Y1606D01*
X208661Y1606D01*
X141732D01*
X141732Y45276D01*
X141732Y45276D01*
D02*
G37*
G36*
X260728Y1575D02*
X230217D01*
Y37500D01*
X218209Y49508D01*
Y69980D01*
X260728D01*
Y1575D01*
D02*
G37*
%LPC*%
G36*
X39311Y198619D02*
Y195276D01*
X42654D01*
X42404Y196211D01*
X41884Y197112D01*
X41148Y197848D01*
X40246Y198368D01*
X39311Y198619D01*
D02*
G37*
G36*
X38130D02*
X37195Y198368D01*
X36293Y197848D01*
X35557Y197112D01*
X35037Y196211D01*
X34786Y195276D01*
X38130D01*
Y198619D01*
D02*
G37*
G36*
X52461Y198425D02*
X44980D01*
Y190945D01*
X52461D01*
Y198425D01*
D02*
G37*
G36*
X42654Y194095D02*
X39311D01*
Y190751D01*
X40246Y191002D01*
X41148Y191522D01*
X41884Y192258D01*
X42404Y193159D01*
X42654Y194095D01*
D02*
G37*
G36*
X38130D02*
X34786D01*
X35037Y193159D01*
X35557Y192258D01*
X36293Y191522D01*
X37195Y191002D01*
X38130Y190751D01*
Y194095D01*
D02*
G37*
G36*
X128541Y193799D02*
X127758D01*
X127034Y193500D01*
X126481Y192946D01*
X126181Y192222D01*
Y191439D01*
X126481Y190716D01*
X127034Y190162D01*
X127758Y189862D01*
X128541D01*
X129265Y190162D01*
X129818Y190716D01*
X130118Y191439D01*
Y192222D01*
X129818Y192946D01*
X129265Y193500D01*
X128541Y193799D01*
D02*
G37*
G36*
X160689Y198583D02*
X151909D01*
Y189803D01*
X160689D01*
Y198583D01*
D02*
G37*
G36*
X145066D02*
X143910D01*
X142794Y198284D01*
X141793Y197706D01*
X140975Y196888D01*
X140398Y195887D01*
X140098Y194771D01*
Y193615D01*
X140398Y192499D01*
X140975Y191498D01*
X141793Y190680D01*
X142794Y190102D01*
X143910Y189803D01*
X145066D01*
X146183Y190102D01*
X147184Y190680D01*
X148001Y191498D01*
X148579Y192499D01*
X148878Y193615D01*
Y194771D01*
X148579Y195887D01*
X148001Y196888D01*
X147184Y197706D01*
X146183Y198284D01*
X145066Y198583D01*
D02*
G37*
G36*
X168597Y190176D02*
X167623D01*
X166682Y189924D01*
X165838Y189437D01*
X165149Y188748D01*
X164662Y187905D01*
X164410Y186963D01*
Y185989D01*
X164662Y185048D01*
X165149Y184204D01*
X165838Y183516D01*
X166682Y183028D01*
X167623Y182776D01*
X168597D01*
X169538Y183028D01*
X170382Y183516D01*
X171071Y184204D01*
X171558Y185048D01*
X171810Y185989D01*
Y186963D01*
X171558Y187905D01*
X171071Y188748D01*
X170382Y189437D01*
X169538Y189924D01*
X168597Y190176D01*
D02*
G37*
G36*
X133164D02*
X132190D01*
X131249Y189924D01*
X130405Y189437D01*
X129716Y188748D01*
X129229Y187905D01*
X128977Y186963D01*
Y185989D01*
X129229Y185048D01*
X129716Y184204D01*
X130405Y183516D01*
X131249Y183028D01*
X132190Y182776D01*
X133164D01*
X134105Y183028D01*
X134949Y183516D01*
X135638Y184204D01*
X136125Y185048D01*
X136377Y185989D01*
Y186963D01*
X136125Y187905D01*
X135638Y188748D01*
X134949Y189437D01*
X134105Y189924D01*
X133164Y190176D01*
D02*
G37*
G36*
X89073Y179035D02*
X88289D01*
X87566Y178736D01*
X87012Y178182D01*
X86713Y177459D01*
Y176675D01*
X87012Y175952D01*
X87566Y175398D01*
X88289Y175098D01*
X89073D01*
X89796Y175398D01*
X90350Y175952D01*
X90650Y176675D01*
Y177459D01*
X90350Y178182D01*
X89796Y178736D01*
X89073Y179035D01*
D02*
G37*
G36*
X85252Y188386D02*
X71063D01*
Y174197D01*
X71636D01*
X73933Y174561D01*
X76146Y175280D01*
X78219Y176336D01*
X80101Y177703D01*
X81746Y179348D01*
X83113Y181230D01*
X84169Y183303D01*
X84888Y185515D01*
X85252Y187813D01*
Y188386D01*
D02*
G37*
G36*
X69882D02*
X55693D01*
Y187813D01*
X56057Y185515D01*
X56776Y183303D01*
X57832Y181230D01*
X59199Y179348D01*
X60844Y177703D01*
X62726Y176336D01*
X64799Y175280D01*
X67012Y174561D01*
X69309Y174197D01*
X69882D01*
Y188386D01*
D02*
G37*
G36*
X112104Y193898D02*
X111321D01*
X110598Y193598D01*
X110044Y193044D01*
X109744Y192321D01*
Y191817D01*
X107241Y189314D01*
X106957Y188888D01*
X106857Y188386D01*
Y182183D01*
X106957Y181681D01*
X107241Y181255D01*
X108760Y179736D01*
Y179038D01*
X109060Y178314D01*
X109416Y177958D01*
Y167528D01*
X109516Y167026D01*
X109800Y166600D01*
X117132Y159269D01*
X117558Y158984D01*
X118060Y158884D01*
X118984D01*
X119121Y158373D01*
X119743Y157296D01*
X120623Y156416D01*
X121700Y155794D01*
X122902Y155472D01*
X124146D01*
X125347Y155794D01*
X126425Y156416D01*
X127304Y157296D01*
X127926Y158373D01*
X128248Y159575D01*
Y160819D01*
X127926Y162020D01*
X127304Y163098D01*
X126425Y163977D01*
X125347Y164599D01*
X125216Y164634D01*
X125282Y165134D01*
X128013D01*
X128013Y165134D01*
X128474Y165226D01*
X128865Y165487D01*
X130151Y166773D01*
X130641Y166676D01*
X130713Y166503D01*
X131267Y165949D01*
X131990Y165650D01*
X132773D01*
X133497Y165949D01*
X133961Y166414D01*
X172244D01*
X172244Y166414D01*
X172705Y166506D01*
X173096Y166767D01*
X174833Y168504D01*
X175490D01*
X176214Y168804D01*
X176767Y169357D01*
X177067Y170081D01*
Y170864D01*
X176767Y171588D01*
X176214Y172141D01*
X175490Y172441D01*
X174707D01*
X173983Y172141D01*
X173430Y171588D01*
X173130Y170864D01*
Y170207D01*
X171745Y168822D01*
X133961D01*
X133497Y169287D01*
X133324Y169359D01*
X133227Y169849D01*
X135402Y172024D01*
X142520D01*
X142520Y172024D01*
X142981Y172116D01*
X143371Y172377D01*
X145676Y174682D01*
X174601D01*
X175066Y174217D01*
X175789Y173917D01*
X176573D01*
X177296Y174217D01*
X177850Y174771D01*
X178150Y175494D01*
Y176277D01*
X177850Y177001D01*
X177296Y177555D01*
X176573Y177854D01*
X175789D01*
X175066Y177555D01*
X174601Y177090D01*
X145177D01*
X144716Y176998D01*
X144326Y176737D01*
X144326Y176737D01*
X142021Y174433D01*
X134903D01*
X134903Y174433D01*
X134442Y174341D01*
X134052Y174080D01*
X134052Y174080D01*
X127515Y167543D01*
X118701D01*
X118240Y167451D01*
X117849Y167190D01*
X117195Y166535D01*
X116538D01*
X115814Y166236D01*
X115260Y165682D01*
X115190Y165511D01*
X114699Y165414D01*
X112041Y168072D01*
Y177958D01*
X112397Y178314D01*
X112697Y179038D01*
Y179821D01*
X112397Y180544D01*
X111946Y180995D01*
X111964Y181420D01*
X112019Y181566D01*
X112336Y181697D01*
X112889Y182251D01*
X113189Y182975D01*
Y183758D01*
X112889Y184481D01*
X112336Y185035D01*
X112334Y185035D01*
Y185535D01*
X112336Y185536D01*
X112889Y186090D01*
X113189Y186813D01*
Y187596D01*
X112889Y188320D01*
X112336Y188874D01*
X111613Y189173D01*
X111495Y189446D01*
X111415Y189630D01*
X111679Y189961D01*
X112104D01*
X112828Y190260D01*
X113381Y190814D01*
X113681Y191538D01*
Y192321D01*
X113381Y193044D01*
X112828Y193598D01*
X112104Y193898D01*
D02*
G37*
G36*
X69585Y171949D02*
X68801D01*
X68078Y171649D01*
X67524Y171095D01*
X67224Y170372D01*
Y169589D01*
X67524Y168865D01*
X67880Y168509D01*
Y140152D01*
X67524Y139796D01*
X67224Y139073D01*
Y138290D01*
X67524Y137566D01*
X68078Y137012D01*
X68801Y136713D01*
X69585D01*
X70308Y137012D01*
X70862Y137566D01*
X71161Y138290D01*
Y139073D01*
X70862Y139796D01*
X70505Y140152D01*
Y159468D01*
X71005Y159675D01*
X71326Y159355D01*
X72049Y159055D01*
X72833D01*
X73556Y159355D01*
X74110Y159908D01*
X74409Y160632D01*
Y161415D01*
X74110Y162139D01*
X73556Y162692D01*
X72833Y162992D01*
X72049D01*
X71326Y162692D01*
X71005Y162372D01*
X70505Y162579D01*
Y168509D01*
X70862Y168865D01*
X71161Y169589D01*
Y170372D01*
X70862Y171095D01*
X70308Y171649D01*
X69585Y171949D01*
D02*
G37*
G36*
X164073Y156004D02*
X163290D01*
X162566Y155704D01*
X162012Y155150D01*
X161713Y154427D01*
Y153644D01*
X162012Y152920D01*
X162566Y152367D01*
X163290Y152067D01*
X164073D01*
X164796Y152367D01*
X165350Y152920D01*
X165650Y153644D01*
Y154427D01*
X165350Y155150D01*
X164796Y155704D01*
X164073Y156004D01*
D02*
G37*
G36*
X83856Y155413D02*
X83073D01*
X82349Y155114D01*
X81796Y154560D01*
X81496Y153836D01*
Y153053D01*
X81796Y152330D01*
X82349Y151776D01*
X83073Y151476D01*
X83856D01*
X84580Y151776D01*
X85133Y152330D01*
X85433Y153053D01*
Y153836D01*
X85133Y154560D01*
X84580Y155114D01*
X83856Y155413D01*
D02*
G37*
G36*
X134146Y164921D02*
X132902D01*
X131700Y164599D01*
X130623Y163977D01*
X129743Y163098D01*
X129121Y162020D01*
X128799Y160819D01*
Y159575D01*
X129121Y158373D01*
X129743Y157296D01*
X130623Y156416D01*
X131700Y155794D01*
X132554Y155566D01*
Y155048D01*
X131618Y154797D01*
X130492Y154147D01*
X129573Y153228D01*
X128923Y152102D01*
X128672Y151167D01*
X128155D01*
X127926Y152020D01*
X127304Y153098D01*
X126425Y153977D01*
X125347Y154599D01*
X124146Y154921D01*
X122902D01*
X121700Y154599D01*
X120623Y153977D01*
X119743Y153098D01*
X119121Y152020D01*
X118799Y150819D01*
Y149575D01*
X119121Y148373D01*
X119743Y147296D01*
X120623Y146416D01*
X121700Y145794D01*
X122902Y145472D01*
X124146D01*
X125347Y145794D01*
X126425Y146416D01*
X127304Y147296D01*
X127926Y148373D01*
X128155Y149227D01*
X128672D01*
X128923Y148291D01*
X129573Y147166D01*
X130492Y146246D01*
X131618Y145596D01*
X132554Y145346D01*
Y144828D01*
X131700Y144599D01*
X130623Y143977D01*
X129743Y143098D01*
X129121Y142020D01*
X128799Y140819D01*
Y139575D01*
X129121Y138373D01*
X129743Y137296D01*
X130623Y136416D01*
X131700Y135794D01*
X132902Y135472D01*
X134146D01*
X135347Y135794D01*
X136425Y136416D01*
X137304Y137296D01*
X137926Y138373D01*
X138248Y139575D01*
Y140819D01*
X137926Y142020D01*
X137304Y143098D01*
X136425Y143977D01*
X135347Y144599D01*
X134494Y144828D01*
Y145346D01*
X135429Y145596D01*
X136555Y146246D01*
X137474Y147166D01*
X138124Y148291D01*
X138461Y149547D01*
Y149606D01*
X133524D01*
Y150787D01*
X138461D01*
Y150847D01*
X138124Y152102D01*
X137474Y153228D01*
X136555Y154147D01*
X135429Y154797D01*
X134494Y155048D01*
Y155566D01*
X135347Y155794D01*
X136425Y156416D01*
X137304Y157296D01*
X137926Y158373D01*
X138248Y159575D01*
Y160819D01*
X137926Y162020D01*
X137304Y163098D01*
X136425Y163977D01*
X135347Y164599D01*
X134146Y164921D01*
D02*
G37*
G36*
X173226Y149508D02*
X172443D01*
X171720Y149208D01*
X171166Y148654D01*
X170866Y147931D01*
Y147148D01*
X171166Y146424D01*
X171720Y145871D01*
X172443Y145571D01*
X173226D01*
X173950Y145871D01*
X174504Y146424D01*
X174803Y147148D01*
Y147931D01*
X174504Y148654D01*
X173950Y149208D01*
X173226Y149508D01*
D02*
G37*
G36*
X166829Y147564D02*
X166045D01*
X165322Y147265D01*
X164768Y146711D01*
X164469Y145987D01*
Y145204D01*
X164768Y144481D01*
X165322Y143927D01*
X166045Y143628D01*
X166829D01*
X167552Y143927D01*
X168106Y144481D01*
X168405Y145204D01*
Y145987D01*
X168106Y146711D01*
X167552Y147265D01*
X166829Y147564D01*
D02*
G37*
G36*
X98325Y147441D02*
X97541D01*
X96818Y147141D01*
X96264Y146588D01*
X95965Y145864D01*
Y145081D01*
X96264Y144357D01*
X96818Y143804D01*
X97541Y143504D01*
X98325D01*
X99048Y143804D01*
X99602Y144357D01*
X99902Y145081D01*
Y145864D01*
X99602Y146588D01*
X99048Y147141D01*
X98325Y147441D01*
D02*
G37*
G36*
X117222Y155413D02*
X116439D01*
X115716Y155114D01*
X115162Y154560D01*
X114862Y153836D01*
Y153333D01*
X99752Y138222D01*
X90448D01*
X90091Y138578D01*
X89368Y138878D01*
X88585D01*
X87861Y138578D01*
X87308Y138024D01*
X87008Y137301D01*
Y136518D01*
X87308Y135794D01*
X87861Y135241D01*
X88585Y134941D01*
X89368D01*
X90091Y135241D01*
X90448Y135597D01*
X100295D01*
X100798Y135697D01*
X101223Y135981D01*
X116718Y151476D01*
X117222D01*
X117946Y151776D01*
X118500Y152330D01*
X118799Y153053D01*
Y153836D01*
X118500Y154560D01*
X117946Y155114D01*
X117222Y155413D01*
D02*
G37*
G36*
X37695Y188238D02*
X36912D01*
X36188Y187938D01*
X35634Y187385D01*
X35335Y186661D01*
Y185878D01*
X35634Y185155D01*
X36188Y184601D01*
X36912Y184301D01*
X37695D01*
X38418Y184601D01*
X38774Y184957D01*
X47340D01*
X61221Y171077D01*
Y170573D01*
X61520Y169850D01*
X61876Y169493D01*
Y155037D01*
X61976Y154535D01*
X62261Y154109D01*
X62467Y153903D01*
Y140251D01*
X62111Y139895D01*
X61811Y139171D01*
Y138388D01*
X62111Y137664D01*
X62665Y137111D01*
X63388Y136811D01*
X64171D01*
X64895Y137111D01*
X65448Y137664D01*
X65748Y138388D01*
Y139171D01*
X65448Y139895D01*
X65092Y140251D01*
Y154446D01*
X64992Y154949D01*
X64708Y155375D01*
X64502Y155581D01*
Y169493D01*
X64858Y169850D01*
X65158Y170573D01*
Y171356D01*
X64858Y172080D01*
X64304Y172633D01*
X63581Y172933D01*
X63077D01*
X48812Y187198D01*
X48386Y187482D01*
X47884Y187582D01*
X38774D01*
X38418Y187938D01*
X37695Y188238D01*
D02*
G37*
G36*
X124146Y144921D02*
X122902D01*
X121700Y144599D01*
X120623Y143977D01*
X119743Y143098D01*
X119121Y142020D01*
X118799Y140819D01*
Y139575D01*
X119121Y138373D01*
X119743Y137296D01*
X120623Y136416D01*
X121700Y135794D01*
X122902Y135472D01*
X124146D01*
X125347Y135794D01*
X126425Y136416D01*
X127304Y137296D01*
X127926Y138373D01*
X128248Y139575D01*
Y140819D01*
X127926Y142020D01*
X127304Y143098D01*
X126425Y143977D01*
X125347Y144599D01*
X124146Y144921D01*
D02*
G37*
G36*
X303748Y201866D02*
X303740D01*
Y197913D01*
X307693D01*
Y197921D01*
X307383Y199076D01*
X306785Y200113D01*
X305939Y200958D01*
X304903Y201556D01*
X303748Y201866D01*
D02*
G37*
G36*
X273748D02*
X273740D01*
Y197913D01*
X277693D01*
Y197921D01*
X277383Y199076D01*
X276785Y200113D01*
X275939Y200958D01*
X274903Y201556D01*
X273748Y201866D01*
D02*
G37*
G36*
X302559D02*
X302552D01*
X301396Y201556D01*
X300360Y200958D01*
X299514Y200113D01*
X298916Y199076D01*
X298606Y197921D01*
Y197913D01*
X302559D01*
Y201866D01*
D02*
G37*
G36*
X272559D02*
X272551D01*
X271396Y201556D01*
X270360Y200958D01*
X269514Y200113D01*
X268916Y199076D01*
X268606Y197921D01*
Y197913D01*
X272559D01*
Y201866D01*
D02*
G37*
G36*
X307693Y196732D02*
X303740D01*
Y192780D01*
X303748D01*
X304903Y193089D01*
X305939Y193687D01*
X306785Y194533D01*
X307383Y195569D01*
X307693Y196725D01*
Y196732D01*
D02*
G37*
G36*
X302559D02*
X298606D01*
Y196725D01*
X298916Y195569D01*
X299514Y194533D01*
X300360Y193687D01*
X301396Y193089D01*
X302552Y192780D01*
X302559D01*
Y196732D01*
D02*
G37*
G36*
X277693D02*
X273740D01*
Y192780D01*
X273748D01*
X274903Y193089D01*
X275939Y193687D01*
X276785Y194533D01*
X277383Y195569D01*
X277693Y196725D01*
Y196732D01*
D02*
G37*
G36*
X272559D02*
X268606D01*
Y196725D01*
X268916Y195569D01*
X269514Y194533D01*
X270360Y193687D01*
X271396Y193089D01*
X272551Y192780D01*
X272559D01*
Y196732D01*
D02*
G37*
G36*
X303748Y191866D02*
X303740D01*
Y187913D01*
X307693D01*
Y187921D01*
X307383Y189076D01*
X306785Y190112D01*
X305939Y190958D01*
X304903Y191557D01*
X303748Y191866D01*
D02*
G37*
G36*
X273748D02*
X273740D01*
Y187913D01*
X277693D01*
Y187921D01*
X277383Y189076D01*
X276785Y190112D01*
X275939Y190958D01*
X274903Y191557D01*
X273748Y191866D01*
D02*
G37*
G36*
X302559D02*
X302552D01*
X301396Y191557D01*
X300360Y190958D01*
X299514Y190112D01*
X298916Y189076D01*
X298606Y187921D01*
Y187913D01*
X302559D01*
Y191866D01*
D02*
G37*
G36*
X272559D02*
X272551D01*
X271396Y191557D01*
X270360Y190958D01*
X269514Y190112D01*
X268916Y189076D01*
X268606Y187921D01*
Y187913D01*
X272559D01*
Y191866D01*
D02*
G37*
G36*
X307693Y186732D02*
X303740D01*
Y182780D01*
X303748D01*
X304903Y183089D01*
X305939Y183687D01*
X306785Y184533D01*
X307383Y185569D01*
X307693Y186725D01*
Y186732D01*
D02*
G37*
G36*
X302559D02*
X298606D01*
Y186725D01*
X298916Y185569D01*
X299514Y184533D01*
X300360Y183687D01*
X301396Y183089D01*
X302552Y182780D01*
X302559D01*
Y186732D01*
D02*
G37*
G36*
X277693D02*
X273740D01*
Y182780D01*
X273748D01*
X274903Y183089D01*
X275939Y183687D01*
X276785Y184533D01*
X277383Y185569D01*
X277693Y186725D01*
Y186732D01*
D02*
G37*
G36*
X272559D02*
X268606D01*
Y186725D01*
X268916Y185569D01*
X269514Y184533D01*
X270360Y183687D01*
X271396Y183089D01*
X272551Y182780D01*
X272559D01*
Y186732D01*
D02*
G37*
G36*
X303748Y181866D02*
X303740D01*
Y177913D01*
X307693D01*
Y177921D01*
X307383Y179077D01*
X306785Y180113D01*
X305939Y180958D01*
X304903Y181556D01*
X303748Y181866D01*
D02*
G37*
G36*
X273748D02*
X273740D01*
Y177913D01*
X277693D01*
Y177921D01*
X277383Y179077D01*
X276785Y180113D01*
X275939Y180958D01*
X274903Y181556D01*
X273748Y181866D01*
D02*
G37*
G36*
X302559D02*
X302552D01*
X301396Y181556D01*
X300360Y180958D01*
X299514Y180113D01*
X298916Y179077D01*
X298606Y177921D01*
Y177913D01*
X302559D01*
Y181866D01*
D02*
G37*
G36*
X272559D02*
X272551D01*
X271396Y181556D01*
X270360Y180958D01*
X269514Y180113D01*
X268916Y179077D01*
X268606Y177921D01*
Y177913D01*
X272559D01*
Y181866D01*
D02*
G37*
G36*
X307693Y176732D02*
X303740D01*
Y172780D01*
X303748D01*
X304903Y173089D01*
X305939Y173687D01*
X306785Y174533D01*
X307383Y175569D01*
X307693Y176725D01*
Y176732D01*
D02*
G37*
G36*
X302559D02*
X298606D01*
Y176725D01*
X298916Y175569D01*
X299514Y174533D01*
X300360Y173687D01*
X301396Y173089D01*
X302552Y172780D01*
X302559D01*
Y176732D01*
D02*
G37*
G36*
X277693D02*
X273740D01*
Y172780D01*
X273748D01*
X274903Y173089D01*
X275939Y173687D01*
X276785Y174533D01*
X277383Y175569D01*
X277693Y176725D01*
Y176732D01*
D02*
G37*
G36*
X272559D02*
X268606D01*
Y176725D01*
X268916Y175569D01*
X269514Y174533D01*
X270360Y173687D01*
X271396Y173089D01*
X272551Y172780D01*
X272559D01*
Y176732D01*
D02*
G37*
G36*
X303748Y171866D02*
X303740D01*
Y167913D01*
X307693D01*
Y167921D01*
X307383Y169077D01*
X306785Y170113D01*
X305939Y170958D01*
X304903Y171556D01*
X303748Y171866D01*
D02*
G37*
G36*
X273748D02*
X273740D01*
Y167913D01*
X277693D01*
Y167921D01*
X277383Y169077D01*
X276785Y170113D01*
X275939Y170958D01*
X274903Y171556D01*
X273748Y171866D01*
D02*
G37*
G36*
X302559D02*
X302552D01*
X301396Y171556D01*
X300360Y170958D01*
X299514Y170113D01*
X298916Y169077D01*
X298606Y167921D01*
Y167913D01*
X302559D01*
Y171866D01*
D02*
G37*
G36*
X272559D02*
X272551D01*
X271396Y171556D01*
X270360Y170958D01*
X269514Y170113D01*
X268916Y169077D01*
X268606Y167921D01*
Y167913D01*
X272559D01*
Y171866D01*
D02*
G37*
G36*
X307693Y166732D02*
X303740D01*
Y162779D01*
X303748D01*
X304903Y163089D01*
X305939Y163687D01*
X306785Y164533D01*
X307383Y165569D01*
X307693Y166725D01*
Y166732D01*
D02*
G37*
G36*
X302559D02*
X298606D01*
Y166725D01*
X298916Y165569D01*
X299514Y164533D01*
X300360Y163687D01*
X301396Y163089D01*
X302552Y162779D01*
X302559D01*
Y166732D01*
D02*
G37*
G36*
X277693D02*
X273740D01*
Y162779D01*
X273748D01*
X274903Y163089D01*
X275939Y163687D01*
X276785Y164533D01*
X277383Y165569D01*
X277693Y166725D01*
Y166732D01*
D02*
G37*
G36*
X272559D02*
X268606D01*
Y166725D01*
X268916Y165569D01*
X269514Y164533D01*
X270360Y163687D01*
X271396Y163089D01*
X272551Y162779D01*
X272559D01*
Y166732D01*
D02*
G37*
G36*
X303748Y83756D02*
X303740D01*
Y79803D01*
X307693D01*
Y79811D01*
X307383Y80966D01*
X306785Y82002D01*
X305939Y82848D01*
X304903Y83446D01*
X303748Y83756D01*
D02*
G37*
G36*
X273748D02*
X273740D01*
Y79803D01*
X277693D01*
Y79811D01*
X277383Y80966D01*
X276785Y82002D01*
X275939Y82848D01*
X274903Y83446D01*
X273748Y83756D01*
D02*
G37*
G36*
X302559D02*
X302552D01*
X301396Y83446D01*
X300360Y82848D01*
X299514Y82002D01*
X298916Y80966D01*
X298606Y79811D01*
Y79803D01*
X302559D01*
Y83756D01*
D02*
G37*
G36*
X272559D02*
X272551D01*
X271396Y83446D01*
X270360Y82848D01*
X269514Y82002D01*
X268916Y80966D01*
X268606Y79811D01*
Y79803D01*
X272559D01*
Y83756D01*
D02*
G37*
G36*
X307693Y78622D02*
X303740D01*
Y74669D01*
X303748D01*
X304903Y74979D01*
X305939Y75577D01*
X306785Y76423D01*
X307383Y77459D01*
X307693Y78614D01*
Y78622D01*
D02*
G37*
G36*
X302559D02*
X298606D01*
Y78614D01*
X298916Y77459D01*
X299514Y76423D01*
X300360Y75577D01*
X301396Y74979D01*
X302552Y74669D01*
X302559D01*
Y78622D01*
D02*
G37*
G36*
X277693D02*
X273740D01*
Y74669D01*
X273748D01*
X274903Y74979D01*
X275939Y75577D01*
X276785Y76423D01*
X277383Y77459D01*
X277693Y78614D01*
Y78622D01*
D02*
G37*
G36*
X272559D02*
X268606D01*
Y78614D01*
X268916Y77459D01*
X269514Y76423D01*
X270360Y75577D01*
X271396Y74979D01*
X272551Y74669D01*
X272559D01*
Y78622D01*
D02*
G37*
G36*
X303748Y73756D02*
X303740D01*
Y69803D01*
X307693D01*
Y69811D01*
X307383Y70966D01*
X306785Y72002D01*
X305939Y72848D01*
X304903Y73446D01*
X303748Y73756D01*
D02*
G37*
G36*
X273748D02*
X273740D01*
Y69803D01*
X277693D01*
Y69811D01*
X277383Y70966D01*
X276785Y72002D01*
X275939Y72848D01*
X274903Y73446D01*
X273748Y73756D01*
D02*
G37*
G36*
X302559D02*
X302552D01*
X301396Y73446D01*
X300360Y72848D01*
X299514Y72002D01*
X298916Y70966D01*
X298606Y69811D01*
Y69803D01*
X302559D01*
Y73756D01*
D02*
G37*
G36*
X272559D02*
X272551D01*
X271396Y73446D01*
X270360Y72848D01*
X269514Y72002D01*
X268916Y70966D01*
X268606Y69811D01*
Y69803D01*
X272559D01*
Y73756D01*
D02*
G37*
G36*
X307693Y68622D02*
X303740D01*
Y64669D01*
X303748D01*
X304903Y64979D01*
X305939Y65577D01*
X306785Y66423D01*
X307383Y67459D01*
X307693Y68615D01*
Y68622D01*
D02*
G37*
G36*
X302559D02*
X298606D01*
Y68615D01*
X298916Y67459D01*
X299514Y66423D01*
X300360Y65577D01*
X301396Y64979D01*
X302552Y64669D01*
X302559D01*
Y68622D01*
D02*
G37*
G36*
X277693D02*
X273740D01*
Y64669D01*
X273748D01*
X274903Y64979D01*
X275939Y65577D01*
X276785Y66423D01*
X277383Y67459D01*
X277693Y68615D01*
Y68622D01*
D02*
G37*
G36*
X272559D02*
X268606D01*
Y68615D01*
X268916Y67459D01*
X269514Y66423D01*
X270360Y65577D01*
X271396Y64979D01*
X272551Y64669D01*
X272559D01*
Y68622D01*
D02*
G37*
G36*
X303748Y63756D02*
X303740D01*
Y59803D01*
X307693D01*
Y59811D01*
X307383Y60966D01*
X306785Y62002D01*
X305939Y62848D01*
X304903Y63446D01*
X303748Y63756D01*
D02*
G37*
G36*
X273748D02*
X273740D01*
Y59803D01*
X277693D01*
Y59811D01*
X277383Y60966D01*
X276785Y62002D01*
X275939Y62848D01*
X274903Y63446D01*
X273748Y63756D01*
D02*
G37*
G36*
X302559D02*
X302552D01*
X301396Y63446D01*
X300360Y62848D01*
X299514Y62002D01*
X298916Y60966D01*
X298606Y59811D01*
Y59803D01*
X302559D01*
Y63756D01*
D02*
G37*
G36*
X272559D02*
X272551D01*
X271396Y63446D01*
X270360Y62848D01*
X269514Y62002D01*
X268916Y60966D01*
X268606Y59811D01*
Y59803D01*
X272559D01*
Y63756D01*
D02*
G37*
G36*
X307693Y58622D02*
X303740D01*
Y54669D01*
X303748D01*
X304903Y54979D01*
X305939Y55577D01*
X306785Y56423D01*
X307383Y57459D01*
X307693Y58614D01*
Y58622D01*
D02*
G37*
G36*
X302559D02*
X298606D01*
Y58614D01*
X298916Y57459D01*
X299514Y56423D01*
X300360Y55577D01*
X301396Y54979D01*
X302552Y54669D01*
X302559D01*
Y58622D01*
D02*
G37*
G36*
X277693D02*
X273740D01*
Y54669D01*
X273748D01*
X274903Y54979D01*
X275939Y55577D01*
X276785Y56423D01*
X277383Y57459D01*
X277693Y58614D01*
Y58622D01*
D02*
G37*
G36*
X272559D02*
X268606D01*
Y58614D01*
X268916Y57459D01*
X269514Y56423D01*
X270360Y55577D01*
X271396Y54979D01*
X272551Y54669D01*
X272559D01*
Y58622D01*
D02*
G37*
G36*
X303748Y53756D02*
X303740D01*
Y49803D01*
X307693D01*
Y49811D01*
X307383Y50966D01*
X306785Y52002D01*
X305939Y52848D01*
X304903Y53446D01*
X303748Y53756D01*
D02*
G37*
G36*
X273748D02*
X273740D01*
Y49803D01*
X277693D01*
Y49811D01*
X277383Y50966D01*
X276785Y52002D01*
X275939Y52848D01*
X274903Y53446D01*
X273748Y53756D01*
D02*
G37*
G36*
X302559D02*
X302552D01*
X301396Y53446D01*
X300360Y52848D01*
X299514Y52002D01*
X298916Y50966D01*
X298606Y49811D01*
Y49803D01*
X302559D01*
Y53756D01*
D02*
G37*
G36*
X272559D02*
X272551D01*
X271396Y53446D01*
X270360Y52848D01*
X269514Y52002D01*
X268916Y50966D01*
X268606Y49811D01*
Y49803D01*
X272559D01*
Y53756D01*
D02*
G37*
G36*
X307693Y48622D02*
X303740D01*
Y44669D01*
X303748D01*
X304903Y44979D01*
X305939Y45577D01*
X306785Y46423D01*
X307383Y47459D01*
X307693Y48614D01*
Y48622D01*
D02*
G37*
G36*
X302559D02*
X298606D01*
Y48614D01*
X298916Y47459D01*
X299514Y46423D01*
X300360Y45577D01*
X301396Y44979D01*
X302552Y44669D01*
X302559D01*
Y48622D01*
D02*
G37*
G36*
X277693D02*
X273740D01*
Y44669D01*
X273748D01*
X274903Y44979D01*
X275939Y45577D01*
X276785Y46423D01*
X277383Y47459D01*
X277693Y48614D01*
Y48622D01*
D02*
G37*
G36*
X272559D02*
X268606D01*
Y48614D01*
X268916Y47459D01*
X269514Y46423D01*
X270360Y45577D01*
X271396Y44979D01*
X272551Y44669D01*
X272559D01*
Y48622D01*
D02*
G37*
%LPD*%
D13*
X142520Y173228D02*
X145177Y175886D01*
X176181D01*
X134903Y173228D02*
X142520D01*
X128013Y166339D02*
X134903Y173228D01*
X118701Y166339D02*
X128013D01*
X116929Y164567D02*
X118701Y166339D01*
X172244Y167618D02*
X175098Y170472D01*
X132382Y167618D02*
X172244D01*
D39*
X70472Y188976D02*
D03*
X100394Y19685D02*
D03*
X299213D02*
D03*
D40*
X133524Y140197D02*
D03*
Y150197D02*
D03*
Y160197D02*
D03*
X123524Y140197D02*
D03*
Y150197D02*
D03*
Y160197D02*
D03*
D47*
X73484Y17362D02*
D03*
X8799D02*
D03*
D58*
X78839Y121850D02*
X79921Y120768D01*
X110630D02*
X115256Y116142D01*
X79921Y120768D02*
X110630D01*
X115256Y85433D02*
Y116142D01*
Y85433D02*
X118012Y82677D01*
X40738Y129735D02*
X53051Y117421D01*
X110047D01*
X110925Y116543D01*
Y82972D02*
Y116543D01*
X57776Y121850D02*
X78839D01*
X118012Y82677D02*
X190945D01*
X45276Y134350D02*
X57776Y121850D01*
X114862Y79035D02*
X150295D01*
X150394Y78937D01*
X110925Y82972D02*
X114862Y79035D01*
X150394Y78937D02*
X176870D01*
X40738Y129735D02*
Y166154D01*
X45276Y134350D02*
Y165354D01*
D59*
X110728Y167528D02*
Y179624D01*
X108169Y188386D02*
X111713Y191929D01*
X108169Y182183D02*
Y188386D01*
Y182183D02*
X110728Y179624D01*
Y167528D02*
X118060Y160197D01*
X123524D01*
X100295Y136909D02*
X116831Y153445D01*
X88976Y136909D02*
X100295D01*
X37303Y186270D02*
X47884D01*
X63189Y170965D01*
X80149Y56859D02*
Y57019D01*
X83787Y60657D01*
X66004Y91535D02*
Y100248D01*
X83169Y105118D02*
X83430Y105379D01*
X86585Y109350D02*
X86860D01*
X83430Y106196D02*
X86585Y109350D01*
X83430Y105379D02*
Y106196D01*
X57938Y106333D02*
X61014Y109409D01*
Y109449D01*
X57677Y105118D02*
X57938Y105379D01*
Y106333D01*
X34770Y107870D02*
X36309Y109409D01*
X32874Y105118D02*
X34770Y107014D01*
X36309Y109409D02*
Y109449D01*
X34770Y107014D02*
Y107870D01*
X24409Y58268D02*
X31594Y65453D01*
Y87598D01*
X74016Y58169D02*
X81201Y65354D01*
Y87599D01*
X69193Y138681D02*
Y169980D01*
X83787Y60657D02*
X104776D01*
X106299Y62180D01*
Y86698D01*
X63189Y155037D02*
X63779Y154446D01*
X63189Y155037D02*
Y170965D01*
X63779Y138779D02*
Y154446D01*
X106831Y87230D02*
Y87599D01*
X106299Y86698D02*
X106831Y87230D01*
X7795Y105905D02*
X7864D01*
X11407Y109449D01*
X16398Y91535D02*
Y100248D01*
X17284Y106201D02*
X17544Y106461D01*
Y107239D01*
X16398Y100248D02*
X30618Y114469D01*
X48524Y58366D02*
X56496Y66339D01*
Y87599D01*
X41299Y91535D02*
Y100248D01*
X91634Y91536D02*
Y100248D01*
X42185Y106201D02*
X42446Y106461D01*
X66890Y106201D02*
X67150Y106461D01*
X92520Y106201D02*
X92780Y106461D01*
X42446Y106461D02*
Y107239D01*
X67150Y106461D02*
Y107239D01*
X92780Y106461D02*
Y107239D01*
X41299Y100248D02*
X55520Y114469D01*
X66004Y100248D02*
X80224Y114469D01*
X11348Y109350D02*
X11624D01*
X17544Y107239D02*
X19656Y109350D01*
X19931D01*
X30618Y114469D02*
X30866D01*
X36250Y109350D02*
X36526D01*
X42446Y107239D02*
X44557Y109350D01*
X67150Y107239D02*
X69262Y109350D01*
X92780Y107239D02*
X94892Y109350D01*
X44557Y109350D02*
X44833D01*
X69262D02*
X69537D01*
X60955D02*
X61230D01*
X86585Y109350D02*
X86860D01*
X55520Y114469D02*
X55768D01*
X80224D02*
X80472D01*
X91634Y100248D02*
X105854Y114469D01*
X106102D01*
X94892Y109350D02*
X95167D01*
D65*
X48720Y194685D02*
D03*
D66*
X38721D02*
D03*
D67*
X168110Y186476D02*
D03*
X132677D02*
D03*
D68*
X144488Y194193D02*
D03*
D69*
X156299D02*
D03*
D70*
X192342Y167165D02*
D03*
Y177165D02*
D03*
Y187165D02*
D03*
Y197165D02*
D03*
X222342Y167165D02*
D03*
Y177165D02*
D03*
Y187165D02*
D03*
Y197165D02*
D03*
X273150Y167323D02*
D03*
Y177323D02*
D03*
Y187323D02*
D03*
Y197323D02*
D03*
X303150Y167323D02*
D03*
Y177323D02*
D03*
Y187323D02*
D03*
Y197323D02*
D03*
X151102Y37874D02*
D03*
X161102D02*
D03*
X171102D02*
D03*
X181102D02*
D03*
X151102Y7874D02*
D03*
X161102D02*
D03*
X171102D02*
D03*
X181102D02*
D03*
X273150Y49213D02*
D03*
Y59213D02*
D03*
Y69213D02*
D03*
Y79213D02*
D03*
X303150Y49213D02*
D03*
Y59213D02*
D03*
Y69213D02*
D03*
Y79213D02*
D03*
D71*
X37225Y165690D02*
D03*
X94488Y200396D02*
D03*
X110236D02*
D03*
X102362D02*
D03*
X88583Y183071D02*
D03*
Y188976D02*
D03*
Y194882D02*
D03*
X132283Y128347D02*
D03*
X126378D02*
D03*
X144095D02*
D03*
X138189D02*
D03*
X139764Y114173D02*
D03*
Y108268D02*
D03*
Y102362D02*
D03*
X145669Y114173D02*
D03*
Y108268D02*
D03*
Y102362D02*
D03*
X151575Y114173D02*
D03*
Y108268D02*
D03*
Y102362D02*
D03*
X157480Y114173D02*
D03*
Y108268D02*
D03*
Y102362D02*
D03*
X163386D02*
D03*
Y108268D02*
D03*
Y114173D02*
D03*
X169291Y102362D02*
D03*
Y108268D02*
D03*
Y114173D02*
D03*
X111713Y191929D02*
D03*
X116831Y153445D02*
D03*
X72441Y161024D02*
D03*
X97933Y145472D02*
D03*
X83465Y153445D02*
D03*
X91240Y156595D02*
D03*
X102362Y161417D02*
D03*
X106299D02*
D03*
Y165354D02*
D03*
X102362D02*
D03*
X116240Y172835D02*
D03*
X111221Y187205D02*
D03*
Y183366D02*
D03*
X128150Y191831D02*
D03*
X88681Y177067D02*
D03*
X132382Y167618D02*
D03*
X116929Y164567D02*
D03*
X110728Y179429D02*
D03*
X150000Y128347D02*
D03*
X175492Y123524D02*
D03*
X172835Y147539D02*
D03*
X163681Y154035D02*
D03*
X112205Y55118D02*
D03*
X139627Y72216D02*
D03*
X157480Y61024D02*
D03*
X151575Y64961D02*
D03*
X157480D02*
D03*
Y68898D02*
D03*
X151575D02*
D03*
X157480Y72835D02*
D03*
X151575D02*
D03*
X145669D02*
D03*
X33465Y151575D02*
D03*
X27559D02*
D03*
X21654D02*
D03*
X9843Y147638D02*
D03*
X3937Y157480D02*
D03*
Y151575D02*
D03*
X29503Y200812D02*
D03*
X25566D02*
D03*
X28543Y191929D02*
D03*
X24606Y194882D02*
D03*
X80149Y56859D02*
D03*
X66004Y91535D02*
D03*
X24606Y191929D02*
D03*
X28543Y194882D02*
D03*
Y188976D02*
D03*
X24606D02*
D03*
X166437Y145596D02*
D03*
X148917Y171358D02*
D03*
X155807D02*
D03*
X143602Y160827D02*
D03*
X174114Y201476D02*
D03*
X215846Y188976D02*
D03*
X211910Y171260D02*
D03*
X215846D02*
D03*
X204035D02*
D03*
X211910Y194882D02*
D03*
X200098D02*
D03*
X207972Y177165D02*
D03*
Y188976D02*
D03*
X200098D02*
D03*
X204035Y194882D02*
D03*
X211910Y183071D02*
D03*
X215846D02*
D03*
X200098D02*
D03*
X207972Y171260D02*
D03*
X204035Y177165D02*
D03*
X211910Y188976D02*
D03*
X207972Y194882D02*
D03*
X215846D02*
D03*
X211910Y177165D02*
D03*
X204035Y188976D02*
D03*
X207972Y183071D02*
D03*
X215846Y177165D02*
D03*
X200098D02*
D03*
Y171260D02*
D03*
X204035Y183071D02*
D03*
X216535Y135827D02*
D03*
X212469Y124024D02*
D03*
X204724Y135827D02*
D03*
Y124016D02*
D03*
X208661D02*
D03*
X216535D02*
D03*
X208661Y135827D02*
D03*
X220472Y124016D02*
D03*
X212469Y135836D02*
D03*
X220472Y135827D02*
D03*
X177165Y17717D02*
D03*
X157480D02*
D03*
X173228D02*
D03*
X153543D02*
D03*
X161417D02*
D03*
X181102D02*
D03*
X165354D02*
D03*
X169291D02*
D03*
X177165Y23622D02*
D03*
X157480D02*
D03*
X165354D02*
D03*
X173228D02*
D03*
X161417D02*
D03*
X169291D02*
D03*
X181102D02*
D03*
X153543D02*
D03*
X181102Y29528D02*
D03*
X173228D02*
D03*
X177165D02*
D03*
X153543D02*
D03*
X157480D02*
D03*
X161417D02*
D03*
X169291D02*
D03*
X165354D02*
D03*
X69193Y138681D02*
D03*
X63189Y170965D02*
D03*
X63779Y138779D02*
D03*
X69193Y169980D02*
D03*
X251969Y112205D02*
D03*
X255906Y100394D02*
D03*
X248031Y112205D02*
D03*
X251969Y100394D02*
D03*
X248031D02*
D03*
X244094D02*
D03*
X240158Y112205D02*
D03*
X244094D02*
D03*
X255906D02*
D03*
X240158Y100394D02*
D03*
X83169Y105118D02*
D03*
X57677D02*
D03*
X32874D02*
D03*
X24409Y58268D02*
D03*
X74016Y58169D02*
D03*
X8760Y177854D02*
D03*
X148819Y60532D02*
D03*
X122539Y70768D02*
D03*
X92126Y124902D02*
D03*
X240158Y165354D02*
D03*
Y171260D02*
D03*
Y177165D02*
D03*
Y188976D02*
D03*
Y194882D02*
D03*
Y200787D02*
D03*
X244094D02*
D03*
Y194882D02*
D03*
Y188976D02*
D03*
Y183071D02*
D03*
Y177165D02*
D03*
Y171260D02*
D03*
Y165354D02*
D03*
X190945Y82677D02*
D03*
X255906Y124016D02*
D03*
Y135827D02*
D03*
X251969Y124016D02*
D03*
Y135827D02*
D03*
X248031Y124016D02*
D03*
Y135827D02*
D03*
X244094Y124016D02*
D03*
Y135827D02*
D03*
X240158Y124016D02*
D03*
Y135827D02*
D03*
X234252Y100394D02*
D03*
Y112205D02*
D03*
Y124016D02*
D03*
Y135827D02*
D03*
X230315Y100394D02*
D03*
Y112205D02*
D03*
Y124016D02*
D03*
Y135827D02*
D03*
X226378Y100394D02*
D03*
Y112205D02*
D03*
Y124016D02*
D03*
Y135827D02*
D03*
X220472Y100394D02*
D03*
Y112205D02*
D03*
X216535Y100394D02*
D03*
Y112205D02*
D03*
X212469Y100402D02*
D03*
Y112214D02*
D03*
X208661Y100394D02*
D03*
Y112205D02*
D03*
X204724Y100394D02*
D03*
Y112205D02*
D03*
X190945Y7874D02*
D03*
Y15748D02*
D03*
Y23622D02*
D03*
Y27559D02*
D03*
X194882Y23622D02*
D03*
Y19685D02*
D03*
Y15748D02*
D03*
X190945Y19685D02*
D03*
Y11811D02*
D03*
Y31496D02*
D03*
X194882Y27559D02*
D03*
Y31496D02*
D03*
X190945Y35433D02*
D03*
X194882Y11811D02*
D03*
Y7874D02*
D03*
Y35433D02*
D03*
X255906Y11811D02*
D03*
X251969D02*
D03*
X244094D02*
D03*
X248031D02*
D03*
X255906Y17717D02*
D03*
X251969D02*
D03*
X244094D02*
D03*
X248031D02*
D03*
X224410Y53150D02*
D03*
X232283D02*
D03*
X240158D02*
D03*
X248031D02*
D03*
X255906D02*
D03*
X224410Y57087D02*
D03*
X232283D02*
D03*
X240158D02*
D03*
X248031D02*
D03*
X255906D02*
D03*
X224410Y61024D02*
D03*
X232283D02*
D03*
X240158D02*
D03*
X248031D02*
D03*
X255906D02*
D03*
X255834Y64894D02*
D03*
X247960D02*
D03*
X240086D02*
D03*
X232212D02*
D03*
X224338D02*
D03*
X244094Y29528D02*
D03*
Y23622D02*
D03*
X248031D02*
D03*
Y29528D02*
D03*
X251969D02*
D03*
Y23622D02*
D03*
X255906D02*
D03*
Y29528D02*
D03*
X176870Y78937D02*
D03*
X11891Y154429D02*
D03*
X106831Y87599D02*
D03*
X176181Y175886D02*
D03*
X3937Y192913D02*
D03*
X7874D02*
D03*
Y196850D02*
D03*
X19685Y192913D02*
D03*
X15748D02*
D03*
X11811D02*
D03*
Y196850D02*
D03*
X15748D02*
D03*
X19685D02*
D03*
Y200787D02*
D03*
X15748D02*
D03*
X11811D02*
D03*
X30709Y182973D02*
D03*
X181201Y67913D02*
D03*
X88976Y136909D02*
D03*
X175098Y170472D02*
D03*
X40738Y166154D02*
D03*
X45276Y165354D02*
D03*
X119193Y70866D02*
D03*
X48524Y58366D02*
D03*
X31594Y87598D02*
D03*
X56496Y87599D02*
D03*
X81201D02*
D03*
X16398Y91535D02*
D03*
X41299Y91535D02*
D03*
X91634Y91536D02*
D03*
X7795Y105905D02*
D03*
X8760Y184252D02*
D03*
X17284Y106201D02*
D03*
X30866Y114469D02*
D03*
X37303Y186270D02*
D03*
X42185Y106201D02*
D03*
X55768Y114469D02*
D03*
X66890Y106201D02*
D03*
X80472Y114469D02*
D03*
X92520Y106201D02*
D03*
X106102Y114469D02*
D03*
D72*
X11624Y109350D02*
D03*
X19931D02*
D03*
X36526Y109350D02*
D03*
X44833D02*
D03*
X95167Y109350D02*
D03*
X86860D02*
D03*
X61230Y109350D02*
D03*
X69537D02*
D03*
D73*
X56496Y134070D02*
X59955Y130610D01*
X111614D02*
X124705Y117520D01*
X59955Y130610D02*
X111614D01*
X56496Y134070D02*
Y165354D01*
X124705Y92042D02*
Y117520D01*
Y92042D02*
X128164Y88583D01*
X261811D01*
X283465Y110236D02*
Y171260D01*
X285433Y173228D01*
X261811Y88583D02*
X283465Y110236D01*
X15453Y194783D02*
X16634Y193602D01*
Y181201D02*
Y193602D01*
Y181201D02*
X23720Y174114D01*
X47736D01*
X56496Y165354D01*
M02*
