G04*
G04 #@! TF.GenerationSoftware,Altium Limited,Altium Designer,21.1.0 (24)*
G04*
G04 Layer_Color=8388736*
%FSLAX25Y25*%
%MOIN*%
G70*
G04*
G04 #@! TF.SameCoordinates,8E11B689-D9C9-4360-AAA9-F91F00066FD3*
G04*
G04*
G04 #@! TF.FilePolarity,Positive*
G04*
G01*
G75*
%ADD13C,0.00787*%
G36*
X106893Y163543D02*
X105437D01*
X105434D01*
X105423D01*
X105404D01*
X105383D01*
X105357Y163540D01*
X105324D01*
X105255Y163536D01*
X105175Y163529D01*
X105095Y163518D01*
X105019Y163503D01*
X104986Y163496D01*
X104953Y163485D01*
X104946Y163481D01*
X104928Y163474D01*
X104902Y163456D01*
X104866Y163434D01*
X104829Y163408D01*
X104789Y163372D01*
X104749Y163328D01*
X104717Y163277D01*
X104713Y163270D01*
X104702Y163252D01*
X104691Y163219D01*
X104676Y163175D01*
X104658Y163125D01*
X104647Y163059D01*
X104636Y162990D01*
X104633Y162913D01*
Y162877D01*
X104636Y162855D01*
Y162822D01*
X104640Y162790D01*
X104655Y162710D01*
X104673Y162622D01*
X104702Y162539D01*
X104742Y162458D01*
X104768Y162422D01*
X104797Y162389D01*
X104800Y162386D01*
X104804Y162382D01*
X104815Y162375D01*
X104829Y162364D01*
X104851Y162353D01*
X104873Y162338D01*
X104906Y162324D01*
X104938Y162309D01*
X104979Y162295D01*
X105026Y162284D01*
X105080Y162269D01*
X105139Y162258D01*
X105204Y162247D01*
X105273Y162240D01*
X105353Y162233D01*
X105437D01*
X106893D01*
Y161898D01*
X105437D01*
X105434D01*
X105419D01*
X105401D01*
X105375D01*
X105343Y161901D01*
X105306D01*
X105262Y161905D01*
X105219Y161909D01*
X105121Y161920D01*
X105019Y161934D01*
X104920Y161956D01*
X104873Y161971D01*
X104829Y161985D01*
X104826D01*
X104818Y161989D01*
X104807Y161996D01*
X104793Y162003D01*
X104753Y162025D01*
X104702Y162058D01*
X104644Y162102D01*
X104586Y162153D01*
X104524Y162218D01*
X104469Y162298D01*
Y162302D01*
X104462Y162309D01*
X104458Y162320D01*
X104447Y162338D01*
X104436Y162360D01*
X104425Y162389D01*
X104414Y162418D01*
X104400Y162455D01*
X104385Y162495D01*
X104374Y162539D01*
X104363Y162586D01*
X104352Y162640D01*
X104345Y162695D01*
X104338Y162753D01*
X104331Y162884D01*
Y162917D01*
X104334Y162943D01*
Y162972D01*
X104338Y163008D01*
X104342Y163048D01*
X104345Y163088D01*
X104360Y163179D01*
X104382Y163277D01*
X104411Y163372D01*
X104451Y163463D01*
Y163467D01*
X104458Y163474D01*
X104465Y163485D01*
X104473Y163499D01*
X104502Y163540D01*
X104542Y163587D01*
X104593Y163641D01*
X104651Y163692D01*
X104724Y163743D01*
X104804Y163783D01*
X104807D01*
X104815Y163787D01*
X104829Y163791D01*
X104848Y163798D01*
X104869Y163805D01*
X104899Y163812D01*
X104931Y163823D01*
X104971Y163831D01*
X105015Y163838D01*
X105062Y163849D01*
X105113Y163856D01*
X105168Y163863D01*
X105230Y163871D01*
X105295Y163874D01*
X105364Y163878D01*
X105437D01*
X106893D01*
Y163543D01*
D02*
G37*
G36*
X105080Y161155D02*
X105077D01*
X105070Y161152D01*
X105055Y161148D01*
X105037Y161144D01*
X105015Y161141D01*
X104990Y161133D01*
X104935Y161115D01*
X104869Y161090D01*
X104807Y161057D01*
X104749Y161021D01*
X104698Y160977D01*
X104695Y160970D01*
X104680Y160955D01*
X104662Y160926D01*
X104644Y160890D01*
X104622Y160846D01*
X104604Y160791D01*
X104589Y160729D01*
X104586Y160664D01*
Y160642D01*
X104589Y160627D01*
X104593Y160587D01*
X104604Y160537D01*
X104622Y160478D01*
X104647Y160416D01*
X104684Y160354D01*
X104735Y160296D01*
X104742Y160289D01*
X104764Y160271D01*
X104797Y160249D01*
X104840Y160220D01*
X104895Y160191D01*
X104957Y160169D01*
X105029Y160151D01*
X105110Y160143D01*
X105113D01*
X105121D01*
X105131D01*
X105146Y160147D01*
X105186Y160151D01*
X105233Y160162D01*
X105292Y160176D01*
X105350Y160202D01*
X105408Y160238D01*
X105463Y160285D01*
X105470Y160293D01*
X105484Y160311D01*
X105506Y160340D01*
X105532Y160380D01*
X105557Y160431D01*
X105579Y160493D01*
X105594Y160562D01*
X105601Y160638D01*
Y160671D01*
X105597Y160697D01*
X105594Y160729D01*
X105587Y160766D01*
X105579Y160810D01*
X105568Y160857D01*
X105841Y160820D01*
Y160802D01*
X105838Y160788D01*
Y160740D01*
X105845Y160700D01*
X105852Y160653D01*
X105863Y160598D01*
X105881Y160537D01*
X105907Y160478D01*
X105939Y160416D01*
Y160413D01*
X105943Y160409D01*
X105958Y160391D01*
X105983Y160365D01*
X106016Y160336D01*
X106063Y160307D01*
X106118Y160282D01*
X106180Y160264D01*
X106216Y160256D01*
X106256D01*
X106260D01*
X106263D01*
X106285D01*
X106315Y160264D01*
X106354Y160271D01*
X106398Y160285D01*
X106446Y160303D01*
X106493Y160333D01*
X106536Y160373D01*
X106540Y160376D01*
X106555Y160395D01*
X106573Y160420D01*
X106595Y160453D01*
X106613Y160496D01*
X106631Y160547D01*
X106646Y160606D01*
X106649Y160671D01*
Y160700D01*
X106642Y160733D01*
X106635Y160777D01*
X106620Y160824D01*
X106602Y160871D01*
X106573Y160922D01*
X106536Y160970D01*
X106533Y160973D01*
X106515Y160988D01*
X106489Y161010D01*
X106453Y161035D01*
X106405Y161061D01*
X106347Y161086D01*
X106278Y161108D01*
X106198Y161123D01*
X106253Y161432D01*
X106256D01*
X106267Y161428D01*
X106282Y161425D01*
X106304Y161421D01*
X106329Y161414D01*
X106358Y161403D01*
X106427Y161381D01*
X106507Y161345D01*
X106588Y161301D01*
X106664Y161246D01*
X106733Y161177D01*
X106737Y161173D01*
X106740Y161166D01*
X106748Y161155D01*
X106758Y161141D01*
X106773Y161123D01*
X106788Y161097D01*
X106802Y161072D01*
X106820Y161039D01*
X106850Y160966D01*
X106879Y160882D01*
X106897Y160784D01*
X106904Y160733D01*
Y160642D01*
X106901Y160602D01*
X106893Y160555D01*
X106882Y160496D01*
X106864Y160431D01*
X106842Y160365D01*
X106813Y160300D01*
Y160296D01*
X106809Y160293D01*
X106799Y160271D01*
X106777Y160238D01*
X106751Y160202D01*
X106715Y160158D01*
X106675Y160114D01*
X106628Y160071D01*
X106573Y160034D01*
X106566Y160030D01*
X106547Y160020D01*
X106515Y160005D01*
X106475Y159987D01*
X106427Y159969D01*
X106373Y159954D01*
X106311Y159943D01*
X106249Y159940D01*
X106242D01*
X106220D01*
X106191Y159943D01*
X106151Y159950D01*
X106103Y159961D01*
X106052Y159980D01*
X106001Y160001D01*
X105950Y160030D01*
X105943Y160034D01*
X105929Y160045D01*
X105903Y160067D01*
X105874Y160096D01*
X105841Y160132D01*
X105805Y160176D01*
X105772Y160227D01*
X105739Y160289D01*
Y160285D01*
X105736Y160278D01*
X105732Y160267D01*
X105728Y160253D01*
X105714Y160213D01*
X105692Y160162D01*
X105663Y160103D01*
X105626Y160045D01*
X105579Y159991D01*
X105525Y159940D01*
X105517Y159936D01*
X105496Y159921D01*
X105459Y159899D01*
X105412Y159878D01*
X105353Y159856D01*
X105284Y159834D01*
X105204Y159819D01*
X105117Y159816D01*
X105113D01*
X105102D01*
X105084D01*
X105062Y159819D01*
X105033Y159823D01*
X105000Y159830D01*
X104964Y159838D01*
X104924Y159845D01*
X104837Y159874D01*
X104789Y159896D01*
X104746Y159918D01*
X104698Y159947D01*
X104651Y159980D01*
X104604Y160016D01*
X104560Y160060D01*
X104556Y160063D01*
X104549Y160071D01*
X104538Y160085D01*
X104524Y160103D01*
X104505Y160125D01*
X104487Y160154D01*
X104465Y160187D01*
X104447Y160227D01*
X104425Y160267D01*
X104403Y160314D01*
X104385Y160362D01*
X104367Y160416D01*
X104352Y160475D01*
X104342Y160537D01*
X104334Y160598D01*
X104331Y160668D01*
Y160700D01*
X104334Y160722D01*
X104338Y160751D01*
X104342Y160784D01*
X104349Y160820D01*
X104356Y160860D01*
X104378Y160948D01*
X104414Y161039D01*
X104436Y161086D01*
X104462Y161130D01*
X104495Y161173D01*
X104527Y161217D01*
X104531Y161221D01*
X104538Y161228D01*
X104549Y161239D01*
X104564Y161250D01*
X104582Y161268D01*
X104607Y161286D01*
X104633Y161308D01*
X104666Y161330D01*
X104702Y161352D01*
X104738Y161374D01*
X104826Y161414D01*
X104928Y161446D01*
X104982Y161457D01*
X105041Y161465D01*
X105080Y161155D01*
D02*
G37*
G36*
X153103Y170962D02*
X153100D01*
X153085D01*
X153063D01*
X153034Y170966D01*
X153001Y170969D01*
X152965Y170976D01*
X152929Y170984D01*
X152889Y170998D01*
X152885D01*
X152881Y171002D01*
X152859Y171009D01*
X152827Y171024D01*
X152783Y171045D01*
X152732Y171075D01*
X152674Y171111D01*
X152616Y171151D01*
X152554Y171202D01*
X152550D01*
X152546Y171209D01*
X152525Y171228D01*
X152492Y171260D01*
X152445Y171308D01*
X152390Y171362D01*
X152324Y171431D01*
X152252Y171515D01*
X152175Y171606D01*
X152172Y171610D01*
X152161Y171624D01*
X152142Y171646D01*
X152120Y171672D01*
X152091Y171704D01*
X152059Y171744D01*
X152022Y171784D01*
X151982Y171832D01*
X151895Y171923D01*
X151807Y172014D01*
X151764Y172057D01*
X151720Y172098D01*
X151680Y172134D01*
X151640Y172163D01*
X151636D01*
X151633Y172170D01*
X151622Y172178D01*
X151607Y172185D01*
X151567Y172210D01*
X151520Y172239D01*
X151462Y172265D01*
X151400Y172290D01*
X151331Y172305D01*
X151265Y172312D01*
X151261D01*
X151258D01*
X151236Y172309D01*
X151200Y172305D01*
X151160Y172294D01*
X151109Y172280D01*
X151058Y172254D01*
X151007Y172221D01*
X150956Y172178D01*
X150948Y172170D01*
X150934Y172152D01*
X150916Y172127D01*
X150890Y172087D01*
X150868Y172036D01*
X150847Y171977D01*
X150832Y171908D01*
X150828Y171832D01*
Y171810D01*
X150832Y171795D01*
X150836Y171752D01*
X150847Y171701D01*
X150861Y171646D01*
X150887Y171584D01*
X150919Y171526D01*
X150963Y171471D01*
X150970Y171464D01*
X150988Y171450D01*
X151018Y171428D01*
X151061Y171406D01*
X151112Y171380D01*
X151178Y171359D01*
X151251Y171344D01*
X151334Y171337D01*
X151302Y171020D01*
X151298D01*
X151287Y171024D01*
X151269D01*
X151243Y171027D01*
X151214Y171035D01*
X151181Y171042D01*
X151141Y171053D01*
X151101Y171064D01*
X151014Y171093D01*
X150927Y171136D01*
X150883Y171162D01*
X150839Y171195D01*
X150799Y171228D01*
X150763Y171264D01*
X150759Y171268D01*
X150756Y171275D01*
X150745Y171286D01*
X150734Y171304D01*
X150719Y171326D01*
X150705Y171351D01*
X150686Y171380D01*
X150668Y171417D01*
X150650Y171457D01*
X150632Y171501D01*
X150617Y171548D01*
X150603Y171599D01*
X150592Y171653D01*
X150581Y171712D01*
X150577Y171774D01*
X150574Y171839D01*
Y171876D01*
X150577Y171901D01*
X150581Y171930D01*
X150584Y171967D01*
X150592Y172006D01*
X150599Y172046D01*
X150625Y172141D01*
X150661Y172236D01*
X150683Y172283D01*
X150708Y172330D01*
X150741Y172374D01*
X150777Y172414D01*
X150781Y172418D01*
X150785Y172425D01*
X150799Y172432D01*
X150814Y172447D01*
X150832Y172465D01*
X150857Y172483D01*
X150883Y172502D01*
X150916Y172523D01*
X150985Y172560D01*
X151072Y172596D01*
X151116Y172611D01*
X151167Y172618D01*
X151218Y172625D01*
X151272Y172629D01*
X151280D01*
X151298D01*
X151327Y172625D01*
X151367Y172622D01*
X151411Y172614D01*
X151462Y172600D01*
X151516Y172585D01*
X151571Y172563D01*
X151578Y172560D01*
X151596Y172553D01*
X151626Y172538D01*
X151665Y172516D01*
X151709Y172487D01*
X151764Y172451D01*
X151818Y172407D01*
X151880Y172356D01*
X151888Y172349D01*
X151909Y172330D01*
X151928Y172312D01*
X151946Y172294D01*
X151968Y172272D01*
X151997Y172243D01*
X152026Y172214D01*
X152059Y172178D01*
X152095Y172141D01*
X152135Y172098D01*
X152175Y172050D01*
X152222Y171999D01*
X152270Y171941D01*
X152321Y171883D01*
X152324Y171879D01*
X152332Y171872D01*
X152343Y171857D01*
X152357Y171839D01*
X152379Y171817D01*
X152401Y171792D01*
X152448Y171733D01*
X152503Y171672D01*
X152557Y171613D01*
X152605Y171562D01*
X152623Y171541D01*
X152641Y171522D01*
X152645Y171519D01*
X152656Y171508D01*
X152670Y171493D01*
X152692Y171475D01*
X152717Y171457D01*
X152743Y171435D01*
X152805Y171391D01*
Y172633D01*
X153103D01*
Y170962D01*
D02*
G37*
G36*
Y169903D02*
X151134D01*
X151138Y169899D01*
X151152Y169881D01*
X151174Y169859D01*
X151200Y169823D01*
X151232Y169782D01*
X151269Y169731D01*
X151309Y169673D01*
X151349Y169608D01*
Y169604D01*
X151353Y169600D01*
X151367Y169579D01*
X151385Y169542D01*
X151407Y169499D01*
X151433Y169448D01*
X151458Y169393D01*
X151484Y169338D01*
X151505Y169284D01*
X151207D01*
Y169287D01*
X151200Y169295D01*
X151196Y169309D01*
X151185Y169327D01*
X151174Y169349D01*
X151160Y169375D01*
X151123Y169437D01*
X151083Y169509D01*
X151032Y169582D01*
X150974Y169659D01*
X150912Y169735D01*
X150908Y169739D01*
X150905Y169742D01*
X150894Y169753D01*
X150883Y169768D01*
X150847Y169801D01*
X150803Y169844D01*
X150752Y169888D01*
X150694Y169935D01*
X150635Y169975D01*
X150574Y170012D01*
Y170212D01*
X153103D01*
Y169903D01*
D02*
G37*
G36*
X151906Y168712D02*
X151935D01*
X152004Y168709D01*
X152084Y168698D01*
X152168Y168687D01*
X152255Y168669D01*
X152343Y168647D01*
X152346D01*
X152354Y168643D01*
X152364Y168640D01*
X152379Y168636D01*
X152419Y168621D01*
X152470Y168599D01*
X152528Y168578D01*
X152586Y168549D01*
X152648Y168512D01*
X152707Y168476D01*
X152714Y168472D01*
X152732Y168457D01*
X152758Y168436D01*
X152790Y168406D01*
X152827Y168374D01*
X152863Y168334D01*
X152903Y168294D01*
X152936Y168246D01*
X152939Y168239D01*
X152950Y168225D01*
X152965Y168199D01*
X152983Y168163D01*
X153005Y168119D01*
X153023Y168068D01*
X153045Y168010D01*
X153063Y167944D01*
Y167937D01*
X153067Y167926D01*
X153071Y167915D01*
X153074Y167879D01*
X153082Y167828D01*
X153089Y167770D01*
X153096Y167700D01*
X153100Y167624D01*
X153103Y167540D01*
Y166634D01*
X150584D01*
Y167602D01*
X150588Y167668D01*
X150592Y167740D01*
X150599Y167813D01*
X150610Y167886D01*
X150621Y167948D01*
Y167952D01*
X150625Y167959D01*
Y167970D01*
X150632Y167984D01*
X150643Y168024D01*
X150661Y168075D01*
X150686Y168133D01*
X150719Y168195D01*
X150756Y168257D01*
X150803Y168315D01*
X150806Y168319D01*
X150810Y168323D01*
X150821Y168334D01*
X150832Y168348D01*
X150868Y168385D01*
X150919Y168428D01*
X150981Y168476D01*
X151054Y168527D01*
X151138Y168574D01*
X151232Y168614D01*
X151236D01*
X151243Y168618D01*
X151258Y168625D01*
X151280Y168629D01*
X151305Y168640D01*
X151334Y168647D01*
X151367Y168654D01*
X151407Y168665D01*
X151447Y168676D01*
X151494Y168683D01*
X151596Y168701D01*
X151709Y168712D01*
X151833Y168716D01*
X151837D01*
X151844D01*
X151862D01*
X151880D01*
X151906Y168712D01*
D02*
G37*
%LPC*%
G36*
X151826Y168374D02*
X151822D01*
X151807D01*
X151789D01*
X151760Y168370D01*
X151727D01*
X151691Y168367D01*
X151647Y168363D01*
X151604Y168359D01*
X151505Y168341D01*
X151403Y168319D01*
X151309Y168286D01*
X151261Y168265D01*
X151221Y168243D01*
X151218D01*
X151210Y168235D01*
X151200Y168228D01*
X151185Y168221D01*
X151149Y168192D01*
X151105Y168155D01*
X151058Y168108D01*
X151010Y168053D01*
X150970Y167992D01*
X150937Y167926D01*
X150934Y167919D01*
X150930Y167901D01*
X150919Y167868D01*
X150908Y167821D01*
X150901Y167762D01*
X150890Y167690D01*
X150887Y167646D01*
Y167598D01*
X150883Y167551D01*
Y166969D01*
X152805D01*
Y167566D01*
X152801Y167591D01*
X152798Y167646D01*
X152794Y167708D01*
X152787Y167773D01*
X152776Y167839D01*
X152761Y167893D01*
X152758Y167901D01*
X152754Y167919D01*
X152743Y167944D01*
X152728Y167977D01*
X152707Y168013D01*
X152685Y168050D01*
X152659Y168086D01*
X152630Y168123D01*
X152623Y168126D01*
X152608Y168141D01*
X152583Y168163D01*
X152546Y168188D01*
X152499Y168217D01*
X152445Y168250D01*
X152383Y168279D01*
X152313Y168305D01*
X152310D01*
X152303Y168308D01*
X152292Y168312D01*
X152277Y168315D01*
X152259Y168319D01*
X152233Y168326D01*
X152208Y168334D01*
X152179Y168341D01*
X152106Y168352D01*
X152022Y168363D01*
X151928Y168370D01*
X151826Y168374D01*
D02*
G37*
%LPD*%
D13*
X115157Y153051D02*
Y174705D01*
X93504Y153051D02*
X115157D01*
X93504D02*
Y174705D01*
X115157D01*
X145984Y160531D02*
X158740D01*
Y172736D01*
X145984D02*
X158740D01*
X145984Y160531D02*
Y172736D01*
M02*
