G04*
G04 #@! TF.GenerationSoftware,Altium Limited,Altium Designer,21.1.0 (24)*
G04*
G04 Layer_Color=16711935*
%FSLAX25Y25*%
%MOIN*%
G70*
G04*
G04 #@! TF.SameCoordinates,8E11B689-D9C9-4360-AAA9-F91F00066FD3*
G04*
G04*
G04 #@! TF.FilePolarity,Positive*
G04*
G01*
G75*
%ADD12C,0.00500*%
%ADD15C,0.00394*%
D12*
X72342Y142421D02*
Y166831D01*
X47933D02*
X72342D01*
X47933Y142421D02*
Y166831D01*
Y142421D02*
X72342D01*
D15*
X148228Y140157D02*
G03*
X148228Y140157I-1969J0D01*
G01*
X116142Y189961D02*
Y193701D01*
X122835Y189961D02*
Y193701D01*
X116142D02*
X122835D01*
X116142Y189961D02*
X122835D01*
X81496Y164272D02*
X85236D01*
X81496Y157579D02*
X85236D01*
Y164272D01*
X81496Y157579D02*
Y164272D01*
X179528Y128347D02*
X183268D01*
X179528Y121653D02*
X183268D01*
Y128347D01*
X179528Y121653D02*
Y128347D01*
X162402Y136614D02*
Y152362D01*
X142717Y136614D02*
Y152362D01*
X162402D01*
X142717Y136614D02*
X162402D01*
X83071Y135925D02*
Y139665D01*
X76378Y135925D02*
Y139665D01*
Y135925D02*
X83071D01*
X76378Y139665D02*
X83071D01*
X155709Y175098D02*
Y178839D01*
X149016Y175098D02*
Y178839D01*
X155709D01*
X149016Y175098D02*
X155709D01*
X189626Y164449D02*
X225059D01*
Y199882D01*
X189626D02*
X225059D01*
X189626Y164449D02*
Y199882D01*
X270433Y164606D02*
X305866D01*
Y200040D01*
X270433D02*
X305866D01*
X270433Y164606D02*
Y200040D01*
X148386Y5158D02*
Y40591D01*
Y5158D02*
X183819D01*
Y40591D01*
X148386D02*
X183819D01*
X270433Y46496D02*
X305866D01*
Y81930D01*
X270433D02*
X305866D01*
X270433Y46496D02*
Y81930D01*
X183366Y89468D02*
Y93209D01*
X176673Y89468D02*
Y93209D01*
Y89468D02*
X183366D01*
X176673Y93209D02*
X183366D01*
X166240Y81201D02*
X169980D01*
X166240Y87894D02*
X169980D01*
X166240Y81201D02*
Y87894D01*
X169980Y81201D02*
Y87894D01*
X210531Y70079D02*
X214272D01*
X210531Y76772D02*
X214272D01*
X210531Y70079D02*
Y76772D01*
X214272Y70079D02*
Y76772D01*
X246850D02*
X250590D01*
X246850Y70079D02*
X250590D01*
Y76772D01*
X246850Y70079D02*
Y76772D01*
X169783Y66102D02*
X175295D01*
X169783Y77598D02*
X175295D01*
Y66102D02*
Y77598D01*
X169783Y66102D02*
Y77598D01*
X175394Y81496D02*
X182087D01*
Y86417D01*
X175394D02*
X182087D01*
X175394Y81496D02*
Y86417D01*
X143405Y51673D02*
Y55413D01*
X136713Y51673D02*
Y55413D01*
Y51673D02*
X143405D01*
X136713Y55413D02*
X143405D01*
X114726Y47244D02*
X118466D01*
X114726Y53937D02*
X118466D01*
X114726Y47244D02*
Y53937D01*
X118466Y47244D02*
Y53937D01*
X179429Y151279D02*
Y157972D01*
X183169Y151279D02*
Y157972D01*
X179429Y151279D02*
X183169D01*
X179429Y157972D02*
X183169D01*
X228937Y79528D02*
X232677D01*
X228937Y86221D02*
X232677D01*
X228937Y79528D02*
Y86221D01*
X232677Y79528D02*
Y86221D01*
X193012Y79528D02*
X196752D01*
X193012Y86221D02*
X196752D01*
X193012Y79528D02*
Y86221D01*
X196752Y79528D02*
Y86221D01*
X193307Y137992D02*
X197047D01*
X193307Y131299D02*
X197047D01*
Y137992D01*
X193307Y131299D02*
Y137992D01*
X228839Y150197D02*
X232579D01*
X228839Y143504D02*
X232579D01*
Y150197D01*
X228839Y143504D02*
Y150197D01*
X179134Y192520D02*
X182874D01*
X179134Y199213D02*
X182874D01*
X179134Y192520D02*
Y199213D01*
X182874Y192520D02*
Y199213D01*
X39272Y177264D02*
Y183957D01*
X35531Y177264D02*
Y183957D01*
X39272D01*
X35531Y177264D02*
X39272D01*
X6594Y131004D02*
Y137697D01*
X2854Y131004D02*
Y137697D01*
X6594D01*
X2854Y131004D02*
X6594D01*
X11073Y169095D02*
X17766D01*
X11073Y172835D02*
X17766D01*
Y169095D02*
Y172835D01*
X11073Y169095D02*
Y172835D01*
X29685Y108268D02*
Y114961D01*
X25945Y108268D02*
Y114961D01*
X29685D01*
X25945Y108268D02*
X29685D01*
X74902Y154921D02*
X78642D01*
X74902Y161614D02*
X78642D01*
X74902Y154921D02*
Y161614D01*
X78642Y154921D02*
Y161614D01*
X93405Y108760D02*
X97146D01*
X93405Y115453D02*
X97146D01*
X93405Y108760D02*
Y115453D01*
X97146Y108760D02*
Y115453D01*
X54587Y108268D02*
Y114961D01*
X50846Y108268D02*
Y114961D01*
X54587D01*
X50846Y108268D02*
X54587D01*
X79291D02*
Y114961D01*
X75551Y108268D02*
Y114961D01*
X79291D01*
X75551Y108268D02*
X79291D01*
X84350Y108760D02*
X88091D01*
X84350Y115453D02*
X88091D01*
X84350Y108760D02*
Y115453D01*
X88091Y108760D02*
Y115453D01*
X46811Y108760D02*
Y115453D01*
X43071Y108760D02*
Y115453D01*
X46811D01*
X43071Y108760D02*
X46811D01*
X104921Y108268D02*
Y114961D01*
X101181Y108268D02*
Y114961D01*
X104921D01*
X101181Y108268D02*
X104921D01*
X37756Y108760D02*
Y115453D01*
X34016Y108760D02*
Y115453D01*
X37756D01*
X34016Y108760D02*
X37756D01*
X21910Y108760D02*
Y115453D01*
X18169Y108760D02*
Y115453D01*
X21910D01*
X18169Y108760D02*
X21910D01*
X12854D02*
Y115453D01*
X9114Y108760D02*
Y115453D01*
X12854D01*
X9114Y108760D02*
X12854D01*
X120374Y169193D02*
Y172933D01*
X127067Y169193D02*
Y172933D01*
X120374D02*
X127067D01*
X120374Y169193D02*
X127067D01*
X67776Y108760D02*
X71516D01*
X67776Y115453D02*
X71516D01*
X67776Y108760D02*
Y115453D01*
X71516Y108760D02*
Y115453D01*
X58720Y108760D02*
X62461D01*
X58720Y115453D02*
X62461D01*
X58720Y108760D02*
Y115453D01*
X62461Y108760D02*
Y115453D01*
M02*
