M48
;Layer_Color=9474304
;FILE_FORMAT=2:5
INCH,LZ
;TYPE=PLATED
T1F00S00C0.01181
T2F00S00C0.03543
T3F00S00C0.04016
T4F00S00C0.04803
T5F00S00C0.05807
T6F00S00C0.12992
;TYPE=NON_PLATED
T7F00S00C0.05000
T8F00S00C0.09488
T9F00S00C0.12992
%
T01
X0112205Y0055118
X0153543Y0029528
X015748
X0161417
X0165354
X0169291
X0173228
X0177165
X0181102
Y0023622
X0177165
X0173228
X0169291
X0165354
X0161417
X015748
X0153543
Y0017717
X015748
X0161417
X0165354
X0169291
X0173228
X0177165
X0181102
X0190945Y0019685
X0194882
Y0023622
X0190945
Y0027559
X0194882
Y0031496
X0190945
Y0035433
X0194882
Y0015748
X0190945
Y0011811
X0194882
Y0007874
X0190945
X0244094Y0011811
X0248031
X0251969
X0255906
Y0017717
X0251969
X0248031
X0244094
Y0023622
X0248031
X0251969
X0255906
Y0029528
X0251969
X0248031
X0244094
X0240158Y005315
X0232283
X022441
X0248031
X0255906
Y0057087
Y0061024
X0255834Y0064894
X024796
X0248031Y0061024
Y0057087
X0240158
Y0061024
X0240086Y0064894
X0232212
X0232283Y0061024
Y0057087
X022441
Y0061024
X0224338Y0064894
X0226378Y0100394
X0230315
X0234252
X0240158
X0244094
X0248031
X0251969
X0255906
Y0112205
X0251969
X0248031
X0244094
X0240158
X0234252
X0230315
X0226378
X0220472
X0216535
Y0100394
X0220472
Y0124016
X0216535
X0226378
X0230315
X0234252
X0240158
X0244094
X0248031
X0251969
X0255906
Y0135827
X0251969
X0248031
X0244094
X0240158
X0234252
X0230315
X0226378
X0220472
X0216535
X0215846Y017126
Y0177165
Y0183071
Y0188976
Y0194882
X0240158
X0244094
Y0200787
X0240158
Y0188976
X0244094
Y0183071
Y0177165
X0240158
Y017126
X0244094
Y0165354
X0240158
X021191Y017126
X0207972
X0204035
X0200098
Y0177165
X0204035
X0207972
X021191
Y0183071
X0207972
X0204035
X0200098
Y0188976
X0204035
X0207972
X021191
Y0194882
X0207972
X0204035
X0200098
X0174114Y0201476
X0176181Y0175886
X0175098Y0170472
X0155807Y0171358
X0148917
X0143602Y0160827
X0132382Y0167618
X0116929Y0164567
X011624Y0172835
X0110728Y0179429
X0111221Y0183366
Y0187205
X0111713Y0191929
X0110236Y0200396
X0102362
X0094488
X0088583Y0194882
Y0188976
Y0183071
X0088681Y0177067
X009124Y0156595
X0083465Y0153445
X0072441Y0161024
X0069193Y016998
X0063189Y0170965
X0063779Y0138779
X0069193Y0138681
X0088976Y0136909
X0092126Y0124902
X009252Y0106201
X0083169Y0105118
X0080472Y0114469
X006689Y0106201
X0057677Y0105118
X0056496Y0087599
X0066004Y0091535
X0081201Y0087599
X0091634Y0091536
X0106831Y0087599
X0106102Y0114469
X0139764Y0114173
Y0108268
Y0102362
X0145669
Y0108268
Y0114173
X0151575
Y0108268
Y0102362
X015748
Y0108268
Y0114173
X0163386
Y0108268
Y0102362
X0169291
Y0108268
Y0114173
X0175492Y0123524
X0172835Y0147539
X0166437Y0145596
X0163681Y0154035
X015Y0128347
X0144095
X0138189
X0132283
X0126378
X0116831Y0153445
X0106299Y0161417
X0102362
Y0165354
X0106299
X0097933Y0145472
X012815Y0191831
X0122539Y0070768
X0119193Y0070866
X0139627Y0072216
X0145669Y0072835
X0151575
Y0068898
Y0064961
X015748
Y0061024
Y0068898
Y0072835
X0148819Y0060532
X0181201Y0067913
X017687Y0078937
X0190945Y0082677
X0204724Y0100394
X0208661
X0212469Y0100402
Y0112214
X0208661Y0112205
X0204724
Y0124016
X0208661
X0212469Y0124024
Y0135836
X0208661Y0135827
X0204724
X0080149Y0056859
X0074016Y0058169
X0048524Y0058366
X0024409Y0058268
X0031594Y0087598
X0041299Y0091535
X0042185Y0106201
X0032874Y0105118
X0030866Y0114469
X0017284Y0106201
X0007795Y0105905
X0016398Y0091535
X0055768Y0114469
X0033465Y0151575
X0027559
X0021654
X0011891Y0154429
X0009843Y0147638
X0003937Y0151575
Y015748
X000876Y0177854
Y0184252
X0007874Y0192913
Y019685
X0011811
Y0192913
X0015748
Y019685
X0019685
Y0192913
X0024606Y0191929
Y0188976
X0028543
Y0191929
Y0194882
X0024606
X0025566Y0200812
X0029503
X0019685Y0200787
X0015748
X0011811
X0003937Y0192913
X0030709Y0182973
X0037303Y018627
X0037225Y016569
X0040738Y0166154
X0045276Y0165354
T02
X0038721Y0194685
X004872
T03
X0123524Y0140197
X0133524
Y0150197
Y0160197
X0123524
Y0150197
T04
X0144488Y0194193
X0156299
T05
X0151102Y0007874
X0161102
X0171102
X0181102
Y0037874
X0171102
X0161102
X0151102
X027315Y0049213
X030315
Y0059213
Y0069213
Y0079213
X027315
Y0069213
Y0059213
Y0167323
Y0177323
Y0187323
Y0197323
X030315
Y0187323
Y0177323
Y0167323
X0222342Y0167165
Y0177165
Y0187165
Y0197165
X0192342
Y0187165
Y0177165
Y0167165
T06
X0070472Y0188976
T07
X0132677Y0186476
X016811
T08
X0008799Y0017362
X0073484
T09
X0100394Y0019685
X0299213
M30
